<ttFont>
<head>
    <!-- Most of this table will be recalculated by the compiler -->
    <tableVersion value="1.0"/>
    <fontRevision value="3.0"/>
    <checkSumAdjustment value="0x95faf0e9"/>
    <magicNumber value="0x5f0f3cf5"/>
    <flags value="00000000 00000011"/>
    <unitsPerEm value="1000"/>
    <created value="Thu Aug 10 00:13:35 2017"/>
    <modified value="Thu Aug 10 00:13:35 2017"/>
    <xMin value="-531"/>
    <yMin value="-573"/>
    <xMax value="2567"/>
    <yMax value="1065"/>
    <macStyle value="00000000 00000000"/>
    <lowestRecPPEM value="3"/>
    <fontDirectionHint value="2"/>
    <indexToLocFormat value="0"/>
    <glyphDataFormat value="0"/>
  </head>
          <CharString index="0">
            188 callsubr
            -1 -8 hhcurveto
            -104 -55 71 100 89 46 67 89 87 41 -77 -106 hvcurveto
            -15 70 15 vlineto
            return
          </CharString>
          <CharString index="1">
            -2 hlineto
            -105 callgsubr
            return
          </CharString>
          <CharString index="2">
            12 316 482 rmoveto
            89 88 -55 -128 -7 hvcurveto
            -351 hlineto
            126 5 83 57 93 hhcurveto
            258 -292 rmoveto
            -97 hlineto
            -75 -13 -64 -48 -88 hhcurveto
            -89 -84 54 134 -4 hvcurveto
            439 hlineto
            3 16 1 12 22 vvcurveto
            136 -96 115 -166 -157 -113 -106 -176 -176 113 -105 157 140 98 83 114 20 vhcurveto
            return
          </CharString>
          <CharString index="3">
            46 callsubr
            83 65 -61 -96 -100 -61 -60 -83 -15 -17 2 3 -13 vhcurveto
            -65 vlineto
            -5 18 24 -3 22 hhcurveto
            120 89 85 147 133 -87 92 -121 -91 -58 -45 -60 -28 hvcurveto
            216 vlineto
            return
          </CharString>
          <CharString index="4">
            -91 callgsubr
            49 callsubr
            return
          </CharString>
          <CharString index="5">
            -74 -71 -93 callgsubr
            return
          </CharString>
          <CharString index="6">
            32 -24 25 -32 -32 -24 -25 -32 -31 24 -24 32 32 24 24 31 vhcurveto
            return
          </CharString>
          <CharString index="7">
            179 49 353 rmoveto
            -212 149 -149 198 197 148 149 212 212 -147 149 -198 -198 -149 -149 -212 vhcurveto
            599 hmoveto
            -170 -108 -106 -144 -146 -107 106 170 171 107 105 146 144 108 -105 -171 vhcurveto
            return
          </CharString>
          <CharString index="8">
            rmoveto
            28 22 22 27 28 -22 22 -28 -28 -22 -22 -28 -27 22 -22 28 hvcurveto
            166 hmoveto
            28 22 22 27 28 -22 22 -28 -28 -22 -22 -28 -27 22 -22 28 hvcurveto
            return
          </CharString>
          <CharString index="9">
            rmoveto
            50 hlineto
            33 4 15 14 24 41 23 -48 57 hhcurveto
            51 37 36 68 9 hvcurveto
            -51 hlineto
            -31 -4 -17 -16 -23 -44 -21 49 -55 hhcurveto
            -51 -34 -34 -71 -11 hvcurveto
            return
          </CharString>
          <CharString index="10">
            -105 callgsubr
            43 75 91 return
          </CharString>
          <CharString index="11">
            rmoveto
            -97 -44 67 106 hvcurveto
            229 280 -251 vlineto
            -82 -49 -69 -90 vhcurveto
            return
          </CharString>
          <CharString index="12">
            149 callgsubr
            107 82 65 -61 -96 -101 -62 -58 -82 -14 -16 1 3 -12 vhcurveto
            -66 vlineto
            -5 18 22 -2 22 hhcurveto
            119 90 84 146 134 -87 215 callsubr
            -57 -45 -60 -27 hvcurveto
            216 478 70 return
          </CharString>
          <CharString index="13">
            31 46 274 rmoveto
            -176 119 -105 157 157 118 105 176 176 -118 106 -157 -157 -119 -106 -176 vhcurveto
            459 hmoveto
            -139 -89 -62 -94 -94 -89 62 139 140 89 62 94 94 89 -62 -140 vhcurveto
            return
          </CharString>
          <CharString index="14">
            54 69 -57 hlineto
            -91 -61 44 76 58 37 45 64 64 35 -44 -53 -5 0 -6 -1 -13 hvcurveto
            64 hlineto
            1 11 0 14 8 vvcurveto
            93 -61 66 -105 return
          </CharString>
          <CharString index="15">
            rmoveto
            -95 -72 63 105 101 74 174 callsubr
            51 -87 -80 -75 -51 -90 -118 hvcurveto
            return
          </CharString>
          <CharString index="16">
            -84 callsubr
            69 115 return
          </CharString>
          <CharString index="17">
            -70 410 130 callsubr
            93 48 -41 -67 -52 -36 -46 -82 -94 -49 53 62 -9 hvcurveto
            -74 -248 79 154 hlineto
            -23 14 47 -61 109 hhcurveto
            116 56 67 84 53 -20 38 -29 25 hvcurveto
            return
          </CharString>
          <CharString index="18">
            rmoveto
            -98 -87 90 callsubr
            36 20 29 hvcurveto
            276 -241 rlineto
            -27 -29 -41 -18 -53 hhcurveto
            return
          </CharString>
          <CharString index="19">
            49 68 282 rmoveto
            -199 110 -90 152 152 111 90 199 140 callgsubr
            -143 -68 -60 -102 -104 -69 60 143 283 callsubr
            vlineto
            return
          </CharString>
          <CharString index="20">
            rmoveto
            -106 callgsubr
            endchar
          </CharString>
          <CharString index="21">
            hhcurveto
            108 -68 callgsubr
            return
          </CharString>
          <CharString index="22">
            -102 callsubr
            43 75 return
          </CharString>
          <CharString index="23">
            -119 -91 -71 -123 -118 88 -75 115 110 84 return
          </CharString>
          <CharString index="24">
            -142 88 -91 125 91 60 45 60 29 return
          </CharString>
          <CharString index="25">
            rmoveto
            -84 callgsubr
            return
          </CharString>
          <CharString index="26">
            rmoveto
            -148 -92 54 101 68 46 58 109 hvcurveto
            20 67 -22 hlineto
            -94 -37 44 77 hvcurveto
            102 368 -122 vlineto
            -74 -12 -64 -50 -106 vvcurveto
            -34 6 -35 11 -32 vhcurveto
            199 callgsubr
            return
          </CharString>
          <CharString index="27">
            82 318 -77 vlineto
            -95 -76 -41 -66 -96 -61 62 95 110 84 55 104 vhcurveto
            149 182 return
          </CharString>
          <CharString index="28">
            33 66 -22 hlineto
            264 callgsubr
            return
          </CharString>
          <CharString index="29">
            -112 -40 vlineto
            -166 -128 -91 -183 -170 130 -106 171 149 92 78 117 96 -65 68 -104 -88 -69 -50 -88 -9 2 -12 1 -9 hvcurveto
            62 hlineto
            -1 5 -1 8 6 vvcurveto
            53 42 35 49 58 41 -43 -60 -80 -70 -53 -97 -135 -86 88 123 147 103 70 134 vhcurveto
            return
          </CharString>
          <CharString index="30">
            -92 callsubr
            382 577 rmoveto
            return
          </CharString>
          <CharString index="31">
            -41 callsubr
            -87 197 callsubr
            return
          </CharString>
          <CharString index="32">
            rmoveto
            -101 callsubr
            endchar
          </CharString>
          <CharString index="33">
            -86 callgsubr
            321 vlineto
            return
          </CharString>
          <CharString index="34">
            -61 -45 41 65 66 49 1 callgsubr
            -49 -66 vhcurveto
            return
          </CharString>
          <CharString index="35">
            vvcurveto
            -150 113 -103 157 160 105 106 154 vhcurveto
            -70 callsubr
          </CharString>
          <CharString index="36">
            201 -53 callsubr
            return
          </CharString>
          <CharString index="37">
            -88 callgsubr
            endchar
          </CharString>
          <CharString index="38">
            55 36 -19 -27 22 hvcurveto
            1 -6 rlineto
            3 hlineto
            16 -22 7 -27 -26 vvcurveto
            -75 -51 -53 -81 -81 -57 55 76 vhcurveto
            -78 hlineto
            -121 92 -82 130 122 80 76 116 29 -6 28 -12 26 vhcurveto
            159 -1 rlineto
            -327 return
          </CharString>
          <CharString index="39">
            -107 callgsubr
            402 384 rmoveto
            188 callgsubr
            216 382 1 167 -91 vlineto
            -31 callsubr
            -27 hlineto
            83 -23 -66 58 -95 hhcurveto
            464 27 rmoveto
            91 return
          </CharString>
          <CharString index="40">
            -101 -57 -66 -114 vhcurveto
            -44 hlineto
            57 -32 -68 44 -111 165 callgsubr
            117 41 -72 -46 hvcurveto
            -101 vlineto
            122 callgsubr
            132 213 callsubr
            vhcurveto
            16 -80 -12 vlineto
            -77 -43 -52 -73 -79 -36 59 81 vhcurveto
            133 return
          </CharString>
          <CharString index="41">
            rmoveto
            121 61 -92 -89 -35 -10 -37 -21 -32 hvcurveto
            -275 240 rlineto
            29 33 43 16 48 hhcurveto
            2 -360 rmoveto
            -100 -84 90 callsubr
            36 20 29 hvcurveto
            275 -240 rlineto
            -28 -29 -41 -18 -53 hhcurveto
            return
          </CharString>
          <CharString index="42">
            -32 callgsubr
            74 77 120 return
          </CharString>
          <CharString index="43">
            -86 callsubr
            vlineto
            return
          </CharString>
          <CharString index="44">
            -106 462 705 rmoveto
            -389 -705 389 74 -298 246 268 70 -268 241 298 hlineto
            return
          </CharString>
          <CharString index="45">
            vvcurveto
            -165 106 -82 154 vhcurveto
            -52 callsubr
            return
          </CharString>
          <CharString index="46">
            47 61 36 hvcurveto
            241 callgsubr
            return
          </CharString>
          <CharString index="47">
            vlineto
            -16 callsubr
            return
          </CharString>
          <CharString index="48">
            189 -5 callgsubr
            131 70 -132 hlineto
            return
          </CharString>
          <CharString index="49">
            rmoveto
            -139 84 rlineto
            -64 vlineto
            139 -83 138 83 rlineto
            64 vlineto
            endchar
          </CharString>
          <CharString index="50">
            -74 callsubr
            80 return
          </CharString>
          <CharString index="51">
            276 callgsubr
            -15 -1 -16 -16 vvcurveto
            return
          </CharString>
          <CharString index="52">
            -70 111 -229 vlineto
            -41 callgsubr
            return
          </CharString>
          <CharString index="53">
            -71 callsubr
            414 112 callgsubr
            return
          </CharString>
          <CharString index="54">
            -36 callsubr
            -113 vhcurveto
            return
          </CharString>
          <CharString index="55">
            -79 callsubr
            146 -426 209 callsubr
            return
          </CharString>
          <CharString index="56" raw="1">
            911d1f29 1d0b  
          </CharString>
          <CharString index="57">
            -83 callsubr
            vhcurveto
            8 callgsubr
            return
          </CharString>
          <CharString index="58">
            rmoveto
            105 77 75 108 108 77 -75 -105 -106 -77 -75 -108 -108 -77 75 106 vhcurveto
            return
          </CharString>
          <CharString index="59">
            rmoveto
            -124 199 rlineto
            -83 hlineto
            121 -199 rlineto
            return
          </CharString>
          <CharString index="60">
            -136 -68 81 113 2 -35 callgsubr
            return
          </CharString>
          <CharString index="61">
            172 rmoveto
            -73 callsubr
            182 136 rmoveto
            77 return
          </CharString>
          <CharString index="62">
            61 -32 -63 43 -94 hhcurveto
            -131 -95 -90 -134 -3 hvcurveto
            -118 -16 -75 -54 -111 40 callgsubr
            return
          </CharString>
          <CharString index="63">
            rmoveto
            28 23 22 27 28 -23 22 -28 -27 -22 -22 -28 -27 22 -22 27 hvcurveto
            endchar
          </CharString>
          <CharString index="64">
            -55 callsubr
            313 vlineto
            86 return
          </CharString>
          <CharString index="65">
            hhcurveto
            -111 -50 -74 -71 -19 -31 callgsubr
            return
          </CharString>
          <CharString index="66">
            vvcurveto
            82 202 -45 callgsubr
            return
          </CharString>
          <CharString index="67">
            9 46 274 rmoveto
            -176 113 -105 157 142 96 81 125 21 vhcurveto
            -96 hlineto
            -79 -14 -64 -48 -87 hhcurveto
            -92 -83 63 139 140 83 62 92 87 64 -47 -79 14 hvcurveto
            96 hlineto
            124 -21 -96 82 -142 hhcurveto
            -157 -113 -106 -176 hvcurveto
            return
          </CharString>
          <CharString index="68">
            vvcurveto
            108 -87 60 -101 -108 -88 -66 -112 -98 71 -58 81 -16 vhcurveto
            -87 -44 -90 -47 -114 vvcurveto
            -96 69 -69 105 81 44 48 29 14 vhcurveto
            -161 vlineto
            return
          </CharString>
          <CharString index="69">
            -70 callgsubr
            559 -158 rmoveto
            -123 -71 68 117 -2 hvcurveto
            135 6 45 72 130 vvcurveto
            95 216 -45 callgsubr
            -87 -76 -113 vhcurveto
            -696 -113 229 callgsubr
            -82 vlineto
            -109 -29 -53 -92 -10 vhcurveto
            80 -27 -72 48 -99 hhcurveto
            -127 -89 -17 callgsubr
            1110 601 rmoveto
            70 -1471 -80 callgsubr
            83 66 34 61 34 hvcurveto
            -76 38 70 -44 110 196 callgsubr
            endchar
          </CharString>
          <CharString index="70">
            58 -28 -58 44 -91 hhcurveto
            return
          </CharString>
          <CharString index="71">
            -45 callgsubr
            -86 -76 return
          </CharString>
          <CharString index="72">
            rmoveto
            -74 callgsubr
            400 -206 vlineto
            46 -26 -49 35 -75 hhcurveto
            -112 -86 -80 -121 -82 36 -64 56 -34 hvcurveto
            -50 -25 -49 -45 -80 hhcurveto
            return
          </CharString>
          <CharString index="73">
            vlineto
            -167 3 95 -107 2 callgsubr
            return
          </CharString>
          <CharString index="74">
            -146 -119 -78 -157 153 callgsubr
            hvcurveto
            3 callsubr
            return
          </CharString>
          <CharString index="75">
            70 -18 -49 75 -106 hhcurveto
            return
          </CharString>
          <CharString index="76">
            -102 -57 -66 -114 vhcurveto
            return
          </CharString>
          <CharString index="77">
            -5 callgsubr
            703 90 callgsubr
            -82 -68 -35 -60 -39 hvcurveto
            55 -33 -55 32 -70 hhcurveto
            -87 226 callgsubr
            -235 -288 -107 callgsubr
            769 -5 -92 callsubr
            return
          </CharString>
          <CharString index="78">
            76 hlineto
            -2 14 -2 15 14 vvcurveto
            70 41 46 71 68 39 -49 -62 -116 -104 -26 -102 vhcurveto
            return
          </CharString>
          <CharString index="79">
            -287 vlineto
            -114 66 -86 124 125 66 84 116 vhcurveto
            287 return
          </CharString>
          <CharString index="80">
            141 callsubr
            831 -172 -148 vlineto
            -94 -77 -25 -53 -49 hvcurveto
            79 -28 -72 45 -98 67 callsubr
            1056 601 rmoveto
            70 -1417 -70 287 -121 vlineto
            176 callgsubr
            58 50 17 31 37 hvcurveto
            -122 23 91 -60 132 hhcurveto
            31 66 -20 hlineto
            -122 186 callgsubr
            146 -426 209 callsubr
            endchar
          </CharString>
          <CharString index="81">
            33 67 254 callgsubr
            112 119 62 59 110 96 28 -41 -29 10 hvcurveto
            -158 271 callgsubr
            72 47 61 36 vhcurveto
            -219 97 callgsubr
          </CharString>
          <CharString index="82">
            321 vlineto
            79 1 42 87 107 hhcurveto
            82 65 -61 -96 -101 -62 -58 -82 -14 -16 1 3 -12 hvcurveto
            -66 vlineto
            -5 18 22 -2 22 hhcurveto
            119 90 84 146 134 -87 215 callsubr
            -57 -45 -60 -27 hvcurveto
            216 478 70 return
          </CharString>
          <CharString index="83">
            670 vlineto
            endchar
          </CharString>
          <CharString index="84">
            -45 126 callsubr
            return
          </CharString>
          <CharString index="85">
            rmoveto
            -73 callsubr
            -598 -103 rmoveto
            -74 callgsubr
            692 -216 -94 vlineto
            -54 -45 -15 -28 -33 hvcurveto
            84 -25 -74 49 -102 hhcurveto
            -127 -85 -17 callgsubr
            1179 601 rmoveto
            70 -1540 -80 callgsubr
            67 55 22 40 36 hvcurveto
            -60 26 58 -37 81 hhcurveto
            115 63 73 134 hvcurveto
            77 184 -385 97 callgsubr
          </CharString>
          <CharString index="86">
            494 790 482 rmoveto
            94 91 -56 -127 -6 hvcurveto
            -365 hlineto
            130 6 88 53 92 hhcurveto
            266 -292 rmoveto
            -96 hlineto
            -77 -15 -66 -47 -91 hhcurveto
            -93 -85 56 133 -6 hvcurveto
            452 hlineto
            3 16 1 12 22 vvcurveto
            136 -88 115 -156 -102 -85 -51 -97 -27 vhcurveto
            141 56 callgsubr
            -175 106 -106 146 109 76 61 86 28 hvcurveto
            -140 91 140 vlineto
            -97 28 84 -50 102 hhcurveto
            132 88 83 114 20 hvcurveto
            -917 84 rmoveto
            126 74 75 111 108 79 -78 -123 -122 -79 -79 -108 -111 -74 75 126 vhcurveto
            return
          </CharString>
          <CharString index="87">
            -66 callsubr
            endchar
          </CharString>
          <CharString index="88">
            -94 282 callsubr
            -63 -113 -11 callsubr
            hvcurveto
            return
          </CharString>
          <CharString index="89">
            -14 callgsubr
            165 return
          </CharString>
          <CharString index="90">
            102 callsubr
            -150 113 -103 157 160 105 106 154 hvcurveto
            -88 callgsubr
            return
          </CharString>
          <CharString index="91">
            58 -28 -58 44 -91 253 callsubr
            -83 callsubr
            hvcurveto
            160 callgsubr
            return
          </CharString>
          <CharString index="92">
            -47 240 9 rmoveto
            -114 -269 rlineto
            103 hlineto
            326 809 rlineto
            -101 hlineto
            -165 -432 -178 432 rlineto
            -102 hlineto
            return
          </CharString>
          <CharString index="93">
            -164 -160 rlineto
            92 hlineto
            209 206 rlineto
            -1 hlineto
            9 9 8 10 7 10 rrcurveto
            -193 -13 callgsubr
          </CharString>
          <CharString index="94">
            116 callsubr
            vhcurveto
            195 -434 83 670 return
          </CharString>
          <CharString index="95">
            -70 111 -225 vlineto
            return
          </CharString>
          <CharString index="96">
            -106 74 30 callsubr
            return
          </CharString>
          <CharString index="97">
            -70 callgsubr
            688 -143 212 callgsubr
            -89 -38 291 callsubr
            141 108 250 callgsubr
            -22 -21 -3 -6 -18 hvcurveto
            -928 -70 287 -121 hlineto
            176 callgsubr
            56 48 15 29 36 hvcurveto
            -118 11 75 -70 124 hhcurveto
            122 77 78 127 hvcurveto
            208 -197 rmoveto
            668 131 72 183 callgsubr
          </CharString>
          <CharString index="98">
            73 53 51 75 73 return
          </CharString>
          <CharString index="99">
            888 1527 -27 callgsubr
            -1553 -70 1338 -171 -272 -167 vlineto
            -76 -42 -52 -70 -67 -43 50 79 vhcurveto
            13 vlineto
            120 -80 77 -110 -108 -49 -74 -71 -18 vhcurveto
            -106 callsubr
            42 75 86 80 40 -60 -89 1 vhcurveto
            -113 4 67 -76 120 hhcurveto
            121 74 83 119 hvcurveto
            94 190 -427 83 670 vlineto
            return
          </CharString>
          <CharString index="100">
            -98 callgsubr
            209 callgsubr
            return
          </CharString>
          <CharString index="101">
            27 callgsubr
            282 -182 103 callsubr
            -681 -70 182 -56 callsubr
            -3 vlineto
            0 vlineto
            -131 2 -69 -92 -127 hhcurveto
            -81 -1 callgsubr
            -22 -20 247 callgsubr
            return
          </CharString>
          <CharString index="102">
            hhcurveto
            -84 -2 callsubr
            return
          </CharString>
          <CharString index="103">
            753 227 callgsubr
            253 -139 hlineto
            16 -26 -32 8 -35 hhcurveto
            -83 -51 -41 -56 -26 hvcurveto
            -235 -290 -107 callgsubr
            722 100 -82 callsubr
            -1418 -57 callsubr
            35 86 102 60 return
          </CharString>
          <CharString index="104">
            hhcurveto
            4 callgsubr
          </CharString>
          <CharString index="105">
            -1 callgsubr
            -101 -69 -68 -97 177 callgsubr
            return
          </CharString>
          <CharString index="106">
            -70 321 -220 168 callgsubr
            31 -81 -31 vlineto
            -99 56 -71 110 118 47 79 96 vhcurveto
            217 return
          </CharString>
          <CharString index="107">
            85 callsubr
            107 126 callgsubr
            -112 return
          </CharString>
          <CharString index="108">
            -8 callgsubr
            70 return
          </CharString>
          <CharString index="109">
            rmoveto
            -126 -73 79 125 hvcurveto
            3 vlineto
            126 5 71 63 66 callgsubr
            return
          </CharString>
          <CharString index="110">
            -192 -80 callsubr
            return
          </CharString>
          <CharString index="111">
            84 -24 callsubr
          </CharString>
          <CharString index="112">
            rmoveto
            -103 -46 68 112 hvcurveto
            159 vlineto
            283 -240 rlineto
            -49 -10 -44 -50 -80 hhcurveto
            return
          </CharString>
          <CharString index="113">
            81 vlineto
            11 callgsubr
          </CharString>
          <CharString index="114">
            rmoveto
            1 70 rlineto
            -662 -70 434 -110 -73 hlineto
            35 callsubr
            return
          </CharString>
          <CharString index="115">
            -16 callsubr
            -96 vhcurveto
            return
          </CharString>
          <CharString index="116">
            -96 callsubr
            703 127 callgsubr
            return
          </CharString>
          <CharString index="117">
            vvcurveto
            60 51 20 56 vhcurveto
            183 178 141 70 return
          </CharString>
          <CharString index="118">
            rmoveto
            -68 54 -37 73 vhcurveto
            104 53 -96 hlineto
            -43 -27 21 34 33 27 20 43 hvcurveto
            54 49 -69 hlineto
            -67 -53 -37 -68 hvcurveto
            endchar
          </CharString>
          <CharString index="119">
            -98 63 -51 65 -15 vhcurveto
            -3 vlineto
            -59 -9 -63 -48 -88 vvcurveto
            return
          </CharString>
          <CharString index="120">
            135 146 135 -146 rlineto
            87 hlineto
            return
          </CharString>
          <CharString index="121">
            rmoveto
            70 -693 262 callsubr
            -137 85 -96 123 -32 hvcurveto
            -149 -160 rlineto
            87 hlineto
            13 callsubr
            -143 153 rlineto
            114 18 68 72 101 vvcurveto
            98 callgsubr
          </CharString>
          <CharString index="122">
            63 830 -27 callgsubr
            -856 5 callgsubr
            23 23 18 26 14 29 rlinecurve
            -4 18 19 105 callsubr
            return
          </CharString>
          <CharString index="123">
            220 callgsubr
            95 -111 169 108 72 47 61 36 vhcurveto
            241 callgsubr
            vlineto
            return
          </CharString>
          <CharString index="124">
            187 callsubr
            -15 241 callsubr
            64 37 38 80 20 -4 299 callsubr
            return
          </CharString>
          <CharString index="125">
            49 18 -20 -25 -28 -18 -20 -49 hvcurveto
            -92 -53 102 hlineto
            69 53 33 66 68 -57 29 -70 -3 hvcurveto
            return
          </CharString>
          <CharString index="126">
            rmoveto
            24 -20 20 -25 -25 -20 -20 -24 -25 20 -20 25 25 20 20 25 vhcurveto
            endchar
          </CharString>
          <CharString index="127">
            131 callsubr
            2 -92 59 -68 99 -24 -147 -158 rcurveline
            87 hlineto
            13 callsubr
            -145 155 rlineto
            95 20 49 61 81 vvcurveto
            128 -104 41 -101 vhcurveto
            245 callgsubr
            endchar
          </CharString>
          <CharString index="128">
            -70 122 -105 vlineto
            -97 53 -43 63 -11 vhcurveto
            -2 vlineto
            -77 -16 -62 -54 -95 vvcurveto
            return
          </CharString>
          <CharString index="129">
            160 callgsubr
            -96 vhcurveto
            return
          </CharString>
          <CharString index="130">
            -44 -53 -5 0 -6 -1 -13 hvcurveto
            64 hlineto
            1 11 0 14 8 vvcurveto
            93 -61 66 -105 -22 -20 247 callgsubr
            -712 -70 624 79 callsubr
            -35 -5 -36 -19 -24 -33 rrcurveto
            92 -43 -101 52 -134 hhcurveto
            -58 22 callgsubr
            56 -21 44 -29 29 hvcurveto
            87 -14 67 -53 18 -87 rrcurveto
            0 0 -2 -2 vvcurveto
            return
          </CharString>
          <CharString index="131">
            vlineto
            -155 168 rmoveto
            -88 -66 60 102 98 69 59 86 108 46 -83 -76 hvcurveto
            -1 vlineto
            return
          </CharString>
          <CharString index="132">
            65 153 299 -49 callsubr
            322 -402 rmoveto
            87 hlineto
            -148 159 rlineto
            113 27 79 90 126 vvcurveto
            142 -100 91 -128 16 vhcurveto
            122 324 70 -728 -70 322 -123 vlineto
            -127 -16 -99 -91 -141 vvcurveto
            -127 80 -90 115 -27 vhcurveto
            -147 -158 rlineto
            280 callgsubr
            rlineto
            return
          </CharString>
          <CharString index="133">
            994 rmoveto
            -68 hlineto
            -56 -43 -59 -92 -93 -43 59 56 vhcurveto
            -67 hlineto
            -95 66 -81 137 136 67 81 95 vhcurveto
            -161 29 rmoveto
            24 -18 18 -24 -23 -19 -18 -24 -23 19 -18 23 24 18 18 23 vhcurveto
            endchar
          </CharString>
          <CharString index="134">
            -451 721 rmoveto
            28 vlineto
            95 45 94 235 236 42 -94 -95 vhcurveto
            -9 37 callsubr
            return
          </CharString>
          <CharString index="135">
            -3 hlineto
            79 -31 -67 59 -105 hhcurveto
            -126 -98 -90 -139 -134 97 -91 127 104 74 61 79 25 hvcurveto
            return
          </CharString>
          <CharString index="136">
            rmoveto
            152 116 100 152 142 -100 91 -128 16 hvcurveto
            122 324 70 return
          </CharString>
          <CharString index="137">
            -71 111 96 callgsubr
            return
          </CharString>
          <CharString index="138">
            rmoveto
            -558 vlineto
            -366 558 rlineto
            -91 -705 91 557 hlineto
            366 -557 rlineto
            91 705 hlineto
            return
          </CharString>
          <CharString index="139">
            rmoveto
            70 -703 196 callsubr
            -122 75 -91 113 -30 hvcurveto
            -143 -154 rlineto
            87 hlineto
            132 144 rlineto
            2 1 0 2 hhcurveto
            133 -144 267 callsubr
            117 28 72 95 128 vvcurveto
            -70 callsubr
          </CharString>
          <CharString index="140">
            -73 callgsubr
            -139 90 -87 123 hvcurveto
            124 callgsubr
            -155 168 146 callsubr
          </CharString>
          <CharString index="141">
            9 542 517 rmoveto
            115 -12 -67 91 -141 hhcurveto
            -189 -69 -136 -241 -187 44 -166 220 165 73 109 127 151 -84 88 -140 -96 -80 -50 -81 -20 hvcurveto
            222 -8 62 90 117 hhcurveto
            83 44 -50 -82 11 hvcurveto
            -133 -121 rmoveto
            96 62 -56 -110 -101 -62 -57 -92 -121 -49 84 88 104 86 48 80 hvcurveto
            endchar
          </CharString>
          <CharString index="142">
            -33 callsubr
            hlineto
            return
          </CharString>
          <CharString index="143">
            -103 callgsubr
            677 242 callsubr
            return
          </CharString>
          <CharString index="144">
            -133 -70 131 232 callgsubr
            -131 return
          </CharString>
          <CharString index="145">
            -129 vlineto
            -90 -13 -42 -66 -17 -64 rrcurveto
            return
          </CharString>
          <CharString index="146">
            185 callgsubr
            465 hmoveto
            -122 -79 -79 -108 -111 -74 75 126 126 74 75 111 108 79 -78 -123 vhcurveto
            endchar
          </CharString>
          <CharString index="147">
            -151 73 569 -72 vlineto
            -85 -75 -39 -63 -76 -64 51 76 89 66 44 105 vhcurveto
            156 180 hlineto
            -190 -767 rmoveto
            -81 -60 50 85 30 9 26 16 21 hvcurveto
            231 -153 rlineto
            -34 -23 -38 -25 -54 hhcurveto
            -8 262 rmoveto
            71 6 51 28 26 44 rrcurveto
            -197 vlineto
            -18 -3 -19 -7 -18 vhcurveto
            -221 147 22 16 29 9 32 2 rlinecurve
            endchar
          </CharString>
          <CharString index="148">
            125 309 268 -96 callsubr
            607 127 callgsubr
            -942 91 callsubr
            96 52 -61 -96 vhcurveto
            84 hlineto
            137 -74 92 -134 -91 -58 -45 -60 -28 vhcurveto
            216 vlineto
            return
          </CharString>
          <CharString index="149">
            rmoveto
            -98 -44 3 callgsubr
            801 79 callgsubr
            -108 -79 -66 -114 -17 hvcurveto
            -54 -17 -43 -41 -71 hhcurveto
            return
          </CharString>
          <CharString index="150">
            69 115 58 -23 46 -31 29 hvcurveto
            195 -434 return
          </CharString>
          <CharString index="151">
            vhcurveto
            -16 hlineto
            -1 -12 0 -12 -13 vvcurveto
            0 vlineto
            -144 -81 -90 -133 -135 -66 81 113 1 158 callgsubr
            return
          </CharString>
          <CharString index="152">
            93 callsubr
            -703 -70 204 -69 vlineto
            -116 -66 -31 -96 vhcurveto
            return
          </CharString>
          <CharString index="153">
            179 callgsubr
            45 88 108 return
          </CharString>
          <CharString index="154">
            rmoveto
            -73 callsubr
            182 136 rmoveto
            77 130 vlineto
            -167 3 95 -107 166 45 callsubr
            -164 258 callsubr
            return
          </CharString>
          <CharString index="155">
            hhcurveto
            83 callsubr
          </CharString>
          <CharString index="156">
            30 callgsubr
            -72 -79 113 callgsubr
            return
          </CharString>
          <CharString index="157">
            -57 callsubr
            37 86 106 return
          </CharString>
          <CharString index="158">
            -3 hlineto
            70 -17 -50 75 -105 hhcurveto
            -72 -58 -32 -58 -34 hvcurveto
            66 -38 -71 50 -110 hhcurveto
            -33 callgsubr
            96 70 40 61 41 hvcurveto
            -75 34 68 -48 102 hhcurveto
            9 12 1 1 12 hvcurveto
            73 vlineto
            -1 -10 -11 -1 -8 hhcurveto
            -103 -55 71 100 89 45 67 90 86 41 -77 -106 hvcurveto
            -15 71 15 vlineto
            return
          </CharString>
          <CharString index="159">
            rmoveto
            -65 48 -40 57 58 47 40 65 65 -47 40 -58 -57 -48 -40 -65 vhcurveto
            167 hmoveto
            -39 -27 -24 -35 -35 -26 24 39 39 26 24 35 35 27 -24 -39 vhcurveto
            endchar
          </CharString>
          <CharString index="160">
            28 43 10 callsubr
            return
          </CharString>
          <CharString index="161">
            rmoveto
            68 hlineto
            34 6 20 20 39 hhcurveto
            37 23 -23 -32 -39 -26 -20 -40 hvcurveto
            -49 -31 50 hlineto
            40 29 -19 -39 -35 -22 -21 -40 -34 -26 13 45 -5 hvcurveto
            -74 hlineto
            -70 8 41 -39 95 hhcurveto
            85 47 42 54 44 -26 28 -48 12 hvcurveto
            3 vlineto
            47 10 23 29 41 vvcurveto
            60 -51 40 -77 -95 -40 -51 -56 -5 vhcurveto
            endchar
          </CharString>
          <CharString index="162">
            68 80 -56 hlineto
            -63 -24 20 72 hvcurveto
            298 142 79 -142 137 -92 -137 -82 -79 82 vlineto
            endchar
          </CharString>
          <CharString index="163">
            rmoveto
            -183 216 183 hlineto
            return
          </CharString>
          <CharString index="164">
            -70 619 -129 vlineto
            -84 -15 -41 -64 -15 -62 rrcurveto
            -3 hlineto
            70 -17 -50 75 -105 hhcurveto
            -123 -85 -85 -144 -142 81 -103 -54 callgsubr
            0 -8 hhcurveto
            -104 -55 68 102 90 46 67 89 87 41 -78 -105 hvcurveto
            -18 70 18 vlineto
            107 43 76 91 84 43 -69 -86 return
          </CharString>
          <CharString index="165">
            -67 callgsubr
            -116 3 92 -77 150 hhcurveto
            return
          </CharString>
          <CharString index="166">
            -81 hlineto
            -100 -56 -57 -93 -105 -53 68 112 vhcurveto
            399 300 -114 vlineto
            -97 -35 -40 -90 8 vhcurveto
            -75 vlineto
            151 -15 56 69 148 vvcurveto
            116 return
          </CharString>
          <CharString index="167">
            rmoveto
            -96 -72 63 105 101 75 201 callgsubr
            return
          </CharString>
          <CharString index="168">
            vvcurveto
            138 callgsubr
            vhcurveto
            -196 vlineto
            -177 512 -66 callsubr
            return
          </CharString>
          <CharString index="169">
            205 844 -27 callgsubr
            -870 105 callgsubr
            rlineto
            166 31 106 110 164 vvcurveto
            return
          </CharString>
          <CharString index="170">
            71 hlineto
            40 7 22 28 35 59 40 -67 77 hhcurveto
            73 52 50 100 16 hvcurveto
            -72 hlineto
            -40 -7 -21 -27 -35 -58 -42 67 -76 hhcurveto
            -74 -50 -51 -100 -17 hvcurveto
            return
          </CharString>
          <CharString index="171">
            2 0 3 2 vvcurveto
            return
          </CharString>
          <CharString index="172">
            130 322 705 rmoveto
            -224 -315 -92 -74 92 -316 224 hlineto
            239 132 139 214 216 -132 136 -239 hvcurveto
            -132 -623 rmoveto
            234 197 74 -197 235 125 vlineto
            187 98 -102 -170 -169 -98 -102 -187 hvcurveto
            endchar
          </CharString>
          <CharString index="173">
            rmoveto
            -240 hlineto
            -24 callgsubr
            91 358 -99 vlineto
            -115 -66 -38 -113 vhcurveto
            264 -247 rmoveto
            -126 -73 72 113 173 callsubr
            121 5 76 60 129 vvcurveto
            113 201 -310 vlineto
            -112 -86 -77 270 callsubr
            499 rmoveto
            70 return
          </CharString>
          <CharString index="174">
            225 callsubr
            -80 35 -60 57 -34 hvcurveto
            -51 -24 -49 -46 -82 hhcurveto
            return
          </CharString>
          <CharString index="175">
            77 183 -385 4 callsubr
          </CharString>
          <CharString index="176">
            -12 callgsubr
            -1393 -70 695 -134 vlineto
            -109 -52 -35 -68 -6 vhcurveto
            63 -29 -69 50 -118 165 callgsubr
            100 43 -54 -44 11 hvcurveto
            -85 vlineto
            return
          </CharString>
          <CharString index="177">
            61 -32 -64 44 -94 hhcurveto
            return
          </CharString>
          <CharString index="178">
            81 -8 callgsubr
            vlineto
            return
          </CharString>
          <CharString index="179">
            -100 callgsubr
            366 282 56 callsubr
            216 hmoveto
            70 return
          </CharString>
          <CharString index="180">
            133 640 hmoveto
            1 callsubr
            -798 -1 callsubr
            178 -334 vlineto
            -365 -356 rlineto
            98 hlineto
            269 271 rlineto
            -251 vlineto
            return
          </CharString>
          <CharString index="181">
            94 66 45 60 31 hvcurveto
            -196 vlineto
            -175 152 rmoveto
            -100 -84 90 callsubr
            36 20 29 hvcurveto
            275 -240 rlineto
            -28 -29 -41 -18 -53 hhcurveto
            -2 360 rmoveto
            121 61 -92 -89 -35 -10 -37 -21 -32 hvcurveto
            -275 240 rlineto
            29 33 43 16 48 hhcurveto
            endchar
          </CharString>
          <CharString index="182">
            258 callsubr
            -725 -70 362 -216 -95 hlineto
            -82 callgsubr
            188 vlineto
            159 callsubr
            return
          </CharString>
          <CharString index="183">
            -30 14 49 -62 108 hhcurveto
            118 61 73 92 131 -104 40 -101 hvcurveto
            -44 hlineto
            10 callgsubr
            return
          </CharString>
          <CharString index="184">
            48 640 393 rmoveto
            29 -23 23 -29 -30 -22 -23 -29 -29 22 -22 30 29 23 22 29 vhcurveto
            return
          </CharString>
          <CharString index="185">
            rmoveto
            -77 -62 51 92 86 64 50 75 96 38 -74 -65 -65 -40 -75 -94 hvcurveto
            return
          </CharString>
          <CharString index="186">
            hlineto
            87 callsubr
            return
          </CharString>
          <CharString index="187">
            -3 vlineto
            -61 -9 -61 -50 -89 vvcurveto
            -116 92 -60 113 121 93 73 119 22 vhcurveto
            -5 19 21 -2 22 hhcurveto
            73 58 31 47 29 hvcurveto
            -193 82 318 -77 vlineto
            -95 -77 -41 -65 -96 -62 62 95 110 85 55 104 vhcurveto
            148 182 hlineto
            endchar
          </CharString>
          <CharString index="188">
            137 callgsubr
            27 -3 30 -8 35 hvcurveto
            endchar
          </CharString>
          <CharString index="189">
            rlineto
            -11 22 -7 25 25 vvcurveto
            64 33 35 52 46 31 -34 -48 -3 vhcurveto
            65 hlineto
            86 6 -50 61 -81 hhcurveto
            -93 -38 -69 -70 -2 hvcurveto
            191 -106 -46 9 -112 -28 callgsubr
            return
          </CharString>
          <CharString index="190">
            115 66 73 134 hvcurveto
            68 callsubr
          </CharString>
          <CharString index="191">
            -45 42 4 rmoveto
            485 75 -358 hlineto
            149 89 191 176 170 vvcurveto
            132 -86 71 -129 -135 -98 -84 -161 -10 vhcurveto
            90 hlineto
            100 5 45 67 96 hhcurveto
            97 32 -60 -73 -137 -165 -159 -209 -140 hvcurveto
            endchar
          </CharString>
          <CharString index="192">
            14 16 0 20 hhcurveto
            148 return
          </CharString>
          <CharString index="193">
            10 11 1 1 13 hvcurveto
            -87 callgsubr
            return
          </CharString>
          <CharString index="194">
            -14 -24 -8 -30 -32 vvcurveto
            -98 63 -51 65 -15 vhcurveto
            -3 vlineto
            return
          </CharString>
          <CharString index="195">
            -46 callsubr
            164 -385 return
          </CharString>
          <CharString index="196">
            -375 73 hmoveto
            91 705 -91 hlineto
            return
          </CharString>
          <CharString index="197">
            66 112 43 12 return
          </CharString>
          <CharString index="198">
            -43 callsubr
            45 88 108 return
          </CharString>
          <CharString index="199">
            117 callgsubr
            -1 -3 -1 -3 -4 vvcurveto
            -44 -15 -47 -44 -77 hhcurveto
            return
          </CharString>
          <CharString index="200">
            -86 callsubr
            132 70 return
          </CharString>
          <CharString index="201">
            -64 -29 -42 -62 -81 vvcurveto
            -115 80 -79 116 80 55 36 51 29 vhcurveto
            -147 76 454 vlineto
            47 39 25 58 71 vvcurveto
            -79 hlineto
            -91 -62 -63 -122 -118 -63 58 82 92 76 43 96 vhcurveto
            136 174 hlineto
            endchar
          </CharString>
          <CharString index="202">
            rmoveto
            353 64 -353 hlineto
            endchar
          </CharString>
          <CharString index="203">
            -143 105 -96 148 return
          </CharString>
          <CharString index="204">
            105 297 705 rmoveto
            -224 -705 224 hlineto
            238 132 139 214 216 -132 136 -238 hvcurveto
            -133 -623 rmoveto
            543 126 vlineto
            187 97 -102 -170 -169 -97 -102 -187 hvcurveto
            return
          </CharString>
          <CharString index="205">
            vvcurveto
            109 callsubr
            return
          </CharString>
          <CharString index="206">
            rmoveto
            75 49 35 46 26 hvcurveto
            -217 83 1 callsubr
            -986 -70 287 -121 vlineto
            243 callsubr
            112 74 63 79 38 vhcurveto
            278 callgsubr
            return
          </CharString>
          <CharString index="207">
            -192 -13 callgsubr
          </CharString>
          <CharString index="208">
            rmoveto
            71 hlineto
            46 4 23 24 38 hhcurveto
            29 24 -15 -38 -45 -29 -31 -36 -30 hvcurveto
            -121 -97 rlineto
            -50 265 56 -194 vlineto
            83 59 rlineto
            68 46 39 39 58 vvcurveto
            56 -41 45 -79 -92 -47 -56 -67 -5 vhcurveto
            endchar
          </CharString>
          <CharString index="209">
            -116 -23 vlineto
            -170 -119 -90 -169 return
          </CharString>
          <CharString index="210">
            rmoveto
            1 callsubr
            return
          </CharString>
          <CharString index="211">
            -70 524 -202 hlineto
            59 -36 -61 38 -88 hhcurveto
            -144 -97 -102 -155 hvcurveto
            83 hlineto
            114 74 72 107 88 60 -55 -76 14 vhcurveto
            -377 -358 rlineto
            -5 104 vlineto
            273 276 rlineto
            -276 vlineto
            endchar
          </CharString>
          <CharString index="212">
            -2 20 hhcurveto
            124 92 75 129 127 -89 77 -127 -127 -89 -17 callgsubr
            -74 callgsubr
            vlineto
            return
          </CharString>
          <CharString index="213">
            126 269 70 -1050 -70 700 -123 vlineto
            -88 -10 -58 -55 -28 -71 rrcurveto
            180 callsubr
            return
          </CharString>
          <CharString index="214">
            175 rmoveto
            -90 -68 38 83 62 43 50 103 hvcurveto
            53 69 -47 hlineto
            -98 -38 return
          </CharString>
          <CharString index="215">
            56 callgsubr
            hvcurveto
            return
          </CharString>
          <CharString index="216">
            -11 callsubr
            vhcurveto
            return
          </CharString>
          <CharString index="217">
            -225 321 263 rmoveto
            -107 -48 68 112 hvcurveto
            160 vlineto
            301 -243 rlineto
            -48 -12 -49 -49 -85 hhcurveto
            221 407 rmoveto
            70 -568 -12 callsubr
            -152 78 -101 155 return
          </CharString>
          <CharString index="218">
            -520 -89 callsubr
            return
          </CharString>
          <CharString index="219">
            -38 callgsubr
            -224 hlineto
            -113 62 -83 121 106 63 74 116 4 0 5 -1 7 vhcurveto
            -73 -12 hlineto
            -72 -36 -50 -60 -70 -32 51 69 vhcurveto
            170 return
          </CharString>
          <CharString index="220">
            rmoveto
            -104 -50 63 87 hvcurveto
            4 vlineto
            101 3 62 37 78 vvcurveto
            103 -91 35 -114 vhcurveto
            -352 124 710 -331 hlineto
            -121 -59 -82 -103 vhcurveto
            244 -136 103 callsubr
            return
          </CharString>
          <CharString index="221">
            152 331 rmoveto
            101 75 63 94 117 162 callgsubr
            -117 -97 -72 63 105 vhcurveto
            return
          </CharString>
          <CharString index="222">
            286 419 rmoveto
            -69 38 -37 46 3 69 rrcurveto
            56 2 46 51 68 hhcurveto
            74 43 -55 -58 -69 -42 return
          </CharString>
          <CharString index="223">
            -118 88 -75 115 110 84 69 115 58 -23 46 -31 29 return
          </CharString>
          <CharString index="224">
            69 rmoveto
            -74 callgsubr
            return
          </CharString>
          <CharString index="225">
            hhcurveto
            93 64 44 61 32 hvcurveto
            -200 return
          </CharString>
          <CharString index="226">
            -357 81 hmoveto
            92 549 -92 hlineto
            return
          </CharString>
          <CharString index="227">
            -70 385 -89 vlineto
            -111 -57 -57 -114 vhcurveto
            -106 -207 167 callsubr
            79 123 vhcurveto
            14 -80 -16 vlineto
            -76 202 callgsubr
            144 return
          </CharString>
          <CharString index="228">
            -80 -12 hlineto
            -77 -43 -52 -72 -79 113 callgsubr
            147 465 -350 4 callsubr
          </CharString>
          <CharString index="229">
            384 -141 135 callgsubr
            return
          </CharString>
          <CharString index="230">
            -612 -106 737 rmoveto
            292 -149 -40 12 -130 175 callgsubr
            return
          </CharString>
          <CharString index="231">
            hhcurveto
            133 callsubr
          </CharString>
          <CharString index="232">
            71 callgsubr
            hvcurveto
            return
          </CharString>
          <CharString index="233">
            41 127 callsubr
            return
          </CharString>
          <CharString index="234">
            65 66 49 41 return
          </CharString>
          <CharString index="235">
            163 callgsubr
            465 -350 84 670 vlineto
            endchar
          </CharString>
          <CharString index="236">
            rmoveto
            -126 -73 84 134 hvcurveto
            2 0 1 2 vvcurveto
            122 6 return
          </CharString>
          <CharString index="237">
            205 callsubr
            -92 -91 -36 -108 205 callgsubr
            hvcurveto
            -1 18 18 0 17 hhcurveto
            return
          </CharString>
          <CharString index="238">
            rmoveto
            70 -627 145 callsubr
            return
          </CharString>
          <CharString index="239">
            308 -77 callgsubr
            402 387 rmoveto
            -88 -53 -43 -57 -26 hvcurveto
            215 return
          </CharString>
          <CharString index="240">
            93 65 44 63 32 hvcurveto
            -202 71 callsubr
            endchar
          </CharString>
          <CharString index="241">
            -283 97 callgsubr
          </CharString>
          <CharString index="242">
            60 callgsubr
            endchar
          </CharString>
          <CharString index="243">
            vlineto
            -119 281 callsubr
            74 83 119 vhcurveto
            94 return
          </CharString>
          <CharString index="244">
            -69 vlineto
            -107 -54 -45 -93 -8 vhcurveto
            41 -29 -55 35 return
          </CharString>
          <CharString index="245">
            -117 -130 hlineto
            -94 -69 -42 -84 return
          </CharString>
          <CharString index="246">
            157 6 callgsubr
            return
          </CharString>
          <CharString index="247">
            -74 34 79 62 45 44 91 return
          </CharString>
          <CharString index="248">
            -70 callgsubr
            -137 -271 rmoveto
            -74 callgsubr
            return
          </CharString>
          <CharString index="249">
            189 141 callgsubr
            return
          </CharString>
          <CharString index="250">
            212 hlineto
            53 73 -7 -72 -56 -49 -16 -78 hvcurveto
            -32 hlineto
            -1 -10 0 -10 -10 vvcurveto
            -143 80 -83 137 90 56 42 63 31 vhcurveto
            -177 vlineto
            endchar
          </CharString>
          <CharString index="251">
            -29 -10 -35 -42 vvcurveto
            189 callgsubr
            vhcurveto
            76 hlineto
            -2 14 -2 15 14 vvcurveto
            70 return
          </CharString>
          <CharString index="252">
            -70 407 263 callsubr
            vlineto
            -91 -90 -36 -105 178 callsubr
            hvcurveto
            -67 callgsubr
            return
          </CharString>
          <CharString index="253">
            rmoveto
            -88 -66 60 102 98 69 59 86 108 46 -83 -76 hvcurveto
            -1 vlineto
            -55 -28 -64 -61 -27 vhcurveto
            -8 3 -10 -9 rlineto
            -5 -14 -16 -2 -18 hhcurveto
            endchar
          </CharString>
          <CharString index="254">
            170 107 71 47 60 37 vhcurveto
            254 callsubr
            return
          </CharString>
          <CharString index="255">
            64 callsubr
            126 5 70 60 130 vvcurveto
            82 return
          </CharString>
          <CharString index="256">
            -112 213 callgsubr
            -740 -70 644 hlineto
            -18 144 callsubr
            return
          </CharString>
          <CharString index="257">
            83 hlineto
            113 78 62 98 84 64 -45 -63 27 vhcurveto
            -374 -352 rlineto
            -4 108 vlineto
            270 268 rlineto
            -268 81 -24 callsubr
          </CharString>
          <CharString index="258">
            rmoveto
            -124 -96 -48 -91 -44 hvcurveto
            -314 254 rlineto
            1 601 -116 vlineto
            return
          </CharString>
          <CharString index="259">
            208 callsubr
            -72 -72 -52 -51 -73 -76 -52 return
          </CharString>
          <CharString index="260">
            43 184 callsubr
            -62 37 -39 47 -21 hvcurveto
            return
          </CharString>
          <CharString index="261">
            -4 634 -27 callgsubr
            -660 -70 433 -110 -80 vlineto
            -146 -100 -65 -130 -82 46 -58 62 -28 hvcurveto
            -60 -27 -42 -57 -77 vvcurveto
            return
          </CharString>
          <CharString index="262">
            112 115 return
          </CharString>
          <CharString index="263">
            95 hmoveto
            91 469 130 80 -130 15 hlineto
            83 31 34 99 -2 vhcurveto
            80 vlineto
            -153 6 -68 -68 -126 vvcurveto
            -22 -79 -80 79 vlineto
            return
          </CharString>
          <CharString index="264">
            198 callgsubr
            -82 callgsubr
            183 -385 84 670 vlineto
            endchar
          </CharString>
          <CharString index="265">
            339 -310 vlineto
            -111 -88 -74 -109 vhcurveto
            412 495 rmoveto
            70 return
          </CharString>
          <CharString index="266">
            -22 -28 -12 -36 -43 98 callsubr
            return
          </CharString>
          <CharString index="267">
            hhcurveto
            108 72 47 62 36 hvcurveto
            -220 83 670 return
          </CharString>
          <CharString index="268">
            -212 vlineto
            70 callsubr
            return
          </CharString>
          <CharString index="269">
            423 -91 -423 vlineto
            return
          </CharString>
          <CharString index="270">
            vlineto
            -72 -44 -53 -86 vhcurveto
            -36 -74 46 hlineto
            110 41 -79 -69 -86 -56 -61 -88 -89 -67 64 85 hvcurveto
            -80 hlineto
            -132 100 -92 140 return
          </CharString>
          <CharString index="271">
            166 -62 callgsubr
          </CharString>
          <CharString index="272">
            hlineto
            170 callgsubr
            return
          </CharString>
          <CharString index="273">
            vlineto
            -134 75 -89 138 122 77 78 127 vhcurveto
            208 -197 rmoveto
            -12 callgsubr
            183 callgsubr
          </CharString>
          <CharString index="274">
            hlineto
            -124 67 -91 131 121 72 return
          </CharString>
          <CharString index="275">
            121 -63 69 -83 16 vhcurveto
            123 vlineto
            return
          </CharString>
          <CharString index="276">
            313 vlineto
            86 return
          </CharString>
          <CharString index="277">
            -54 -36 -38 -62 -95 vvcurveto
            -149 105 -83 154 vhcurveto
            33 66 -21 hlineto
            -122 -66 65 108 125 81 60 124 hvcurveto
            return
          </CharString>
          <CharString index="278">
            51 76 89 65 44 105 vhcurveto
            156 180 hlineto
            return
          </CharString>
          <CharString index="279">
            53 50 208 callsubr
            return
          </CharString>
          <CharString index="280">
            hvcurveto
            64 callsubr
            return
          </CharString>
          <CharString index="281">
            63 93 118 return
          </CharString>
          <CharString index="282">
            -375 73 hmoveto
            91 549 -91 hlineto
            46 105 rmoveto
            37 25 23 33 33 -25 23 -37 -37 -25 -23 -33 -33 25 -23 37 hvcurveto
            return
          </CharString>
          <CharString index="283">
            -71 hlineto
            -107 -81 -78 -116 -90 -68 38 83 62 43 50 103 vhcurveto
            294 callgsubr
            vlineto
            endchar
          </CharString>
          <CharString index="284">
            rmoveto
            98 175 rlineto
            -89 hlineto
            -96 -175 96 -175 rlineto
            89 hlineto
            return
          </CharString>
          <CharString index="285">
            -113 96 -33 84 return
          </CharString>
          <CharString index="286">
            rmoveto
            -75 -1 -56 47 76 vvcurveto
            71 48 46 69 5 vhcurveto
            68 6 50 26 26 41 rrcurveto
            -192 vlineto
            -56 -41 -69 -89 vhcurveto
            return
          </CharString>
          <CharString index="287">
            28 callsubr
            3 hlineto
            return
          </CharString>
          <CharString index="288">
            -28 callsubr
            195 -670 4 callsubr
          </CharString>
          <CharString index="289">
            223 150 119 195 return
          </CharString>
          <CharString index="290">
            -107 callsubr
            110 return
          </CharString>
          <CharString index="291">
            10 callsubr
            -638 -70 417 138 callsubr
            return
          </CharString>
          <CharString index="292">
            228 867 -27 callgsubr
            -893 -70 return
          </CharString>
          <CharString index="293">
            -100 74 -67 111 112 68 77 129 return
          </CharString>
          <CharString index="294">
            -50 rmoveto
            -77 46 -9 vlineto
            -39 return
          </CharString>
          <CharString index="295">
            73 vlineto
            -1 -11 -10 return
          </CharString>
          <CharString index="296">
            -70 373 -91 return
          </CharString>
          <CharString index="297">
            -612 -105 736 rmoveto
            227 -134 -50 18 -132 273 callsubr
            return
          </CharString>
          <CharString index="298">
            -70 363 -193 -96 vlineto
            -110 -83 -62 -113 -104 74 -70 110 114 67 76 130 hvcurveto
            75 return
          </CharString>
          <CharString index="299">
            vvcurveto
            71 callgsubr
            vhcurveto
            -79 callsubr
            return
          </CharString>
          <CharString index="300">
            80 29 42 61 54 33 -40 -59 -1 vhcurveto
            73 hlineto
            100 3 -59 69 -104 hhcurveto
            -120 -47 -83 -110 hvcurveto
            return
          </CharString>
          <CharString index="301">
            172 callsubr
            -71 -72 -52 -51 -73 -76 -52 50 return
          </CharString>
          <CharString index="302">
            43 callgsubr
            hvcurveto
            return
          </CharString>
          <CharString index="303">
            -70 408 102 callsubr
            return
          </CharString>
          <CharString index="304">
            -76 -112 vhcurveto
            return
          </CharString>
          <CharString index="305">
            -70 hhcurveto
            312 191 rmoveto
            -58 -51 -18 -33 -34 hvcurveto
            -318 265 rlineto
            2 556 -216 vlineto
            return
          </CharString>
          <CharString index="306">
            549 -73 vlineto
            -85 -75 -39 -63 -86 -53 263 callgsubr
          </CharString>
          <CharString index="307">
            99 rmoveto
            -148 -92 54 101 68 46 58 109 hvcurveto
            20 67 -22 hlineto
            -94 -37 44 77 hvcurveto
            102 return
          </CharString>
          <CharString index="308">
            75 63 79 38 vhcurveto
            -2 12 12 -1 13 hhcurveto
            76 49 return
          </CharString>
          <CharString index="309">
            69 115 58 -23 46 -32 29 return
          </CharString>
          <CharString index="310">
            234 callgsubr
            114 return
          </CharString>
          <CharString index="311">
            hvcurveto
            177 182 return
          </CharString>
          <CharString index="312">
            -120 -119 vlineto
            return
          </CharString>
          <CharString index="313">
            rmoveto
            102 76 63 95 117 51 -87 -81 -76 -51 -90 -117 -97 -74 63 106 vhcurveto
            419 return
          </CharString>
          <CharString index="314">
            231 197 rmoveto
            -61 -45 42 63 66 48 41 69 hvcurveto
            95 -79 hlineto
            -83 -38 -50 -68 vhcurveto
            return
          </CharString>
          <CharString index="315">
            75 73 52 -51 return
          </CharString>
          <CharString index="316">
            83 670 hlineto
            return
          </CharString>
          <CharString index="317">
            hhcurveto
            -112 -85 238 callsubr
          </CharString>
          <CharString index="318">
            231 callgsubr
            -48 88 -125 return
          </CharString>
          <CharString index="319">
            vhcurveto
            -200 279 callgsubr
            return
          </CharString>
          <CharString index="320">
            122 299 callgsubr
            return
          </CharString>
          <CharString index="321">
            -35 vhcurveto
            -41 vlineto
            66 return
          </CharString>
          <CharString index="322">
            93 -122 -89 return
          </CharString>
          <CharString index="323">
            rmoveto
            105 201 -265 252 callgsubr
            70 vvcurveto
            416 105 rmoveto
            70 return
          </CharString>
          <CharString index="324">
            -106 -63 68 98 hvcurveto
            102 vlineto
            95 83 51 151 hvcurveto
            131 401 -208 vlineto
            return
          </CharString>
          <CharString index="325">
            -73 44 76 -43 103 hhcurveto
            102 69 46 61 35 hvcurveto
            -218 97 callgsubr
          </CharString>
          <CharString index="326">
            -103 callgsubr
            endchar
          </CharString>
          <CharString index="327">
            125 callsubr
            -65 callgsubr
            120 return
          </CharString>
          <CharString index="328">
            243 callsubr
            113 75 return
          </CharString>
          <CharString index="329">
            hlineto
            10 30 6 34 36 vvcurveto
            124 -63 83 -94 18 vhcurveto
            129 vlineto
            endchar
          </CharString>
          <CharString index="330">
            163 rmoveto
            -96 255 callgsubr
            93 return
          </CharString>
          <CharString index="331" raw="1">
            fb23e82d f71be8cc b7caab0b 
          </CharString>
          <CharString index="332">
            271 callsubr
            -77 -127 return
          </CharString>
          <CharString index="333">
            -172 -150 vlineto
            return
          </CharString>
          <CharString index="334">
            -166 -328 return
          </CharString>
          <CharString index="335">
            rmoveto
            -67 -42 50 71 hvcurveto
            220 217 -220 vlineto
            -71 -39 -50 -69 vhcurveto
            return
          </CharString>
          <CharString index="336">
            182 129 callsubr
            return
          </CharString>
          <CharString index="337">
            328 rmoveto
            400 77 -400 hlineto
            endchar
          </CharString>
          <CharString index="338">
            -69 vlineto
            -104 -66 -32 -113 vhcurveto
            return
          </CharString>
          <CharString index="339">
            84 -12 callgsubr
            return
          </CharString>
          <CharString index="340">
            429 579 rmoveto
            91 return
          </CharString>
          <CharString index="341">
            -73 -59 37 78 61 42 47 86 hvcurveto
            7 66 -7 hlineto
            -86 -48 41 65 return
          </CharString>
          <CharString index="342">
            rmoveto
            66 -22 vlineto
            264 callgsubr
            return
          </CharString>
          <CharString index="343">
            hmoveto
            1 callsubr
            225 callgsubr
            return
          </CharString>
          <CharString index="344">
            -69 hlineto
            -84 -52 -71 -95 -105 -47 69 108 vhcurveto
            225 vlineto
            endchar
          </CharString>
          <CharString index="345">
            -80 -121 -83 36 -63 56 -34 hvcurveto
            -50 -25 -49 -45 -80 hhcurveto
            endchar
          </CharString>
          <CharString index="346">
            198 callgsubr
            -49 -43 -12 -24 -33 hvcurveto
            return
          </CharString>
          <CharString index="347">
            -76 -173 125 callsubr
            return
          </CharString>
          <CharString index="348">
            -22 272 callgsubr
            return
          </CharString>
          <CharString index="349">
            360 rmoveto
            70 return
          </CharString>
          <CharString index="350">
            -120 -63 -31 -79 vhcurveto
            -35 -155 hlineto
            103 callgsubr
            return
          </CharString>
          <CharString index="351">
            590 hmoveto
            321 vlineto
            79 2 42 87 106 hhcurveto
            83 65 -61 -96 return
          </CharString>
          <CharString index="352">
            rmoveto
            13 14 10 14 9 14 rrcurveto
            -194 81 -12 callgsubr
            return
          </CharString>
          <CharString index="353">
            257 callsubr
            endchar
          </CharString>
          <CharString index="354">
            hvcurveto
            148 callsubr
            return
          </CharString>
          <CharString index="355">
            -212 hlineto
            274 callgsubr
            return
          </CharString>
          <CharString index="356">
            201 -36 callsubr
            return
          </CharString>
          <CharString index="357">
            vlineto
            -3 -17 -2 -17 -19 vvcurveto
            -143 return
          </CharString>
          <CharString index="358">
            -274 -86 -113 -142 return
          </CharString>
          <CharString index="359">
            hlineto
            -98 -38 43 77 hvcurveto
            73 return
          </CharString>
          <CharString index="360">
            hhcurveto
            -126 -90 -90 -139 return
          </CharString>
          <CharString index="361">
            270 callgsubr
            vlineto
            return
          </CharString>
          <CharString index="362">
            -94 -69 -42 -84 -62 37 return
          </CharString>
          <CharString index="363">
            -93 -138 -143 return
          </CharString>
          <CharString index="364">
            243 callgsubr
            240 callsubr
            return
          </CharString>
          <CharString index="365">
            203 callgsubr
            -23 -21 247 callgsubr
            return
          </CharString>
          <CharString index="366">
            274 callsubr
            235 return
          </CharString>
          <CharString index="367">
            76 vvcurveto
            91 -72 76 -121 -118 -71 -78 -91 -85 55 return
          </CharString>
          <CharString index="368">
            4 11 11 3 14 hhcurveto
            64 28 -51 -78 hvcurveto
            -94 -94 vlineto
            return
          </CharString>
          <CharString index="369">
            -70 430 -112 -40 vlineto
            -166 -128 -91 -183 return
          </CharString>
          <CharString index="370">
            -121 -114 return
          </CharString>
          <CharString index="371">
            hlineto
            273 callgsubr
            return
          </CharString>
          <CharString index="372">
            319 286 callsubr
            return
          </CharString>
          <CharString index="373">
            -171 -272 -165 vlineto
            -78 return
          </CharString>
          <CharString index="374">
            rlineto
            87 hlineto
            -143 153 rlineto
            return
          </CharString>
          <CharString index="375">
            280 callsubr
            38 75 return
          </CharString>
          <CharString index="376">
            -26 -8 -33 -36 vvcurveto
            return
          </CharString>
          <CharString index="377">
            -113 vhcurveto
            414 return
          </CharString>
          <CharString index="378">
            hhcurveto
            -127 -85 return
          </CharString>
          <CharString index="379">
            -73 -58 hlineto
            -45 -24 -30 -60 vhcurveto
            -179 232 return
          </CharString>
          <CharString index="380">
            hhcurveto
            -41 -68 42 hlineto
            98 34 -13 -164 104 hvcurveto
            return
          </CharString>
          <CharString index="381">
            46 -83 -76 hvcurveto
            -1 vlineto
            -72 -47 -87 -108 vhcurveto
            return
          </CharString>
          <CharString index="382">
            -144 108 -91 134 6 6 0 1 7 return
          </CharString>
          <CharString index="383">
            70 callsubr
            -133 -95 -93 -138 return
          </CharString>
          <CharString index="384">
            47 60 37 hvcurveto
            254 callsubr
            endchar
          </CharString>
          <CharString index="385">
            -70 131 -670 hlineto
            return
          </CharString>
          <CharString index="386">
            -139 rlineto
            -5 90 vlineto
            return
          </CharString>
          <CharString index="387">
            214 callsubr
            36 return
          </CharString>
          <CharString index="388">
            69 -83 123 121 return
          </CharString>
          <CharString index="389">
            vlineto
            -110 -84 return
          </CharString>
          <CharString index="390">
            vhcurveto
            423 -91 return
          </CharString>
          <CharString index="391">
            126 -49 88 return
          </CharString>
          <CharString index="392">
            -211 hlineto
            61 -32 -63 43 -94 hhcurveto
            -131 return
          </CharString>
          <CharString index="393">
            268 rmoveto
            80 callgsubr
            return
          </CharString>
          <CharString index="394">
            rmoveto
            73 172 callsubr
            -71 -72 -52 return
          </CharString>
          <CharString index="395">
            156 741 rmoveto
            -741 83 741 vlineto
            return
          </CharString>
          <CharString index="396">
            hlineto
            39 40 21 57 71 vvcurveto
            89 vlineto
            endchar
          </CharString>
          <CharString index="397">
            -211 vlineto
            61 -32 -63 43 return
          </CharString>
          <CharString index="398">
            145 callgsubr
            90 vlineto
            return
          </CharString>
          <CharString index="399">
            1 1 13 vhcurveto
            return
          </CharString>
          <CharString index="400">
            -110 -73 vlineto
            return
          </CharString>
          <CharString index="401">
            -122 95 -47 96 29 33 5 8 23 return
          </CharString>
          <CharString index="402">
            -88 -88 -47 -124 -34 6 -35 11 -32 return
          </CharString>
          <CharString index="403">
            268 rmoveto
            -97 -44 67 106 hvcurveto
            229 return
          </CharString>
          <CharString index="404">
            rmoveto
            -77 -66 38 83 62 43 50 103 hvcurveto
            return
          </CharString>
          <CharString index="405">
            172 159 hlineto
            endchar
          </CharString>
          <CharString index="406">
            25 -7 23 hvcurveto
            return
          </CharString>
        <CharString name=".notdef">
          -112 0 vmoveto
          500 700 -500 hlineto
          250 -305 rmoveto
          -170 255 rlineto
          340 hlineto
          -140 -300 rmoveto
          170 255 rlineto
          -510 vlineto
          -370 -45 rmoveto
          170 255 170 -255 rlineto
          -370 555 rmoveto
          170 -255 -170 -255 rlineto
          endchar
        </CharString>
        <CharString name="A">
          -49 callgsubr
          -26 71 68 callgsubr
        </CharString>
        <CharString name="AE">
          278 460 621 111 callgsubr
        </CharString>
        <CharString name="Aacute">
          -49 callgsubr
          -204 651 rmoveto
          -65 vlineto
          213 117 rlineto
          74 vlineto
          -35 -706 68 callgsubr
        </CharString>
        <CharString name="Abreve">
          -49 callgsubr
          -13 743 -76 callgsubr
          -13 -672 68 callgsubr
        </CharString>
        <CharString name="Acircumflex">
          -49 callgsubr
          -17 668 -55 callgsubr
          -9 -533 68 callgsubr
        </CharString>
        <CharString name="Adieresis">
          -49 callgsubr
          -238 619 -99 callsubr
          46 -548 68 callgsubr
        </CharString>
        <CharString name="Agrave">
          -49 callgsubr
          -326 703 rmoveto
          213 -117 rlineto
          65 vlineto
          -213 126 rlineto
          300 -706 68 callgsubr
        </CharString>
        <CharString name="Amacron">
          -49 callgsubr
          -331 640 rmoveto
          353 64 -353 hlineto
          305 -633 68 callgsubr
        </CharString>
        <CharString name="Aogonek">
          50 19 hmoveto
          98 hlineto
          59 163 rlineto
          310 hlineto
          58 -161 rlineto
          -66 -13 -27 -37 -48 vvcurveto
          -68 54 -36 74 vhcurveto
          103 53 -95 hlineto
          -44 -26 20 34 34 26 19 44 hvcurveto
          54 45 hlineto
          -258 687 rlineto
          -103 hlineto
          180 -458 68 callgsubr
        </CharString>
        <CharString name="Aring">
          -49 callgsubr
          -94 706 rmoveto
          -39 -27 -24 -35 -35 -26 24 39 39 26 24 35 35 27 -24 -39 vhcurveto
          -167 hmoveto
          -65 48 -40 57 58 47 40 65 65 -47 40 -58 -57 -48 -40 -65 vhcurveto
          235 -635 68 callgsubr
        </CharString>
        <CharString name="Atilde">
          -49 callgsubr
          -311 601 -98 callsubr
          285 -530 68 callgsubr
        </CharString>
        <CharString name="B">
          -8 469 202 rmoveto
          -80 -55 -46 -96 vhcurveto
          -154 252 152 hlineto
          97 56 -48 -78 hvcurveto
          -15 312 rmoveto
          -73 -47 -45 -91 vhcurveto
          -152 234 148 hlineto
          100 42 -47 -69 hvcurveto
          109 -324 rmoveto
          87 -59 70 -87 18 vhcurveto
          72 15 58 54 95 vvcurveto
          106 -71 70 -145 vhcurveto
          -258 -705 262 hlineto
          152 76 79 111 hvcurveto
          endchar
        </CharString>
        <CharString name="C">
          -52 callgsubr
          endchar
        </CharString>
        <CharString name="CR">
          -365 endchar
        </CharString>
        <CharString name="Cacute">
          -52 callgsubr
          284 462 -63 callgsubr
        </CharString>
        <CharString name="Ccaron">
          -52 callgsubr
          333 476 -58 callsubr
        </CharString>
        <CharString name="Ccedilla">
          151 49 352 rmoveto
          -199 122 -143 183 -15 vhcurveto
          -109 54 vlineto
          18 callsubr
          62 vlineto
          160 9 102 92 39 135 rrcurveto
          -96 hlineto
          -89 -34 -79 -64 -121 hhcurveto
          -137 -104 105 169 171 104 105 137 121 79 -64 -89 34 hvcurveto
          96 hlineto
          143 -41 -112 94 -176 hhcurveto
          -200 -136 -148 -212 hvcurveto
          endchar
        </CharString>
        <CharString name="Cdotaccent">
          -52 callgsubr
          331 430 -44 callsubr
        </CharString>
        <CharString name="D">
          97 callsubr
          endchar
        </CharString>
        <CharString name="Dcaron">
          97 callsubr
          80 746 -58 callsubr
        </CharString>
        <CharString name="Dcroat">
          65 callsubr
        </CharString>
        <CharString name="E">
          -63 callsubr
          endchar
        </CharString>
        <CharString name="Eacute">
          -63 callsubr
          -243 183 -63 callgsubr
        </CharString>
        <CharString name="Ebreve">
          -63 callsubr
          -52 275 -76 callgsubr
          endchar
        </CharString>
        <CharString name="Ecaron">
          -63 callsubr
          -194 197 -58 callsubr
        </CharString>
        <CharString name="Ecircumflex">
          -63 callsubr
          -56 200 -55 callgsubr
          endchar
        </CharString>
        <CharString name="Edieresis">
          -63 callsubr
          -277 151 -99 callsubr
          endchar
        </CharString>
        <CharString name="Edotaccent">
          -63 callsubr
          -195 151 -44 callsubr
        </CharString>
        <CharString name="Egrave">
          -63 callsubr
          -365 235 -25 callgsubr
        </CharString>
        <CharString name="Emacron">
          -63 callsubr
          -371 172 95 callsubr
        </CharString>
        <CharString name="Eogonek">
          -106 462 705 rmoveto
          -389 -705 241 hlineto
          -34 -16 -23 -31 -45 vvcurveto
          -68 54 -37 73 vhcurveto
          104 53 -96 hlineto
          -43 -27 21 34 33 27 20 43 hvcurveto
          54 36 16 74 -298 246 268 70 -268 241 298 hlineto
          endchar
        </CharString>
        <CharString name="Eth">
          65 callsubr
        </CharString>
        <CharString name="Euro">
          208 106 352 rmoveto
          -19 1 -18 2 -18 vhcurveto
          -91 -47 100 hlineto
          -154 36 122 -102 166 hhcurveto
          176 112 94 143 41 hvcurveto
          -96 hlineto
          -89 -34 -79 -64 -121 hhcurveto
          -107 -87 64 108 -33 hvcurveto
          242 47 -252 hlineto
          -3 17 -1 19 19 vvcurveto
          16 1 15 2 15 vhcurveto
          253 47 -244 hlineto
          115 30 89 68 110 hhcurveto
          121 79 -64 -89 34 hvcurveto
          96 hlineto
          143 -41 -112 94 -176 hhcurveto
          -169 -124 -106 -161 -34 hvcurveto
          -97 -47 90 hlineto
          -1 -15 -1 -15 -16 vvcurveto
          endchar
        </CharString>
        <CharString name="F">
          -105 73 hmoveto
          91 316 261 71 -261 244 308 74 -399 hlineto
          endchar
        </CharString>
        <CharString name="G">
          -23 callgsubr
          endchar
        </CharString>
        <CharString name="Gbreve">
          -23 callgsubr
          483 554 -76 callgsubr
          endchar
        </CharString>
        <CharString name="Gdotaccent">
          -23 callgsubr
          339 430 -44 callsubr
        </CharString>
        <CharString name="H">
          75 522 hmoveto
          92 705 -92 -305 -358 305 -91 -705 91 326 358 hlineto
          endchar
        </CharString>
        <CharString name="I">
          89 callsubr
          endchar
        </CharString>
        <CharString name="Iacute">
          89 callsubr
          -3 109 -63 callgsubr
        </CharString>
        <CharString name="Icircumflex">
          89 callsubr
          184 126 -55 callgsubr
          endchar
        </CharString>
        <CharString name="Idieresis">
          89 callsubr
          -37 77 -99 callsubr
          endchar
        </CharString>
        <CharString name="Idotaccent">
          89 callsubr
          45 77 -44 callsubr
        </CharString>
        <CharString name="Igrave">
          89 callsubr
          -125 161 -25 callgsubr
        </CharString>
        <CharString name="Imacron">
          89 callsubr
          -131 98 95 callsubr
        </CharString>
        <CharString name="Iogonek">
          89 callsubr
          -98 -824 11 callsubr
        </CharString>
        <CharString name="Itilde">
          89 callsubr
          -110 59 -98 callsubr
          endchar
        </CharString>
        <CharString name="J">
          -128 325 181 rmoveto
          -53 -25 -52 -76 -79 -31 56 76 vhcurveto
          -91 hlineto
          -137 78 -78 127 119 69 73 115 vhcurveto
          524 -91 vlineto
          endchar
        </CharString>
        <CharString name="K">
          -25 458 hmoveto
          166 callgsubr
        </CharString>
        <CharString name="L">
          -178 73 705 rmoveto
          169 callgsubr
          endchar
        </CharString>
        <CharString name="Lacute">
          -178 73 705 rmoveto
          169 callgsubr
          -60 109 -63 callgsubr
        </CharString>
        <CharString name="Lcaron">
          -152 281 705 rmoveto
          -86 50 -23 vlineto
          -36 -14 -19 197 callgsubr
          -299 hmoveto
          169 callgsubr
          endchar
        </CharString>
        <CharString name="Ldot">
          -178 73 705 rmoveto
          169 callgsubr
          200 -402 -44 callsubr
        </CharString>
        <CharString name="Lslash">
          -159 91 705 rmoveto
          -302 vlineto
          -81 -32 rlineto
          -91 vlineto
          81 32 rlineto
          -312 342 71 -250 276 vlineto
          130 51 rlineto
          91 vlineto
          -130 -51 rlineto
          267 vlineto
          endchar
        </CharString>
        <CharString name="M">
          240 73 hmoveto
          91 551 hlineto
          222 -551 rlineto
          81 hlineto
          221 553 rlineto
          -553 91 693 -109 vlineto
          -242 -582 -246 582 rlineto
          -109 hlineto
          endchar
        </CharString>
        <CharString name="N">
          82 530 705 31 callsubr
          endchar
        </CharString>
        <CharString name="NULL">
          -612 endchar
        </CharString>
        <CharString name="Nacute">
          82 530 705 31 callsubr
          -323 109 -63 callgsubr
        </CharString>
        <CharString name="Ncaron">
          82 530 705 31 callsubr
          -274 123 -58 callsubr
        </CharString>
        <CharString name="Ntilde">
          82 530 705 31 callsubr
          -430 59 -98 callsubr
          endchar
        </CharString>
        <CharString name="O">
          -100 callsubr
          endchar
        </CharString>
        <CharString name="OE">
          474 143 352 rmoveto
          172 107 105 146 144 108 -105 -172 -171 -108 -106 -144 -146 -107 106 171 vhcurveto
          898 279 rmoveto
          74 -389 -169 vlineto
          109 -36 -105 69 -121 hhcurveto
          -199 -142 -150 -212 -212 142 -149 199 hvcurveto
          121 1 105 67 36 109 rrcurveto
          -168 389 74 -297 246 267 70 -267 241 vlineto
          endchar
        </CharString>
        <CharString name="Oacute">
          -100 callsubr
          -301 461 -63 callgsubr
        </CharString>
        <CharString name="Ocircumflex">
          -100 callsubr
          -114 478 -55 callgsubr
          endchar
        </CharString>
        <CharString name="Odieresis">
          -100 callsubr
          -335 429 -99 callsubr
          endchar
        </CharString>
        <CharString name="Ograve">
          -100 callsubr
          -423 513 -25 callgsubr
        </CharString>
        <CharString name="Ohungarumlaut">
          -100 callsubr
          -135 559 62 callgsubr
        </CharString>
        <CharString name="Omacron">
          -100 callsubr
          -429 450 95 callsubr
        </CharString>
        <CharString name="Oslash">
          179 49 353 rmoveto
          -101 34 -86 56 -63 vhcurveto
          -93 -103 rlineto
          57 hlineto
          66 73 rlineto
          -51 60 79 -30 88 hhcurveto
          197 148 149 212 101 -34 87 -56 63 hvcurveto
          93 103 rlineto
          -56 hlineto
          -67 -74 rlineto
          52 -59 -78 29 -88 hhcurveto
          -198 -149 -149 -212 hvcurveto
          94 hmoveto
          171 107 105 146 65 58 -21 -39 43 vhcurveto
          -362 -400 rlineto
          -36 47 -21 62 75 vvcurveto
          253 -276 rmoveto
          -66 -58 22 39 -44 hvcurveto
          363 400 rlineto
          36 -47 21 -62 -76 vvcurveto
          -170 -108 -106 -144 vhcurveto
          endchar
        </CharString>
        <CharString name="Otilde">
          -100 callsubr
          -408 411 -98 callsubr
          endchar
        </CharString>
        <CharString name="P">
          -41 164 360 rmoveto
          269 125 vlineto
          115 41 -51 -84 -81 -41 -53 -115 hvcurveto
          249 134 rmoveto
          126 -74 85 -167 vhcurveto
          -224 -705 91 284 133 hlineto
          158 83 80 130 hvcurveto
          endchar
        </CharString>
        <CharString name="Q">
          179 648 353 rmoveto
          -170 -108 -106 -144 -146 -107 106 170 171 107 105 146 144 108 -105 -171 vhcurveto
          -599 hmoveto
          -212 149 -149 198 36 34 5 9 32 vhcurveto
          142 -143 rlineto
          115 hlineto
          -183 175 rlineto
          103 59 66 114 142 vvcurveto
          212 -147 149 -198 -198 -149 -149 -212 vhcurveto
          endchar
        </CharString>
        <CharString name="R">
          -29 -42 callgsubr
          endchar
        </CharString>
        <CharString name="Racute">
          -29 -42 callgsubr
          -42 109 -63 callgsubr
        </CharString>
        <CharString name="Rcaron">
          -29 -42 callgsubr
          7 123 -58 callsubr
        </CharString>
        <CharString name="S">
          -44 147 532 -50 callgsubr
          endchar
        </CharString>
        <CharString name="Sacute">
          -44 147 532 -50 callgsubr
          89 282 -63 callgsubr
        </CharString>
        <CharString name="Scaron">
          -44 147 532 -50 callgsubr
          138 296 -58 callsubr
        </CharString>
        <CharString name="T">
          -90 16 631 195 callgsubr
          endchar
        </CharString>
        <CharString name="Tcaron">
          -90 16 631 195 callgsubr
          246 123 -58 callsubr
        </CharString>
        <CharString name="Thorn">
          -41 164 219 rmoveto
          269 125 vlineto
          115 41 -51 -84 -81 -41 -53 -115 hvcurveto
          249 134 rmoveto
          124 -74 84 -167 vhcurveto
          -133 144 -91 -705 91 147 133 hlineto
          158 83 77 129 hvcurveto
          endchar
        </CharString>
        <CharString name="U">
          -88 callsubr
          endchar
        </CharString>
        <CharString name="Uacute">
          -88 callsubr
          214 109 -63 callgsubr
        </CharString>
        <CharString name="Ubreve">
          -88 callsubr
          405 201 -76 callgsubr
          endchar
        </CharString>
        <CharString name="Ucircumflex">
          -88 callsubr
          401 126 -55 callgsubr
          endchar
        </CharString>
        <CharString name="Udieresis">
          -88 callsubr
          180 77 -99 callsubr
          endchar
        </CharString>
        <CharString name="Ugrave">
          -88 callsubr
          91 161 -25 callgsubr
        </CharString>
        <CharString name="Uhungarumlaut">
          -88 callsubr
          359 207 62 callgsubr
        </CharString>
        <CharString name="Umacron">
          -88 callsubr
          86 98 95 callsubr
        </CharString>
        <CharString name="Uogonek">
          66 485 -164 rmoveto
          52 -91 vlineto
          -45 -26 21 33 31 21 21 43 5 hvcurveto
          120 16 95 86 181 vvcurveto
          162 callsubr
          -155 -76 -48 -95 -103 -69 60 143 140 callgsubr
          -174 95 -91 120 -20 vhcurveto
          -21 -7 -14 -24 -24 vvcurveto
          -66 51 -40 71 vhcurveto
          endchar
        </CharString>
        <CharString name="Uring">
          -88 callsubr
          157 164 52 callsubr
        </CharString>
        <CharString name="Utilde">
          -88 callsubr
          107 59 -98 callsubr
          endchar
        </CharString>
        <CharString name="V">
          58 277 hmoveto
          115 hlineto
          259 705 rlineto
          -99 hlineto
          -218 -604 -215 604 rlineto
          -100 hlineto
          endchar
        </CharString>
        <CharString name="W">
          -44 callgsubr
          endchar
        </CharString>
        <CharString name="Wacute">
          -44 callgsubr
          406 109 -63 callgsubr
        </CharString>
        <CharString name="Wcircumflex">
          -44 callgsubr
          593 126 -55 callgsubr
          endchar
        </CharString>
        <CharString name="Wdieresis">
          -44 callgsubr
          371 77 -99 callsubr
          endchar
        </CharString>
        <CharString name="Wgrave">
          -44 callgsubr
          283 161 -25 callgsubr
        </CharString>
        <CharString name="X">
          -18 466 hmoveto
          108 hlineto
          -222 352 216 353 rlineto
          -105 hlineto
          -162 -274 -173 274 rlineto
          -109 hlineto
          219 -346 -215 -359 rlineto
          105 hlineto
          161 279 rlineto
          endchar
        </CharString>
        <CharString name="Y">
          -15 callgsubr
          endchar
        </CharString>
        <CharString name="Yacute">
          -15 callgsubr
          230 109 -63 callgsubr
        </CharString>
        <CharString name="Ycircumflex">
          -15 callgsubr
          416 126 -55 callgsubr
          endchar
        </CharString>
        <CharString name="Ydieresis">
          -15 callgsubr
          195 77 -99 callsubr
          endchar
        </CharString>
        <CharString name="Ygrave">
          -15 callgsubr
          107 161 -25 callgsubr
        </CharString>
        <CharString name="Z">
          46 callgsubr
          endchar
        </CharString>
        <CharString name="Zacute">
          46 callgsubr
          -271 181 -63 callgsubr
        </CharString>
        <CharString name="Zcaron">
          46 callgsubr
          -222 195 -58 callsubr
        </CharString>
        <CharString name="Zdotaccent">
          46 callgsubr
          -223 149 -44 callsubr
        </CharString>
        <CharString name="a">
          -101 callgsubr
          endchar
        </CharString>
        <CharString name="aacute">
          -101 callgsubr
          -235 383 -63 callgsubr
        </CharString>
        <CharString name="abreve">
          -101 callgsubr
          -44 475 -76 callgsubr
          endchar
        </CharString>
        <CharString name="acircumflex">
          -101 callgsubr
          -49 400 -55 callgsubr
          endchar
        </CharString>
        <CharString name="acute">
          -341 29 657 -63 callgsubr
        </CharString>
        <CharString name="adieresis">
          -101 callgsubr
          -270 351 -99 callsubr
          endchar
        </CharString>
        <CharString name="ae">
          -21 callsubr
          endchar
        </CharString>
        <CharString name="agrave">
          -101 callgsubr
          -358 435 -25 callgsubr
        </CharString>
        <CharString name="amacron">
          -101 callgsubr
          -363 372 95 callsubr
        </CharString>
        <CharString name="ampersand">
          70 422 130 rmoveto
          4 15 2 12 13 vvcurveto
          154 -170 rlineto
          93 hlineto
          -374 442 rlineto
          -28 33 -21 26 46 vvcurveto
          47 33 42 62 64 38 -39 -66 1 vhcurveto
          -9 1 -10 -1 -11 vhcurveto
          86 hlineto
          2 19 -2 21 -5 20 rrcurveto
          77 -10 -51 74 -124 hhcurveto
          -120 -60 -77 -79 -60 26 -38 31 -38 hvcurveto
          5 -6 5 -6 5 -7 rrcurveto
          1 -7 -7 1 -8 hhcurveto
          -98 -83 -72 -128 -126 88 -84 124 92 69 57 80 14 hvcurveto
          -307 75 rmoveto
          84 52 43 67 69 70 -57 -79 -73 -52 -52 -74 -71 -61 48 86 vhcurveto
          endchar
        </CharString>
        <CharString name="aogonek">
          -101 callgsubr
          -98 -393 11 callsubr
        </CharString>
        <CharString name="approxequal">
          -94 33 197 rmoveto
          63 callsubr
          211 vmoveto
          63 callsubr
          endchar
        </CharString>
        <CharString name="aring">
          -101 callgsubr
          -293 438 52 callsubr
        </CharString>
        <CharString name="asciicircum">
          13 499 170 rmoveto
          91 hlineto
          -235 523 rlineto
          -85 hlineto
          -235 -523 rlineto
          91 hlineto
          188 414 rlineto
          endchar
        </CharString>
        <CharString name="asciitilde">
          -94 33 244 rmoveto
          63 callsubr
          endchar
        </CharString>
        <CharString name="asterisk">
          -136 284 734 rmoveto
          -83 hlineto
          18 -152 -121 92 -42 -73 142 -54 -142 -54 42 -75 121 94 -17 -152 rlineto
          82 hlineto
          -20 152 119 -91 41 72 -143 54 143 54 -40 72 -120 -91 rlineto
          endchar
        </CharString>
        <CharString name="at">
          529 738 303 rmoveto
          -146 -3 -91 -87 -104 hhcurveto
          -95 -61 74 107 3 hvcurveto
          137 3 82 89 109 hhcurveto
          106 55 -69 -105 -4 hvcurveto
          -439 -53 rmoveto
          -155 -8 89 -105 132 hhcurveto
          101 69 52 82 45 hvcurveto
          -101 -6 57 -33 75 hhcurveto
          134 114 148 199 273 -172 179 -308 -343 -230 -240 -318 -315 190 -166 315 -5 hvcurveto
          17 75 rlineto
          -272 3 -160 137 271 vvcurveto
          269 169 213 302 261 138 -154 -225 -168 -72 -96 -77 -41 -25 18 64 10 vhcurveto
          22 133 rlineto
          153 23 -85 120 -168 hhcurveto
          -162 -127 -129 -179 -7 hvcurveto
          endchar
        </CharString>
        <CharString name="atilde">
          -101 callgsubr
          -343 333 -98 callsubr
          endchar
        </CharString>
        <CharString name="b">
          62 164 409 rmoveto
          331 -91 -740 91 140 88 callgsubr
        </CharString>
        <CharString name="backslash">
          5 180 942 rmoveto
          -90 hlineto
          314 -1113 rlineto
          89 hlineto
          endchar
        </CharString>
        <CharString name="bar">
          -396 62 796 rmoveto
          -903 92 903 vlineto
          endchar
        </CharString>
        <CharString name="braceleft">
          -241 121 373 rmoveto
          82 17 34 60 74 68 -23 45 88 vvcurveto
          121 68 76 58 31 vhcurveto
          8 -87 vlineto
          -33 -18 -91 -72 -151 -79 24 -56 -63 vvcurveto
          -45 -11 -63 -96 -21 vhcurveto
          -42 vlineto
          94 -21 13 -63 -45 -63 -24 -56 -79 vvcurveto
          -151 91 -72 33 -18 vhcurveto
          87 8 hlineto
          -58 31 -68 76 121 88 23 45 68 vvcurveto
          74 -35 60 -81 17 vhcurveto
          endchar
        </CharString>
        <CharString name="braceright">
          -243 257 371 rmoveto
          -81 -17 -35 -57 -70 -67 23 -46 -88 vvcurveto
          -118 -67 -86 -58 -31 vhcurveto
          -8 86 vlineto
          33 18 91 72 151 79 -24 56 63 vvcurveto
          45 13 66 94 18 vhcurveto
          42 vlineto
          -94 19 -13 65 45 63 24 56 79 vvcurveto
          151 -91 72 -33 18 vhcurveto
          -86 -8 hlineto
          58 -31 67 -86 -118 -88 -23 -46 -67 vvcurveto
          -70 35 -57 81 -17 vhcurveto
          endchar
        </CharString>
        <CharString name="bracketleft">
          -282 89 -171 rmoveto
          196 75 -110 963 110 75 -196 hlineto
          endchar
        </CharString>
        <CharString name="bracketright">
          -283 241 942 rmoveto
          -196 -75 110 -963 -110 -75 196 hlineto
          endchar
        </CharString>
        <CharString name="breve">
          -268 315 749 -76 callgsubr
          endchar
        </CharString>
        <CharString name="brokenbar">
          -336 92 273 rmoveto
          -380 92 380 vlineto
          144 vmoveto
          379 -92 -379 vlineto
          endchar
        </CharString>
        <CharString name="bullet">
          -257 178 211 rmoveto
          69 54 54 68 69 -54 55 -69 -68 -55 -55 -69 -68 55 -54 68 hvcurveto
          endchar
        </CharString>
        <CharString name="c">
          -40 callsubr
          endchar
        </CharString>
        <CharString name="cacute">
          -40 callsubr
          216 383 -63 callgsubr
        </CharString>
        <CharString name="caron">
          -276 168 671 -58 callsubr
        </CharString>
        <CharString name="ccaron">
          -40 callsubr
          265 397 -58 callsubr
        </CharString>
        <CharString name="ccedilla">
          9 46 274 rmoveto
          -158 91 -101 132 -19 vhcurveto
          -110 54 vlineto
          18 callsubr
          60 vlineto
          135 5 92 80 20 121 rrcurveto
          -96 hlineto
          -79 -14 -64 -48 -87 hhcurveto
          -92 -83 63 139 140 83 62 92 87 64 -47 -79 14 hvcurveto
          96 hlineto
          124 -21 -96 82 -142 hhcurveto
          -157 -113 -106 -176 hvcurveto
          endchar
        </CharString>
        <CharString name="cdotaccent">
          -40 callsubr
          264 351 -44 callsubr
        </CharString>
        <CharString name="cedilla">
          -330 126 7 rmoveto
          -59 -121 54 hlineto
          18 callsubr
          endchar
        </CharString>
        <CharString name="cent">
          -27 539 210 rmoveto
          -85 hlineto
          -78 -13 -63 -45 -78 hhcurveto
          -90 -76 57 120 120 76 57 90 78 62 -44 -79 14 hvcurveto
          85 hlineto
          -14 117 -88 74 -120 7 rrcurveto
          95 -45 -96 vlineto
          -134 -11 -92 -90 -150 vvcurveto
          -150 92 -90 134 -11 vhcurveto
          -102 45 101 vlineto
          120 7 88 75 14 116 rrcurveto
          endchar
        </CharString>
        <CharString name="circumflex">
          -276 306 674 -55 callgsubr
          endchar
        </CharString>
        <CharString name="colon">
          -421 42 hmoveto
          174 callgsubr
          325 vmoveto
          174 callgsubr
          endchar
        </CharString>
        <CharString name="comma">
          -437 33 67 147 callgsubr
        </CharString>
        <CharString name="copyright">
          180 742 354 rmoveto
          -208 -140 -147 -206 -206 -141 147 208 208 141 146 206 206 140 -146 -208 vhcurveto
          -655 hmoveto
          -186 119 -134 190 190 119 134 186 187 -119 133 -190 -190 -119 -133 -187 vhcurveto
          94 hmoveto
          -150 98 -82 121 96 86 58 106 24 vhcurveto
          -79 hlineto
          -64 -20 -52 -36 -59 hhcurveto
          -74 -67 56 111 113 67 55 74 59 52 -35 -64 20 hvcurveto
          79 hlineto
          105 -24 -86 59 -96 hhcurveto
          -121 -98 -83 -149 hvcurveto
          endchar
        </CharString>
        <CharString name="currency">
          -75 165 377 rmoveto
          77 46 43 58 55 50 -43 -77 -77 -50 -43 -55 -58 -46 43 77 vhcurveto
          303 172 rmoveto
          -37 37 -61 -61 rlineto
          18 -29 -34 10 -38 hhcurveto
          -39 -35 -10 -18 -29 hvcurveto
          -61 61 -37 -37 59 -59 rlineto
          -23 -29 -13 -38 -45 vvcurveto
          -45 13 -38 22 -29 vhcurveto
          -58 -57 37 -37 59 59 rlineto
          -20 29 36 -10 40 hhcurveto
          39 35 10 19 29 hvcurveto
          59 -58 37 37 -57 56 rlineto
          23 30 14 38 45 vvcurveto
          45 -14 39 -25 29 vhcurveto
          endchar
        </CharString>
        <CharString name="d">
          62 46 274 rmoveto
          -175 106 -106 146 109 76 61 86 28 vhcurveto
          -140 91 740 -91 -331 39 callsubr
        </CharString>
        <CharString name="dagger">
          -81 302 541 rmoveto
          9 240 rlineto
          -90 hlineto
          8 286 callgsubr
          -8 -744 rlineto
          90 hlineto
          -9 744 192 -7 rlineto
          72 vlineto
          endchar
        </CharString>
        <CharString name="daggerdbl">
          -80 494 549 rmoveto
          -191 -8 8 240 rlineto
          -91 hlineto
          9 286 callgsubr
          rlineto
          -447 vlineto
          -192 9 rlineto
          -73 vlineto
          192 7 -9 -240 rlineto
          91 hlineto
          -8 240 191 -7 rlineto
          73 vlineto
          -191 -9 rlineto
          447 vlineto
          191 -7 rlineto
          endchar
        </CharString>
        <CharString name="danda">
          -330 288 callsubr
          endchar
        </CharString>
        <CharString name="dcaron">
          134 659 740 rmoveto
          137 callgsubr
          26 -3 31 -8 35 hvcurveto
          -705 -466 rmoveto
          -175 106 -106 146 109 76 61 86 28 vhcurveto
          -140 91 740 -91 -331 39 callsubr
        </CharString>
        <CharString name="dcroat">
          66 46 274 rmoveto
          -175 106 -106 146 109 76 61 86 28 vhcurveto
          -140 91 629 66 46 -66 65 -91 -65 -154 -46 154 -220 39 callsubr
        </CharString>
        <CharString name="degree">
          -206 28 524 rmoveto
          -107 71 -70 106 105 68 70 107 107 -69 69 -106 -105 -70 -69 -107 vhcurveto
          277 -1 rmoveto
          -80 -42 -43 -58 -60 -45 43 80 81 44 43 60 58 43 -43 -81 vhcurveto
          endchar
        </CharString>
        <CharString name="dieresis">
          -258 94 625 -99 callsubr
          endchar
        </CharString>
        <CharString name="divide">
          -36 33 324 rmoveto
          510 83 -510 hlineto
          199 -313 rmoveto
          111 106 -111 hlineto
          334 vmoveto
          111 106 -111 hlineto
          endchar
        </CharString>
        <CharString name="dollar">
          -30 274 -87 rmoveto
          31 80 hlineto
          1 1 0 1 hhcurveto
          156 69 95 95 148 -121 31 -107 33 hvcurveto
          246 vlineto
          71 -11 36 -50 8 -45 rrcurveto
          98 hlineto
          -12 90 -71 78 -130 10 rrcurveto
          87 -31 -86 vlineto
          -136 -89 -75 -110 -145 119 -30 106 -32 hvcurveto
          -256 vlineto
          -81 13 -39 61 -5 50 rrcurveto
          -97 hlineto
          9 -105 86 -78 127 -12 rrcurveto
          32 69 rmoveto
          -1 248 hlineto
          72 -23 59 -31 -77 vvcurveto
          -65 -44 -52 -86 vhcurveto
          -159 469 rmoveto
          72 51 38 76 vhcurveto
          -238 vlineto
          -70 24 -57 30 74 vvcurveto
          endchar
        </CharString>
        <CharString name="dotaccent">
          -445 83 625 -44 callsubr
        </CharString>
        <CharString name="dotlessi">
          119 callsubr
          endchar
        </CharString>
        <CharString name="dottedcircle">
          39 557 409 -37 callgsubr
          -376 -286 -37 callgsubr
          98 -76 -37 callgsubr
          -143 189 -37 callgsubr
          267 -203 -37 callgsubr
          -252 324 -37 callgsubr
          367 -278 -37 callgsubr
          -291 377 -37 callgsubr
          364 -281 -37 callgsubr
          -247 323 -37 callgsubr
          257 -203 -37 callgsubr
          -136 188 -37 callgsubr
          endchar
        </CharString>
        <CharString name="doubledanda">
          -119 288 callsubr
          128 hmoveto
          -741 83 741 vlineto
          endchar
        </CharString>
        <CharString name="dvA">
          216 242 448 rmoveto
          -68 40 vlineto
          -69 callsubr
          83 1 callsubr
          -215 -343 -222 vlineto
          -58 callgsubr
          endchar
        </CharString>
        <CharString name="dvAA">
          503 242 448 rmoveto
          -68 40 vlineto
          -69 callsubr
          83 277 callgsubr
          -508 -343 -222 vlineto
          -58 callgsubr
          endchar
        </CharString>
        <CharString name="dvAI">
          40 344 19 rmoveto
          143 86 85 144 hvcurveto
          59 callsubr
          111 70 -116 89 callgsubr
          -508 -70 128 -396 hlineto
          -152 77 -103 165 vhcurveto
          endchar
        </CharString>
        <CharString name="dvAU">
          236 callgsubr
          -136 vlineto
          289 -147 -40 12 -130 45 callgsubr
          -298 -343 -222 hlineto
          -58 callgsubr
          -40 -68 40 hlineto
          -69 callsubr
          vlineto
          endchar
        </CharString>
        <CharString name="dvAbbreviationsign">
          -119 249 510 rmoveto
          -98 -70 -67 -94 -95 70 -67 98 96 68 67 93 96 -68 67 -96 hvcurveto
          -52 vmoveto
          64 45 -46 -65 -63 -45 -44 -64 -67 -47 45 64 64 47 45 67 hvcurveto
          endchar
        </CharString>
        <CharString name="dvAcandra">
          217 242 448 rmoveto
          -68 40 vlineto
          -69 callsubr
          83 1 callsubr
          -215 -343 -222 vlineto
          -58 callgsubr
          609 568 28 callgsubr
        </CharString>
        <CharString name="dvAnusvara">
          -612 -91 891 0 callgsubr
        </CharString>
        <CharString name="dvAnusvara.amI">
          -612 179 891 0 callgsubr
        </CharString>
        <CharString name="dvAvagraha">
          -36 328 62 rmoveto
          99 50 54 69 hvcurveto
          161 -258 82 112 vvcurveto
          50 40 11 45 vhcurveto
          184 71 -203 hlineto
          -83 -68 -33 -88 hvcurveto
          -164 258 -82 -109 vvcurveto
          -36 -27 -28 -56 vhcurveto
          -233 -70 hlineto
          endchar
        </CharString>
        <CharString name="dvB">
          -198 571 331 rmoveto
          114 -77 124 -173 -33 callgsubr
          160 88 112 128 vhcurveto
          -248 179 -85 callgsubr
          250 160 rmoveto
          70 -599 -70 vlineto
          351 111 callsubr
          endchar
        </CharString>
        <CharString name="dvBA">
          77 584 141 callgsubr
          -741 -70 529 119 callgsubr
          -136 -105 -94 -145 138 callgsubr
          hvcurveto
          -196 vlineto
          -177 512 -20 callsubr
        </CharString>
        <CharString name="dvBH">
          -102 260 -46 callsubr
          198 69 -198 6 callsubr
        </CharString>
        <CharString name="dvBHA">
          183 260 88 callsubr
          83 670 133 70 -216 -286 -164 6 callsubr
        </CharString>
        <CharString name="dvBH_LA">
          805 260 -46 callsubr
          149 vlineto
          -5 -22 -3 -23 -26 vvcurveto
          -140 82 -105 157 9 12 1 1 12 vhcurveto
          73 vlineto
          -1 -10 -11 -1 -8 hhcurveto
          -103 -55 71 100 89 45 67 90 86 41 -77 -106 hvcurveto
          -15 71 15 vlineto
          108 43 75 90 209 callgsubr
          -100 -55 -10 callgsubr
          12 12 -1 9 hhcurveto
          157 82 105 140 120 -60 81 -91 22 hvcurveto
          133 247 70 -884 -70 555 -129 vlineto
          -90 -13 -42 -66 -16 -64 rrcurveto
          -3 hlineto
          70 -17 -50 75 -105 hhcurveto
          -75 -61 -32 -57 -36 hvcurveto
          -178 81 hlineto
          11 callgsubr
        </CharString>
        <CharString name="dvBH_NA">
          698 260 -46 callsubr
          154 vlineto
          -8 -22 -5 -25 -28 vvcurveto
          -13 callsubr
          132 70 -753 -70 538 227 callsubr
          hlineto
          -59 -52 -17 -33 -38 hvcurveto
          -202 81 hlineto
          -81 callgsubr
          217 2 219 callsubr
        </CharString>
        <CharString name="dvBH_R">
          -102 130 callgsubr
          181 137 rmoveto
          61 199 68 -199 78 vlineto
          73 callgsubr
          -91 -95 282 callsubr
          -59 -109 186 callsubr
          hvcurveto
          -77 -402 rmoveto
          276 277 rlineto
          80 vlineto
          -370 -357 rlineto
          endchar
        </CharString>
        <CharString name="dvBH_RA">
          183 130 callgsubr
          181 137 rmoveto
          61 189 -115 vlineto
          -360 -348 rlineto
          94 268 callgsubr
          75 670 133 70 -212 -283 -189 78 vlineto
          73 callgsubr
          -91 -95 282 callsubr
          -59 -109 186 callsubr
          hvcurveto
          endchar
        </CharString>
        <CharString name="dvBH_R_YA">
          629 130 callgsubr
          593 -9 2 callsubr
          -412 146 rmoveto
          61 131 vlineto
          -52 10 -49 20 -42 vhcurveto
          -332 -320 rlineto
          94 hlineto
          270 269 rlineto
          -53 45 68 -31 89 45 callsubr
          -165 81 hlineto
          73 callgsubr
          -94 -95 282 callsubr
          -59 -106 186 callsubr
          hvcurveto
          endchar
        </CharString>
        <CharString name="dvBH_VA">
          574 260 -46 callsubr
          144 250 callsubr
          94 -94 136 92 63 43 62 33 212 callsubr
          -645 -70 432 290 callsubr
          -93 hhcurveto
          -89 -72 -41 -68 -39 hvcurveto
          -169 81 hlineto
          -81 callgsubr
          389 -145 133 callgsubr
        </CharString>
        <CharString name="dvBH_YA">
          629 260 -46 callsubr
          130 vlineto
          -167 3 95 -107 166 45 callsubr
          -164 81 hlineto
          -81 callgsubr
          411 -126 2 callsubr
          endchar
        </CharString>
        <CharString name="dvB_BA">
          511 323 510 -85 callgsubr
          695 -510 103 callsubr
          -1176 -70 964 -207 vlineto
          58 -33 -65 48 -95 hhcurveto
          -91 -76 -42 -71 -41 hvcurveto
          64 -38 -70 49 -108 hhcurveto
          -33 callgsubr
          103 72 46 67 39 hvcurveto
          -71 42 78 -42 90 hhcurveto
          94 66 45 60 31 hvcurveto
          -196 vlineto
          -613 150 -89 callsubr
          438 2 rmoveto
          -100 -85 90 callsubr
          36 20 29 hvcurveto
          276 -240 rlineto
          -28 -29 -41 -18 -53 hhcurveto
          -2 360 rmoveto
          121 60 -92 -89 -35 -10 -37 -21 -31 hvcurveto
          -275 239 rlineto
          29 33 44 16 48 hhcurveto
          endchar
        </CharString>
        <CharString name="dvB_BHA">
          607 684 88 callsubr
          232 callsubr
          -215 211 callsubr
          -22 -18 -3 -6 -17 vhcurveto
          -662 -70 659 1 hlineto
          27 -1 rlineto
          261 callsubr
          -54 -48 -15 -30 -34 hvcurveto
          86 -28 -76 74 -133 hhcurveto
          -33 callgsubr
          93 68 38 56 41 hvcurveto
          -52 29 57 -32 74 hhcurveto
          96 callgsubr
          hvcurveto
          -543 202 -66 callgsubr
          endchar
        </CharString>
        <CharString name="dvB_BH_RA">
          629 323 510 rmoveto
          121 61 -92 -89 hvcurveto
          -5 0 -1 -1 vvcurveto
          -2 -8 0 -8 -1 -9 -4 -25 -10 -25 -15 -22 -274 240 rcurveline
          29 33 43 16 48 hhcurveto
          2 -360 -89 callsubr
          361 41 rmoveto
          -62 -44 38 60 62 48 38 68 hvcurveto
          95 -66 hlineto
          -83 -38 -49 -67 vhcurveto
          -26 479 rmoveto
          4 11 11 3 15 hhcurveto
          66 28 -50 -79 hvcurveto
          -91 -95 vlineto
          -56 -49 -15 -29 -34 hvcurveto
          84 -29 -76 72 -131 hhcurveto
          -33 callgsubr
          97 70 41 61 41 hvcurveto
          -44 31 55 -27 70 hhcurveto
          111 69 77 129 hvcurveto
          61 188 -116 vlineto
          -359 -347 rlineto
          94 268 callgsubr
          76 -12 callgsubr
          -212 -283 -188 78 vlineto
          284 callsubr
          -123 -23 -20 -3 -6 -17 vhcurveto
          -661 -70 hlineto
          endchar
        </CharString>
        <CharString name="dvB_DA">
          432 1070 281 callgsubr
          -1097 -70 869 -110 -73 hlineto
          -99 -86 -36 -71 -46 hvcurveto
          66 -37 -71 50 -110 hhcurveto
          -33 callgsubr
          100 73 44 65 39 hvcurveto
          -65 37 69 -36 84 hhcurveto
          71 60 30 47 28 hvcurveto
          3 callsubr
          hlineto
          -602 111 callsubr
          -2 360 -85 callgsubr
          endchar
        </CharString>
        <CharString name="dvB_DHA">
          510 184 callgsubr
          828 521 rmoveto
          182 callgsubr
          -87 -83 -117 -84 -67 36 77 62 45 44 91 vhcurveto
          -93 callsubr
          -22 -20 247 callgsubr
          -631 -70 543 79 callsubr
          -54 -8 -58 -42 -9 -75 -5 -24 -9 -24 -15 -20 -275 242 rcurveline
          30 33 45 16 49 hhcurveto
          26 21 -3 -6 20 hvcurveto
          57 vlineto
          7 -23 -26 3 -26 hhcurveto
          -140 -107 -95 -147 -151 117 -86 135 89 69 38 62 40 hvcurveto
          -61 34 76 -32 88 hhcurveto
          104 79 46 75 40 hvcurveto
          -219 4 callsubr
        </CharString>
        <CharString name="dvB_DH_VA">
          939 184 callgsubr
          1119 521 rmoveto
          131 70 -628 -70 415 -211 hlineto
          -45 callsubr
          -22 -20 247 callgsubr
          -631 -70 543 79 callsubr
          -54 -8 -58 -42 -9 -75 -5 -24 -9 -24 -15 -20 -275 242 rcurveline
          30 33 45 16 49 hhcurveto
          26 21 -3 -6 20 hvcurveto
          57 vlineto
          7 -23 -26 3 -26 hhcurveto
          -140 -107 -95 -147 -151 117 -86 135 89 69 38 62 40 hvcurveto
          -63 35 79 -31 96 hhcurveto
          123 74 52 85 36 hvcurveto
          -86 33 78 -53 101 116 callgsubr
          118 162 callgsubr
          -118 hvcurveto
          endchar
        </CharString>
        <CharString name="dvB_JA">
          645 325 150 -89 callsubr
          959 520 rmoveto
          70 -1310 -70 1095 -171 -272 -165 vlineto
          25 callgsubr
          94 190 -427 83 670 vlineto
          -829 -160 -85 callgsubr
          endchar
        </CharString>
        <CharString name="dvB_JHA">
          696 325 150 rmoveto
          -98 -87 90 callsubr
          37 20 29 hvcurveto
          276 -241 rlineto
          -28 -29 -41 -18 -53 hhcurveto
          376 173 rmoveto
          -58 -51 21 61 69 66 14 57 hvcurveto
          199 182 207 -347 hlineto
          82 -323 103 callsubr
          -1361 -70 859 -120 -140 vlineto
          -91 -91 -36 -108 hvcurveto
          -43 vlineto
          -47 -12 -50 -26 -40 vhcurveto
          -275 240 rlineto
          29 33 45 16 49 hhcurveto
          31 26 -5 -8 24 hvcurveto
          59 vlineto
          8 -26 -28 4 -31 hhcurveto
          -33 callgsubr
          139 78 92 118 19 hvcurveto
          31 -26 44 -11 45 -1 rrcurveto
          -1 20 38 0 27 hhcurveto
          92 48 -41 -67 -52 -35 -46 -83 -94 -48 53 62 -10 hvcurveto
          -71 -248 76 154 hlineto
          -23 14 47 -61 109 hhcurveto
          116 56 67 84 53 -20 38 -29 25 hvcurveto
          189 -1 rlineto
          -259 vlineto
          endchar
        </CharString>
        <CharString name="dvB_J_YA">
          1101 323 510 -66 callgsubr
          1001 32 129 callsubr
          74 59 118 vvcurveto
          82 202 -53 callsubr
          414 112 callgsubr
          -1766 -70 1267 -69 vlineto
          -102 -66 -35 -113 vhcurveto
          -265 -130 hlineto
          25 callgsubr
          61 166 vlineto
          -172 8 94 -111 162 -62 callgsubr
        </CharString>
        <CharString name="dvB_JxA">
          653 1284 -27 callgsubr
          -1310 -70 1095 -171 -272 -165 vlineto
          25 callgsubr
          94 190 -427 83 670 vlineto
          -408 95 callgsubr
          -419 155 -89 callsubr
          -2 360 -85 callgsubr
          endchar
        </CharString>
        <CharString name="dvB_LA">
          717 1021 69 rmoveto
          157 82 105 140 119 -60 82 -90 22 hvcurveto
          133 246 70 -1382 -70 1053 -129 vlineto
          -90 -13 -42 -66 -16 -64 rrcurveto
          51 callsubr
          108 43 75 90 209 callgsubr
          -100 -55 -10 callgsubr
          12 12 -1 9 hhcurveto
          -696 81 -89 callsubr
          -2 360 -85 callgsubr
          endchar
        </CharString>
        <CharString name="dvB_L_YA">
          1224 325 150 -89 callsubr
          1123 32 rmoveto
          -126 -73 75 116 118 callgsubr
          60 130 vvcurveto
          95 -54 callsubr
          -1888 -70 1389 -82 vlineto
          -103 -49 -45 -87 -11 vhcurveto
          66 -25 -59 48 -84 hhcurveto
          -111 -51 -74 -71 -18 hvcurveto
          51 callsubr
          110 44 73 93 73 35 -49 -39 9 vhcurveto
          -1 vlineto
          -163 271 callgsubr
          72 47 61 36 vhcurveto
          241 callgsubr
          vlineto
          -1407 -160 -85 callgsubr
          endchar
        </CharString>
        <CharString name="dvB_NA">
          619 581 106 callgsubr
          -1284 -70 1069 215 callgsubr
          -69 -60 -24 -44 -38 hvcurveto
          74 -34 -74 59 -119 hhcurveto
          -33 callgsubr
          101 73 45 65 39 hvcurveto
          -53 36 62 -31 74 hhcurveto
          -6 callgsubr
          -801 111 callsubr
          -2 360 -85 callgsubr
          endchar
        </CharString>
        <CharString name="dvB_R">
          -198 573 -27 callgsubr
          -599 -70 vlineto
          597 -339 rmoveto
          114 -77 124 -173 -33 callgsubr
          12 12 1 1 12 vhcurveto
          -155 -147 rlineto
          87 hlineto
          210 211 2 2 2 1 1 2 rlinecurve
          3 3 rlineto
          0 vlineto
          41 44 21 59 63 vvcurveto
          -248 179 -66 callgsubr
          endchar
        </CharString>
        <CharString name="dvB_RA">
          77 471 152 245 callsubr
          -741 -70 529 119 callgsubr
          -136 -105 -94 -145 275 callsubr
          hvcurveto
          -158 -150 rlineto
          90 hlineto
          63 566 -20 callsubr
        </CharString>
        <CharString name="dvB_SA">
          629 323 510 -66 callgsubr
          526 429 34 callgsubr
          -1294 -70 795 -91 vlineto
          -102 -58 -66 -114 vhcurveto
          -39 hlineto
          85 -28 -77 73 -132 hhcurveto
          -33 callgsubr
          85 64 31 49 42 hvcurveto
          -106 11 64 -74 115 hhcurveto
          121 74 77 120 -4 callgsubr
          hvcurveto
          121 callsubr
        </CharString>
        <CharString name="dvB_SHA">
          617 917 197 rmoveto
          14 -82 -13 vlineto
          -80 -45 -54 -74 -89 -38 291 callsubr
          140 109 250 callgsubr
          -23 -21 -3 -6 -19 hvcurveto
          -683 -70 702 hlineto
          4 13 14 2 16 hhcurveto
          76 49 -51 -82 -105 -87 -47 -106 hvcurveto
          -87 hlineto
          94 -23 -77 84 -143 hhcurveto
          -33 callgsubr
          85 65 32 49 42 hvcurveto
          -110 14 70 -70 119 hhcurveto
          122 77 78 127 hvcurveto
          -594 313 -66 callgsubr
          799 -150 134 callgsubr
        </CharString>
        <CharString name="dvB_TA">
          510 1149 -27 callgsubr
          -1175 -70 960 226 callsubr
          -96 -81 -26 -56 -51 hvcurveto
          83 -30 -75 70 -130 hhcurveto
          -33 callgsubr
          82 63 29 46 42 hvcurveto
          -110 30 94 -54 125 hhcurveto
          -52 callsubr
          -692 111 callsubr
          -2 360 -85 callgsubr
          endchar
        </CharString>
        <CharString name="dvB_VA">
          497 1136 740 rmoveto
          -1162 -70 949 90 callgsubr
          -87 -71 -40 -66 -38 hvcurveto
          64 -38 -70 48 -108 hhcurveto
          -33 callgsubr
          102 72 45 66 40 hvcurveto
          -67 38 70 -40 88 hhcurveto
          93 65 44 63 32 hvcurveto
          -202 71 callsubr
          -382 -507 -92 callsubr
          -431 347 -66 callgsubr
          endchar
        </CharString>
        <CharString name="dvB_YA">
          547 1197 -27 callgsubr
          -1223 -70 724 -69 vlineto
          -109 -56 -45 -96 -6 vhcurveto
          72 -35 -73 56 -117 hhcurveto
          -33 callgsubr
          110 77 53 76 36 hvcurveto
          -69 44 75 -40 101 -64 callsubr
          -740 111 callsubr
          458 32 rmoveto
          -125 -68 74 114 -8 hvcurveto
          -14 -1 -1 5 0 4 -1 5 rlinecurve
          1 hlineto
          137 77 75 130 hvcurveto
          -2 callgsubr
          -460 328 -85 callgsubr
          endchar
        </CharString>
        <CharString name="dvC">
          -157 413 461 216 callgsubr
          153 99 109 141 -3 vhcurveto
          -72 hlineto
          129 callgsubr
          240 209 rmoveto
          70 -644 -70 vlineto
          endchar
        </CharString>
        <CharString name="dvCA">
          123 761 -27 callgsubr
          -787 -70 572 -321 vlineto
          -99 -68 -80 -102 vhcurveto
          -84 -1 -72 48 callgsubr
          -128 95 -72 117 86 70 41 64 36 vhcurveto
          -205 97 callgsubr
        </CharString>
        <CharString name="dvCH">
          205 844 670 55 callgsubr
          76 callgsubr
        </CharString>
        <CharString name="dvCHA">
          205 844 670 55 callgsubr
          168 callsubr
          -227 -571 -81 callsubr
          endchar
        </CharString>
        <CharString name="dvCH_R">
          62 callsubr
          76 callgsubr
        </CharString>
        <CharString name="dvCH_RA">
          62 callsubr
          168 callsubr
          -227 -571 -81 callsubr
          endchar
        </CharString>
        <CharString name="dvCH_R_YA">
          -20 callgsubr
          -131 107 -73 161 -14 vhcurveto
          -139 -150 rlineto
          87 hlineto
          13 callsubr
          -147 157 122 24 89 67 37 100 rlinecurve
          218 callsubr
        </CharString>
        <CharString name="dvCH_YA">
          -20 callgsubr
          -146 133 -74 192 173 129 74 126 47 vhcurveto
          218 callsubr
        </CharString>
        <CharString name="dvC_CA">
          520 371 170 rmoveto
          -81 -70 50 93 85 62 63 96 hvcurveto
          251 hlineto
          -51 -29 -32 -49 -6 -60 rrcurveto
          -83 -22 -51 -70 -96 hhcurveto
          787 500 rmoveto
          70 -1184 -70 969 210 callgsubr
          -760 -67 182 hlineto
          -57 -32 -33 -58 -71 vvcurveto
          -131 95 -70 120 97 62 50 73 37 vhcurveto
          -79 30 78 -43 90 hhcurveto
          86 70 41 64 36 hvcurveto
          -205 97 callgsubr
        </CharString>
        <CharString name="dvC_CHA">
          664 857 99 -11 callgsubr
          rrcurveto
          -102 35 119 -52 160 hhcurveto
          182 callsubr
          121 -63 69 -83 16 hvcurveto
          123 vlineto
          endchar
        </CharString>
        <CharString name="dvC_CH_VA">
          664 850 -247 rmoveto
          -80 -59 51 85 81 55 54 95 3 hvcurveto
          0 vlineto
          45 45 6 11 41 hvcurveto
          -155 vlineto
          -62 -45 -74 -97 vhcurveto
          7 346 -11 callgsubr
          24 -72 66 -47 93 -21 rrcurveto
          -57 -31 -36 -59 -74 vvcurveto
          -112 80 -77 118 78 54 35 51 29 vhcurveto
          -146 74 443 vlineto
          103 52 61 93 125 vvcurveto
          168 callsubr
          endchar
        </CharString>
        <CharString name="dvC_MA">
          646 1069 454 56 callsubr
          -366 -498 -100 callgsubr
          582 498 rmoveto
          70 -1311 -70 834 198 callgsubr
          -101 -79 -53 -97 -11 hvcurveto
          -75 -17 -51 -59 -89 hhcurveto
          -79 -66 51 92 85 62 63 96 hvcurveto
          35 67 -363 -67 182 hlineto
          -57 -32 -33 -58 -71 vvcurveto
          -130 93 -71 121 84 61 37 58 37 vhcurveto
          -58 29 59 -35 79 48 callsubr
        </CharString>
        <CharString name="dvC_NA">
          646 599 106 callgsubr
          -1302 -70 1087 215 callgsubr
          -119 -91 -71 -123 hvcurveto
          -1 vlineto
          -75 -11 -55 -62 -88 hhcurveto
          -79 -70 50 91 85 62 63 96 hvcurveto
          35 67 -363 -67 182 hlineto
          -57 -32 -33 -58 -71 vvcurveto
          -129 99 -70 121 87 66 42 66 34 vhcurveto
          -58 35 65 -34 77 -3 callsubr
        </CharString>
        <CharString name="dvC_R">
          -157 618 -27 callgsubr
          -644 -70 vlineto
          439 -209 216 callgsubr
          8 9 0 1 8 vhcurveto
          -150 -146 rlineto
          92 hlineto
          189 194 60 45 35 72 -2 84 rlinecurve
          -72 hlineto
          129 callgsubr
          endchar
        </CharString>
        <CharString name="dvC_RA">
          123 761 -27 callgsubr
          -787 -70 572 -321 vlineto
          -99 -68 -80 -102 vhcurveto
          -84 -1 -72 48 callgsubr
          -126 95 -71 117 vhcurveto
          3 3 0 2 hhcurveto
          -152 -149 rlineto
          92 hlineto
          192 193 21 17 18 20 13 23 rlinecurve
          -207 97 callgsubr
        </CharString>
        <CharString name="dvC_YA">
          604 828 182 rmoveto
          -96 callgsubr
          414 488 rmoveto
          70 -1268 -70 769 276 callgsubr
          -12 -1 -13 -13 vvcurveto
          0 vlineto
          -167 1 -81 -65 -95 hhcurveto
          -84 -1 -68 48 callgsubr
          -131 96 -70 127 95 81 44 97 39 vhcurveto
          -81 41 79 -48 111 -62 callgsubr
        </CharString>
        <CharString name="dvCandrabindu">
          -612 52 26 callsubr
        </CharString>
        <CharString name="dvD">
          -3 656 -295 -48 callsubr
          65 965 7 callsubr
          endchar
        </CharString>
        <CharString name="dvDA">
          -3 635 670 7 callsubr
          endchar
        </CharString>
        <CharString name="dvDA_mvR">
          -26 555 222 rmoveto
          -71 hlineto
          -102 -72 -51 -98 -86 -59 37 70 67 58 27 64 vhcurveto
          58 63 -54 hlineto
          -75 -53 32 55 65 58 19 66 hvcurveto
          183 166 142 70 -642 -70 421 -106 -135 hlineto
          -95 -81 -37 -99 -77 66 -42 57 -7 hvcurveto
          -3 vlineto
          -51 -6 -72 -37 -88 vvcurveto
          -108 95 -55 130 144 101 69 148 1 vhcurveto
          endchar
        </CharString>
        <CharString name="dvDD">
          -38 479 -293 -48 callsubr
          208 963 -21 callgsubr
          endchar
        </CharString>
        <CharString name="dvDDA">
          -38 601 670 -21 callgsubr
          endchar
        </CharString>
        <CharString name="dvDDH">
          29 518 -271 -48 callsubr
          235 941 rmoveto
          70 -693 -70 430 -78 callsubr
          95 172 hlineto
          endchar
        </CharString>
        <CharString name="dvDDHA">
          29 667 -27 callgsubr
          -693 -70 430 -78 callsubr
          95 172 hlineto
          endchar
        </CharString>
        <CharString name="dvDDH_DDHA">
          60 698 -27 callgsubr
          -724 -70 435 -99 -63 vlineto
          -149 -115 -78 -154 -104 57 -72 90 -36 hvcurveto
          -88 -32 -59 -69 -107 vvcurveto
          -151 122 -84 167 154 86 66 100 83 -59 61 -105 -92 -61 -44 -77 -9 2 -11 1 -9 vhcurveto
          57 hlineto
          -1 5 -1 8 6 vvcurveto
          45 37 29 56 64 34 -38 -50 -65 -67 -42 -104 -134 -79 68 109 123 98 59 119 vhcurveto
          0 1 vlineto
          143 91 66 99 84 -57 60 -106 -92 -62 -43 -77 -9 2 -11 1 -9 hvcurveto
          57 hlineto
          -1 5 -1 7 6 vvcurveto
          45 37 30 56 64 34 -38 -51 -64 -67 -43 -104 265 callgsubr
          115 154 hlineto
          endchar
        </CharString>
        <CharString name="dvDDH_R">
          29 523 -354 -48 callsubr
          230 1024 14 callsubr
        </CharString>
        <CharString name="dvDDH_RA">
          29 667 670 14 callsubr
        </CharString>
        <CharString name="dvDDH_VA">
          29 668 -27 callgsubr
          -694 -70 429 -99 -57 vlineto
          -149 -115 -78 -154 -104 56 -74 86 -34 hvcurveto
          -67 -25 -47 -58 -83 vvcurveto
          -108 77 -71 110 74 52 35 51 27 vhcurveto
          -159 70 426 vlineto
          50 30 28 46 58 vvcurveto
          83 -56 58 -97 -91 -60 -43 -77 -9 2 -11 1 -9 vhcurveto
          57 hlineto
          -1 5 -1 7 6 vvcurveto
          45 36 30 54 54 34 -37 -49 -66 -61 -44 -97 265 callgsubr
          108 154 hlineto
          -159 -823 rmoveto
          -72 -55 46 76 89 64 43 117 29 27 3 5 24 hvcurveto
          -125 vlineto
          -64 -41 -73 -93 vhcurveto
          endchar
        </CharString>
        <CharString name="dvDDH_YA">
          657 1164 141 callgsubr
          -1321 -70 430 -78 callsubr
          332 hlineto
          55 73 -8 -77 -58 -52 -21 -80 3 hvcurveto
          -27 hlineto
          -1 -10 -1 -10 -10 vvcurveto
          -148 81 -87 137 90 56 40 60 31 vhcurveto
          -172 vlineto
          -162 136 rmoveto
          -104 -50 66 94 hvcurveto
          2 vlineto
          95 1 68 35 84 vvcurveto
          104 -85 34 -114 vhcurveto
          -247 114 599 -344 hlineto
          -113 -59 -77 -103 vhcurveto
          endchar
        </CharString>
        <CharString name="dvDDHxA">
          29 667 -27 callgsubr
          -693 -70 430 -78 callsubr
          95 172 hlineto
          -81 -798 -75 callsubr
        </CharString>
        <CharString name="dvDD_DDA">
          -22 616 -27 callgsubr
          -642 -70 411 -102 -112 vlineto
          -92 -80 -33 -93 -96 86 -25 114 78 70 -12 -75 -52 -40 -33 -83 -107 -53 48 60 -2 hvcurveto
          -79 hlineto
          -63 42 -48 60 -23 vhcurveto
          -52 -16 -34 -33 -56 vvcurveto
          -95 86 -23 115 81 66 -12 -75 -53 -40 -33 -83 -107 -54 48 62 -1 vhcurveto
          -79 hlineto
          -107 2 101 -59 139 hhcurveto
          131 70 53 90 111 -88 30 -129 -73 -60 6 59 52 46 19 96 136 72 53 90 112 -91 29 -124 -73 -58 7 58 60 58 11 51 hvcurveto
          298 callsubr
        </CharString>
        <CharString name="dvDD_DDHA">
          -11 601 -27 callgsubr
          -617 -70 398 -102 -111 vlineto
          -92 -81 -33 -93 -96 86 -25 114 79 69 -12 -75 -52 -39 -33 -83 -108 -53 48 60 -1 hvcurveto
          -80 hlineto
          -68 49 -50 68 -21 vhcurveto
          -87 -29 -59 -68 -109 vvcurveto
          -148 116 -79 158 143 81 66 99 84 -57 60 -100 -89 -58 -44 -77 -8 1 -12 2 -9 vhcurveto
          57 hlineto
          -1 6 -1 7 6 vvcurveto
          45 35 29 51 60 31 -37 -51 -64 -61 -43 -96 -127 -74 64 104 120 93 57 113 4 vhcurveto
          130 7 65 49 87 vvcurveto
          112 -90 29 -125 -72 -58 7 58 60 58 11 50 vhcurveto
          298 callsubr
        </CharString>
        <CharString name="dvDD_R">
          -38 472 -376 -48 callsubr
          215 1046 20 callsubr
        </CharString>
        <CharString name="dvDD_RA">
          -38 601 670 20 callsubr
        </CharString>
        <CharString name="dvDD_VA">
          -10 286 -163 rmoveto
          -71 -55 44 76 85 61 43 104 34 30 4 6 25 hvcurveto
          -140 vlineto
          -53 -40 -65 -88 vhcurveto
          342 833 rmoveto
          70 -654 -70 408 -102 -111 vlineto
          -92 -81 -33 -93 -108 104 -17 91 84 69 -12 -77 -54 -39 -32 -83 -108 -53 49 59 -1 hvcurveto
          -80 hlineto
          -66 47 -53 69 -25 vhcurveto
          -65 -23 -46 -55 -79 vvcurveto
          -105 77 -67 104 65 52 24 45 29 vhcurveto
          -137 71 423 vlineto
          26 24 14 32 40 vvcurveto
          109 -86 32 -118 2 vhcurveto
          -77 2 -64 2 63 vvcurveto
          62 59 11 49 vhcurveto
          298 callsubr
        </CharString>
        <CharString name="dvDD_YA">
          562 1069 hmoveto
          1 callsubr
          -1227 -70 407 -121 -114 84 callgsubr
          331 hlineto
          56 77 -8 -75 -58 -52 -17 -78 hvcurveto
          -30 hlineto
          -1 -10 0 -10 -10 vvcurveto
          -144 80 -84 137 90 56 42 63 31 vhcurveto
          -177 vlineto
          -161 136 rmoveto
          -105 -50 63 89 hvcurveto
          4 vlineto
          101 3 62 37 78 vvcurveto
          103 -87 34 -118 vhcurveto
          -167 123 525 -331 hlineto
          -121 -59 -82 -102 vhcurveto
          endchar
        </CharString>
        <CharString name="dvDDxA">
          -38 601 670 -21 callgsubr
          -95 -820 -75 callsubr
        </CharString>
        <CharString name="dvDH">
          -184 601 331 rmoveto
          -73 hlineto
          -96 -76 -68 -124 -81 140 callsubr
          vhcurveto
          7 callgsubr
          172 108 96 138 vhcurveto
          endchar
        </CharString>
        <CharString name="dvDHA">
          100 742 670 rmoveto
          182 callgsubr
          -87 -83 -117 -84 -67 36 77 62 45 44 91 vhcurveto
          -93 callsubr
          -101 -69 -68 -97 12 callsubr
          -115 96 -59 121 104 79 46 75 40 vhcurveto
          -219 4 callsubr
        </CharString>
        <CharString name="dvDH_MA">
          650 1288 -27 callgsubr
          -752 -70 275 -216 -94 vlineto
          -105 -80 -57 -103 -7 hvcurveto
          -1 -3 rlineto
          -70 -13 -66 -54 -117 hhcurveto
          -81 -2 callsubr
          98 -57 128 111 78 35 56 42 vhcurveto
          -54 30 58 -33 75 hhcurveto
          96 callgsubr
          hvcurveto
          77 184 -385 83 670 vlineto
          -449 -498 rmoveto
          -61 -44 41 65 66 48 1 callgsubr
          -49 -66 vhcurveto
          366 282 267 callgsubr
          endchar
        </CharString>
        <CharString name="dvDH_NA">
          636 1286 669 rmoveto
          71 -750 -71 535 -165 -328 vlineto
          -116 -88 -66 -115 -6 hvcurveto
          -2 vlineto
          -102 -14 -74 -52 -114 -5 callsubr
          101 -57 128 114 82 45 81 39 vhcurveto
          -67 31 69 -39 84 hhcurveto
          109 85 202 callsubr
          hvcurveto
          196 -434 83 669 hlineto
          -545 -359 rmoveto
          -9 callsubr
          52 -52 -71 -72 -52 -51 -73 -77 -51 50 72 vhcurveto
          endchar
        </CharString>
        <CharString name="dvDH_N_YA">
          1106 1745 -27 callgsubr
          -1211 -70 712 -69 vlineto
          -104 -67 -32 -112 vhcurveto
          -327 hlineto
          -113 -86 -62 -111 -10 hvcurveto
          -83 -22 -65 -42 -113 -5 callsubr
          101 -57 128 110 76 36 66 40 vhcurveto
          -75 28 72 -45 90 hhcurveto
          109 85 69 139 callgsubr
          hvcurveto
          177 hlineto
          -174 8 95 -111 162 196 callgsubr
          -1007 -399 rmoveto
          204 callgsubr
          -71 -73 -52 -51 -73 -77 -51 51 71 vhcurveto
          725 -89 rmoveto
          -125 -72 86 134 -4 hvcurveto
          123 6 75 59 121 -76 callsubr
          endchar
        </CharString>
        <CharString name="dvDH_R">
          -184 601 331 rmoveto
          -73 hlineto
          -96 -76 -68 -124 -81 140 callsubr
          vhcurveto
          7 callgsubr
          21 21 1 3 19 vhcurveto
          -171 -165 rlineto
          93 hlineto
          222 227 rlineto
          48 41 27 58 69 vvcurveto
          endchar
        </CharString>
        <CharString name="dvDH_RA">
          100 490 168 rmoveto
          -1 hlineto
          16 15 13 18 10 19 rrcurveto
          -220 84 670 130 182 callgsubr
          -87 -83 -117 -84 -67 36 77 62 45 44 91 vhcurveto
          -93 callsubr
          -101 -69 -68 -97 12 callsubr
          -114 96 -58 121 11 11 1 1 11 vhcurveto
          -171 -166 rlineto
          93 hlineto
          endchar
        </CharString>
        <CharString name="dvDH_VA">
          490 1033 -5 callgsubr
          131 70 -628 -70 415 -211 hlineto
          -45 callsubr
          -101 -69 -68 -97 -98 63 -51 65 -15 vhcurveto
          -3 vlineto
          -59 -9 -63 -48 -88 180 callgsubr
          82 vlineto
          -250 163 133 callgsubr
        </CharString>
        <CharString name="dvDH_YA">
          579 1217 -27 callgsubr
          -681 -70 182 -56 callsubr
          -3 vlineto
          0 vlineto
          -131 2 -69 -92 -127 hhcurveto
          -81 -2 callsubr
          101 -57 132 113 81 55 90 39 vhcurveto
          -83 41 80 -48 112 hhcurveto
          107 -68 callgsubr
          vlineto
          -282 -488 27 callgsubr
          endchar
        </CharString>
        <CharString name="dvD_BA">
          154 callsubr
          -113 78 -79 116 72 58 33 59 29 vhcurveto
          40 callsubr
        </CharString>
        <CharString name="dvD_BHA">
          758 656 -295 -48 callsubr
          65 965 7 callsubr
          343 -498 rmoveto
          -73 callsubr
          182 136 rmoveto
          77 164 -385 83 670 133 70 -216 -286 -164 6 callsubr
        </CharString>
        <CharString name="dvD_B_RA">
          154 callsubr
          -111 75 -78 113 -3 vhcurveto
          -126 -121 rlineto
          88 hlineto
          161 160 17 14 14 18 11 21 rlinecurve
          40 callsubr
        </CharString>
        <CharString name="dvD_DA">
          -65 491 -56 rmoveto
          276 -70 vlineto
          -93 -58 -52 -92 -80 -51 38 69 56 38 39 79 vhcurveto
          86 61 -84 hlineto
          -83 -41 40 49 70 65 23 78 hvcurveto
          145 150 150 70 -610 -70 378 -93 hlineto
          1 -28 -29 0 -27 hhcurveto
          -112 -93 -35 -108 -72 51 -45 66 -10 hvcurveto
          -3 vlineto
          -66 -11 -48 -48 -75 vvcurveto
          -102 81 -58 105 92 53 40 45 24 vhcurveto
          -152 vlineto
          endchar
        </CharString>
        <CharString name="dvD_DHA">
          290 928 -27 callgsubr
          -954 -70 724 293 callsubr
          -147 -119 -78 -157 -91 38 -67 60 -36 hvcurveto
          -93 -20 -65 -54 -80 hhcurveto
          234 callsubr
          58 43 50 98 -6 hvcurveto
          69 vlineto
          -155 11 -68 -77 -92 vvcurveto
          -93 63 -44 63 -14 vhcurveto
          80 callsubr
        </CharString>
        <CharString name="dvD_GA">
          181 callgsubr
          -126 vlineto
          -48 -17 -51 -66 -62 -20 49 43 vhcurveto
          29 -72 -30 vlineto
          -90 51 -68 103 112 46 76 93 vhcurveto
          117 vlineto
          62 4 49 28 27 40 rrcurveto
          -433 78 199 callsubr
        </CharString>
        <CharString name="dvD_GHA">
          290 292 -16 rmoveto
          234 callsubr
          55 39 48 83 37 39 -10 -21 40 hvcurveto
          -21 -34 -12 -42 -50 vvcurveto
          -91 38 -67 60 -36 vhcurveto
          -93 -20 -65 -54 -80 hhcurveto
          636 686 rmoveto
          70 -954 -70 724 293 callsubr
          -75 -67 -20 -41 -49 hvcurveto
          33 -50 -60 19 -59 hhcurveto
          -134 -59 -73 -86 -93 63 -44 63 -14 hvcurveto
          80 callsubr
        </CharString>
        <CharString name="dvD_G_RA">
          181 callgsubr
          -63 vlineto
          -47 -17 -52 -66 -62 -20 49 44 vhcurveto
          28 -72 -30 vlineto
          -90 51 -67 103 112 46 76 92 vhcurveto
          54 vlineto
          62 4 49 28 27 40 rrcurveto
          -185 vlineto
          -302 -302 rlineto
          83 hlineto
          223 229 rlineto
          -175 74 199 callsubr
        </CharString>
        <CharString name="dvD_MA">
          205 189 -28 rmoveto
          62 46 32 59 vhcurveto
          81 -66 hlineto
          -74 -34 -43 -58 -55 -39 36 53 vhcurveto
          263 163 rmoveto
          168 -178 vlineto
          -69 -50 30 61 68 49 27 68 hvcurveto
          164 181 191 -535 hlineto
          217 535 rmoveto
          70 -870 -70 381 -110 -92 vlineto
          -108 -83 -45 -120 -105 84 -54 109 hvcurveto
          110 -100 -76 hlineto
          -103 -80 -51 -110 -99 66 -62 102 108 60 69 125 hvcurveto
          58 175 -308 83 912 vlineto
          endchar
        </CharString>
        <CharString name="dvD_NA">
          766 656 -295 -48 callsubr
          157 605 36 callsubr
          -1430 -70 434 -110 -73 vlineto
          -33 callsubr
          697 227 callsubr
          hlineto
          -90 callgsubr
          195 -434 83 670 hlineto
          endchar
        </CharString>
        <CharString name="dvD_R">
          -3 656 -295 -48 callsubr
          65 965 rmoveto
          70 -661 259 callgsubr
          -141 92 -82 127 hvcurveto
          -14 callsubr
        </CharString>
        <CharString name="dvD_RA">
          -3 635 -27 callgsubr
          -661 259 callgsubr
          -141 92 -82 127 hvcurveto
          -14 callsubr
        </CharString>
        <CharString name="dvD_VA">
          -9 629 -27 callgsubr
          -655 -70 428 -110 -79 vlineto
          -147 -99 -65 -130 -84 43 -60 65 -26 hvcurveto
          128 callgsubr
          -183 -749 179 callsubr
          endchar
        </CharString>
        <CharString name="dvD_YA">
          89 292 105 rmoveto
          -88 -61 36 68 69 55 25 74 hvcurveto
          65 65 -63 hlineto
          -73 -58 26 62 69 67 19 63 hvcurveto
          2 -5 hlineto
          3 5 rlineto
          76 126 159 -341 hlineto
          -159 -94 -65 -127 vhcurveto
          435 565 rmoveto
          70 -734 -70 282 -92 vlineto
          1 -16 -17 0 -17 hhcurveto
          -77 -90 -27 -97 -83 72 -29 48 -7 hvcurveto
          -3 vlineto
          -47 -6 -72 -32 -94 vvcurveto
          -103 92 -57 124 118 82 43 86 38 vhcurveto
          -170 82 -24 callsubr
        </CharString>
        <CharString name="dvE">
          40 678 -27 callgsubr
          -704 -70 128 -396 vlineto
          -152 77 -103 165 143 86 85 144 vhcurveto
          59 callsubr
          vlineto
          endchar
        </CharString>
        <CharString name="dvEcandra">
          40 678 -27 callgsubr
          -704 -70 128 -396 vlineto
          -152 77 -103 165 143 86 85 144 vhcurveto
          59 callsubr
          vlineto
          -35 344 28 callgsubr
        </CharString>
        <CharString name="dvEight">
          26 callgsubr
        </CharString>
        <CharString name="dvEyelash">
          354 436 rmoveto
          -6 -19 -22 -6 -36 hhcurveto
          -79 -87 33 101 -2 hvcurveto
          -79 hlineto
          -146 3 120 -50 112 hhcurveto
          48 45 11 14 26 hvcurveto
          -18 283 rmoveto
          70 -392 -70 vlineto
          endchar
        </CharString>
        <CharString name="dvEyelash_HA">
          152 706 61 -83 callgsubr
          -816 -70 595 138 callsubr
          -28 7 -23 13 -19 hvcurveto
          -2 -12 -13 -2 -15 hhcurveto
          -70 -72 34 94 hvcurveto
          -79 hlineto
          -137 1 107 -58 98 hhcurveto
          53 32 12 12 24 hvcurveto
          3 -2 4 -1 4 -2 rrcurveto
          93 callgsubr
        </CharString>
        <CharString name="dvEyelash_YA">
          317 541 182 rmoveto
          -96 callgsubr
          414 488 rmoveto
          70 -981 -70 482 -69 vlineto
          -115 -62 -43 -107 -3 vhcurveto
          1 vlineto
          -78 -1 -95 32 101 vvcurveto
          -79 hlineto
          2 -139 112 -53 111 -6 rrcurveto
          -161 7 94 -103 163 -62 callgsubr
        </CharString>
        <CharString name="dvFive">
          67 callgsubr
        </CharString>
        <CharString name="dvFour">
          144 callgsubr
        </CharString>
        <CharString name="dvG">
          -132 506 -27 callgsubr
          -532 257 callgsubr
          vlineto
          -99 callgsubr
          vlineto
          endchar
        </CharString>
        <CharString name="dvGA">
          133 640 hmoveto
          1 callsubr
          -798 257 callgsubr
          vlineto
          -99 callgsubr
          178 -670 vlineto
          endchar
        </CharString>
        <CharString name="dvGH">
          -190 593 -27 callgsubr
          -619 21 callgsubr
          -121 95 -61 147 163 105 111 143 vhcurveto
          176 callsubr
        </CharString>
        <CharString name="dvGHA">
          98 325 107 callsubr
          43 77 hvcurveto
          73 158 callsubr
          -763 21 callgsubr
          -121 95 -61 129 96 78 43 71 41 vhcurveto
          -220 4 callsubr
        </CharString>
        <CharString name="dvGH_MA">
          616 1039 454 56 callsubr
          -366 -498 -100 callgsubr
          -363 3 297 callsubr
          60 69 -54 252 callsubr
          595 198 callgsubr
          -97 -76 -49 -88 -16 hvcurveto
          -4 -12 rlineto
          -97 -27 -62 -33 -91 hhcurveto
          945 495 rmoveto
          70 -1281 21 callgsubr
          -121 88 -61 125 94 73 30 70 40 vhcurveto
          -65 26 62 -40 84 48 callsubr
        </CharString>
        <CharString name="dvGH_NA">
          607 569 310 -103 callgsubr
          -259 -135 297 callsubr
          47 69 -41 252 callsubr
          848 215 callgsubr
          -107 -84 -57 -100 -16 hvcurveto
          -4 -14 rlineto
          -119 -31 -53 -39 -98 hhcurveto
          936 495 rmoveto
          70 -1272 21 callgsubr
          -121 87 -61 124 99 78 33 90 38 vhcurveto
          -70 31 70 -42 86 -3 callsubr
        </CharString>
        <CharString name="dvGH_R">
          -190 593 -27 callgsubr
          -619 21 callgsubr
          -121 95 -61 147 13 13 292 callsubr
          -168 -162 rlineto
          92 hlineto
          217 220 rlineto
          56 46 32 69 79 vvcurveto
          176 callsubr
        </CharString>
        <CharString name="dvGH_RA">
          98 325 107 callsubr
          45 77 hvcurveto
          71 158 callsubr
          -763 21 callgsubr
          -118 95 -61 129 10 9 0 1 10 vhcurveto
          -170 -164 rlineto
          92 hlineto
          231 232 rlineto
          0 vlineto
          13 13 11 14 9 16 rrcurveto
          -221 4 callsubr
        </CharString>
        <CharString name="dvGH_YA">
          576 325 107 callsubr
          43 77 hvcurveto
          73 533 -56 callsubr
          -14 1 -13 1 -13 vhcurveto
          -104 -4 -80 -74 -113 hhcurveto
          476 7 rmoveto
          -96 callgsubr
          414 488 rmoveto
          70 -1241 21 callgsubr
          -121 95 -61 147 108 82 49 74 44 vhcurveto
          -75 42 77 -43 106 -62 callgsubr
        </CharString>
        <CharString name="dvG_BA">
          521 1028 141 callgsubr
          -1185 257 callgsubr
          vlineto
          -99 callgsubr
          568 119 callgsubr
          -136 -105 -94 -145 -146 108 -93 134 74 callsubr
        </CharString>
        <CharString name="dvG_BHA">
          620 697 88 callsubr
          84 1 callsubr
          -216 211 callsubr
          -23 -20 -3 -6 -17 vhcurveto
          -672 257 callgsubr
          hlineto
          -99 callgsubr
          293 vlineto
          4 11 13 3 12 hhcurveto
          65 28 -51 -78 hvcurveto
          -94 -19 callsubr
          endchar
        </CharString>
        <CharString name="dvG_BH_YA">
          1065 697 172 47 callsubr
          -670 257 callgsubr
          hlineto
          -99 callgsubr
          178 vlineto
          170 callgsubr
          -19 callsubr
          411 -126 2 callsubr
          endchar
        </CharString>
        <CharString name="dvG_DA">
          441 1079 281 callgsubr
          -1106 257 callgsubr
          hlineto
          -99 callgsubr
          473 -110 -73 vlineto
          35 callsubr
          endchar
        </CharString>
        <CharString name="dvG_DHA">
          538 1047 hmoveto
          670 130 182 callgsubr
          -87 -83 -117 -84 -67 36 77 62 45 44 91 vhcurveto
          -93 callsubr
          -22 -20 247 callgsubr
          -653 257 callgsubr
          hlineto
          -99 callgsubr
          160 vlineto
          -14 -24 -8 -30 -32 vvcurveto
          12 callsubr
          -115 96 -59 121 104 79 46 75 40 vhcurveto
          -219 vlineto
          endchar
        </CharString>
        <CharString name="dvG_DH_VA">
          961 1468 141 callgsubr
          -628 -70 415 -211 vlineto
          -45 callsubr
          -22 -20 247 callgsubr
          -653 257 callgsubr
          hlineto
          -99 callgsubr
          160 vlineto
          -14 -24 -8 -30 -32 vvcurveto
          -98 63 -51 65 -15 vhcurveto
          -3 vlineto
          -59 -9 -63 -48 -88 180 callgsubr
          vlineto
          -168 163 133 callgsubr
        </CharString>
        <CharString name="dvG_DH_YA">
          1014 1238 182 -6 callsubr
          -653 257 callgsubr
          hlineto
          -99 callgsubr
          160 vlineto
          -14 -24 -8 -30 -32 vvcurveto
          177 callgsubr
          101 -57 132 113 81 55 90 39 vhcurveto
          -83 41 80 -48 112 hhcurveto
          107 72 47 61 36 hvcurveto
          -219 vlineto
          endchar
        </CharString>
        <CharString name="dvG_GA">
          583 1090 hmoveto
          1 callsubr
          -1248 257 callgsubr
          vlineto
          -99 callgsubr
          366 -274 vlineto
          -99 callgsubr
          178 -670 vlineto
          endchar
        </CharString>
        <CharString name="dvG_GHA">
          532 759 107 callsubr
          43 77 hvcurveto
          73 158 callsubr
          -1197 257 callgsubr
          vlineto
          -99 callgsubr
          154 -76 vlineto
          -97 53 -43 64 -11 vhcurveto
          -3 vlineto
          -70 -11 -63 -53 -88 vvcurveto
          -121 95 -61 129 96 78 43 71 41 vhcurveto
          -220 4 callsubr
        </CharString>
        <CharString name="dvG_JA">
          667 1305 -27 callgsubr
          -1331 257 callgsubr
          vlineto
          -99 callgsubr
          711 -171 -271 -165 vlineto
          -92 callgsubr
          94 190 -427 97 callgsubr
        </CharString>
        <CharString name="dvG_LA">
          736 1040 69 rmoveto
          -53 callgsubr
          -1400 257 callgsubr
          vlineto
          -99 callgsubr
          667 -129 vlineto
          -90 -13 -42 -66 -17 -64 rrcurveto
          -2 hlineto
          70 -18 -49 75 -106 hhcurveto
          -123 -85 -86 -143 -140 81 -105 157 86 callsubr
          endchar
        </CharString>
        <CharString name="dvG_MA">
          631 1054 454 56 callsubr
          -366 -498 -100 callgsubr
          582 498 rmoveto
          70 -1296 257 callgsubr
          vlineto
          -99 callgsubr
          414 157 callsubr
        </CharString>
        <CharString name="dvG_NA">
          628 589 106 callgsubr
          -1292 257 callgsubr
          vlineto
          -99 callgsubr
          672 215 callgsubr
          -90 callgsubr
          195 -434 83 670 hlineto
          endchar
        </CharString>
        <CharString name="dvG_NNA">
          691 729 254 rmoveto
          -56 callgsubr
          600 416 rmoveto
          70 -1355 257 callgsubr
          vlineto
          -99 callgsubr
          159 181 callsubr
        </CharString>
        <CharString name="dvG_N_YA">
          1089 589 271 rmoveto
          -30 callgsubr
          -1754 257 callgsubr
          vlineto
          -99 callgsubr
          850 231 callsubr
          -327 hlineto
          -119 -91 -70 -124 -117 88 -75 195 callsubr
          178 hlineto
          -174 8 94 -111 162 -62 callgsubr
        </CharString>
        <CharString name="dvG_R">
          -132 574 353 rmoveto
          -382 -373 rlineto
          98 hlineto
          284 285 rlineto
          405 vmoveto
          70 -600 -1 callsubr
          vlineto
          endchar
        </CharString>
        <CharString name="dvG_RA">
          73 callsubr
          endchar
        </CharString>
        <CharString name="dvG_R_YA">
          570 795 182 rmoveto
          -96 callgsubr
          414 488 rmoveto
          70 -1235 -1 callsubr
          331 -56 callsubr
          -32 3 -30 7 -27 vhcurveto
          -332 -324 rlineto
          98 hlineto
          258 258 rlineto
          -80 41 79 -47 110 -62 callgsubr
        </CharString>
        <CharString name="dvG_SA">
          642 864 579 34 callgsubr
          -1307 257 callgsubr
          vlineto
          -99 callgsubr
          403 -91 vlineto
          -29 callgsubr
          465 -350 84 670 vlineto
          endchar
        </CharString>
        <CharString name="dvG_VA">
          506 763 163 -77 callsubr
          -1171 257 callgsubr
          hlineto
          -99 callgsubr
          553 -212 vlineto
          75 callgsubr
        </CharString>
        <CharString name="dvG_YA">
          570 795 182 rmoveto
          -96 callgsubr
          414 488 rmoveto
          70 -1235 257 callgsubr
          vlineto
          -99 callgsubr
          331 16 callsubr
          endchar
        </CharString>
        <CharString name="dvGx">
          -132 506 -27 callgsubr
          -532 257 callgsubr
          vlineto
          -99 callgsubr
          vlineto
          -104 -587 -75 callsubr
        </CharString>
        <CharString name="dvGxA">
          133 640 hmoveto
          1 callsubr
          -798 257 callgsubr
          vlineto
          -99 callgsubr
          178 -670 vlineto
          -282 83 -75 callsubr
        </CharString>
        <CharString name="dvGx_R">
          -132 574 353 rmoveto
          -382 -373 rlineto
          98 hlineto
          284 285 rlineto
          405 vmoveto
          70 -600 -1 callsubr
          vlineto
          -229 -562 -18 callgsubr
          endchar
        </CharString>
        <CharString name="dvGx_RA">
          73 callsubr
          -409 108 -18 callgsubr
          endchar
        </CharString>
        <CharString name="dvH">
          -26 528 61 -83 callgsubr
          -638 -70 417 -117 -130 hlineto
          190 callgsubr
          87 14 vhcurveto
          -59 -443 -48 callsubr
          endchar
        </CharString>
        <CharString name="dvHA">
          -26 528 61 -83 callgsubr
          -638 -70 417 -117 -130 hlineto
          190 callgsubr
          87 14 vhcurveto
          endchar
        </CharString>
        <CharString name="dvHA_mU">
          -26 343 -360 rmoveto
          130 80 61 103 104 -69 61 -143 -118 -67 64 86 81 54 67 97 102 40 -73 -65 hvcurveto
          79 hlineto
          100 -61 105 -159 214 callgsubr
          vhcurveto
          -42 12 -29 28 153 callsubr
          -67 -36 -40 -67 -82 vvcurveto
          -126 92 -92 174 95 45 -36 -63 -61 -54 -36 -84 -94 -74 42 94 5 vhcurveto
          -75 hlineto
          -137 -4 110 -65 132 hhcurveto
          endchar
        </CharString>
        <CharString name="dvHA_mUU">
          -26 320 -350 164 callgsubr
          161 -81 119 -162 vhcurveto
          0 vlineto
          -98 -55 65 85 81 54 67 97 102 41 -73 -67 -1 hvcurveto
          79 hlineto
          101 1 -62 106 -159 hhcurveto
          -20 -19 -2 -3 -18 hvcurveto
          -41 13 -29 27 153 callsubr
          -68 -35 -39 -67 -82 vvcurveto
          -81 38 -67 73 -36 vhcurveto
          -43 -29 -26 -46 -59 vvcurveto
          -101 73 -54 92 13 12 292 callsubr
          endchar
        </CharString>
        <CharString name="dvHA_mvR">
          56 394 -204 rmoveto
          58 vlineto
          -154 -99 95 138 115 66 99 160 101 53 -33 -60 22 hvcurveto
          1 -23 -27 1 -39 hhcurveto
          -99 -50 -52 -73 -87 74 -37 74 36 26 4 7 21 hvcurveto
          52 vlineto
          -7 -21 -26 -4 -26 hhcurveto
          -50 -46 22 52 42 29 34 62 hvcurveto
          148 hlineto
          111 -10 -79 84 -153 228 callgsubr
          303 178 113 70 -720 -70 536 -118 -255 237 callgsubr
          -169 120 -127 201 3 vhcurveto
          endchar
        </CharString>
        <CharString name="dvH_LA">
          85 372 -199 rmoveto
          57 vlineto
          -139 -94 94 135 116 67 100 161 98 58 -45 -58 22 hvcurveto
          -40 -12 -20 -31 -7 -30 rrcurveto
          -2 hlineto
          37 -10 -29 40 -59 hhcurveto
          -68 -47 -46 -77 -76 45 -56 88 6 6 0 1 7 hvcurveto
          45 vlineto
          -1 -6 -5 0 -5 hhcurveto
          -54 -29 35 51 44 25 33 43 44 24 -37 -55 hvcurveto
          -8 49 8 vlineto
          57 25 35 45 41 25 -33 -45 -50 -29 -35 -54 -5 -5 0 1 -5 vhcurveto
          -45 vlineto
          -1 6 6 0 6 hhcurveto
          88 45 56 76 67 -36 45 -54 9 hvcurveto
          89 -22 -78 67 -136 228 callgsubr
          310 178 136 70 -750 -70 542 -118 -261 237 callgsubr
          -165 117 -125 182 2 vhcurveto
          endchar
        </CharString>
        <CharString name="dvH_MA">
          639 181 412 rmoveto
          60 51 20 56 vhcurveto
          183 178 330 -216 -95 hlineto
          -90 -72 -42 -78 -23 hvcurveto
          -213 264 callsubr
          515 -240 72 callsubr
          -1304 100 callgsubr
          99 hvcurveto
          205 hlineto
          -100 5 72 -66 108 48 callsubr
        </CharString>
        <CharString name="dvH_NA">
          639 181 412 rmoveto
          60 51 20 56 vhcurveto
          183 178 580 227 callsubr
          hlineto
          -111 -87 -62 -108 -11 hvcurveto
          -206 264 callsubr
          408 -102 36 callsubr
          -1292 100 callgsubr
          100 hvcurveto
          208 hlineto
          -93 19 80 -57 100 -3 callsubr
        </CharString>
        <CharString name="dvH_NNA">
          58 364 24 rmoveto
          -41 -23 32 46 hvcurveto
          194 vlineto
          3 19 21 2 24 hhcurveto
          24 22 -2 -4 19 hvcurveto
          -193 vlineto
          -46 -24 -32 -41 vhcurveto
          -17 -164 rmoveto
          -121 5 -84 87 135 vvcurveto
          87 23 75 84 33 vhcurveto
          -175 vlineto
          -72 40 -55 74 76 40 54 73 vhcurveto
          172 vlineto
          71 -35 23 -73 -88 vvcurveto
          -133 62 133 vlineto
          150 -73 125 -200 -46 -41 -6 -12 -34 vhcurveto
          -38 15 -25 26 37 256 callgsubr
          294 178 130 70 -728 -70 526 -118 -245 hlineto
          -92 -65 -40 -79 -59 39 -39 48 -21 hvcurveto
          -75 -46 -37 -81 -98 266 callgsubr
        </CharString>
        <CharString name="dvH_R">
          14 callgsubr
          -58 -441 -48 callsubr
          endchar
        </CharString>
        <CharString name="dvH_RA">
          14 callgsubr
          endchar
        </CharString>
        <CharString name="dvH_VA">
          36 435 -6 rmoveto
          -54 -39 35 59 57 42 35 51 hvcurveto
          66 -1 28 -49 -43 vvcurveto
          -1 vlineto
          -42 -28 -50 -66 vhcurveto
          -88 -193 rmoveto
          -1 59 rlineto
          -120 5 -82 87 135 vvcurveto
          117 72 93 136 98 64 -56 -76 13 vhcurveto
          32 -20 -36 25 -52 hhcurveto
          -77 -1 -60 -51 1 -82 rrcurveto
          -81 55 -55 81 55 38 28 37 19 vhcurveto
          -116 61 219 vlineto
          129 -84 109 -165 -37 -34 -6 -11 -31 vhcurveto
          -35 11 -28 26 40 256 callgsubr
          254 178 127 70 -685 -70 485 -118 -204 hlineto
          -92 -65 -40 -79 -60 39 -39 49 -20 hvcurveto
          -70 -47 -43 -79 -99 266 callgsubr
        </CharString>
        <CharString name="dvH_YA">
          275 547 -46 rmoveto
          -89 -53 57 74 -1 hvcurveto
          83 4 65 36 86 vvcurveto
          103 -89 44 -110 -42 -38 -7 -12 -34 vhcurveto
          -37 15 -25 27 37 256 callgsubr
          233 178 195 -517 hlineto
          -112 -51 -87 -107 vhcurveto
          234 -102 rmoveto
          818 132 70 -939 -70 463 -118 -183 vlineto
          -92 -65 -40 -79 -60 39 -40 49 -21 hvcurveto
          -73 -48 -40 -83 -101 vvcurveto
          -172 119 -130 188 -2 vhcurveto
          60 vlineto
          -142 5 -92 97 139 vvcurveto
          123 72 95 135 64 64 -22 -67 -60 -47 -25 -87 vhcurveto
          -9 hlineto
          -1 -10 -1 -11 -11 vvcurveto
          -107 67 -87 131 85 57 41 64 32 vhcurveto
          -148 vlineto
          endchar
        </CharString>
        <CharString name="dvI">
          -32 617 -27 callgsubr
          -654 42 callgsubr
          156 hlineto
          76 callsubr
          hlineto
          endchar
        </CharString>
        <CharString name="dvII">
          -32 174 79 rmoveto
          76 callsubr
          152 70 -154 75 hlineto
          193 callsubr
          -74 -422 42 callgsubr
          hlineto
          endchar
        </CharString>
        <CharString name="dvII_Anusvara">
          -32 174 79 rmoveto
          76 callsubr
          152 70 -154 78 hlineto
          85 37 48 70 63 38 -45 -54 1 vhcurveto
          68 hlineto
          101 1 -65 64 -104 hhcurveto
          -126 -58 -86 -112 hvcurveto
          -79 -425 42 callgsubr
          hlineto
          437 917 19 callsubr
        </CharString>
        <CharString name="dvJ">
          -67 694 427 rmoveto
          72 -313 -165 vlineto
          -92 callgsubr
          94 vlineto
          232 243 rmoveto
          70 -720 -70 vlineto
          endchar
        </CharString>
        <CharString name="dvJA">
          185 callsubr
          678 -171 -271 -165 vlineto
          -92 callgsubr
          94 190 -427 97 callgsubr
        </CharString>
        <CharString name="dvJH">
          -43 683 -27 callgsubr
          -709 -90 callsubr
          210 -1 rlineto
          64 -408 239 callgsubr
        </CharString>
        <CharString name="dvJHA">
          237 275 323 rmoveto
          10 callgsubr
          197 -347 hlineto
          82 -323 103 callsubr
          -902 -90 callsubr
          189 -1 rlineto
          -259 vlineto
          endchar
        </CharString>
        <CharString name="dvJH_MA">
          747 1170 454 56 callsubr
          -366 -498 -100 callgsubr
          -529 151 rmoveto
          10 callgsubr
          444 -216 -95 hlineto
          -94 -75 -46 -85 -19 hvcurveto
          760 347 rmoveto
          70 -1412 -90 callsubr
          149 -1 rlineto
          -95 8 71 -63 105 48 callsubr
        </CharString>
        <CharString name="dvJH_NA">
          729 275 323 rmoveto
          10 callgsubr
          687 227 callsubr
          hlineto
          -115 -88 -66 -115 -7 hvcurveto
          76 -13 36 callsubr
          -1393 -90 callsubr
          147 -1 rlineto
          -88 21 79 -54 97 -3 callsubr
        </CharString>
        <CharString name="dvJH_R">
          -43 711 196 rmoveto
          -243 -303 rlineto
          85 hlineto
          158 215 rlineto
          562 vmoveto
          70 -737 -90 callsubr
          238 -1 rlineto
          64 -436 239 callgsubr
        </CharString>
        <CharString name="dvJH_RA">
          297 275 323 rmoveto
          10 callgsubr
          257 -347 hlineto
          82 -323 103 callsubr
          -962 -90 callsubr
          249 -1 rlineto
          -5 vlineto
          3 -12 rlineto
          -22 vlineto
          -257 -327 rlineto
          85 hlineto
          172 231 rlineto
          -124 vlineto
          endchar
        </CharString>
        <CharString name="dvJH_YA">
          678 275 323 rmoveto
          10 callgsubr
          353 -69 hlineto
          54 callgsubr
          -14 hlineto
          -2 -15 -1 -16 -16 vvcurveto
          -25 2 -23 4 -22 vhcurveto
          275 -141 rmoveto
          -96 callgsubr
          414 488 rmoveto
          70 -1343 -90 callsubr
          173 -1 rlineto
          -93 38 83 -55 119 -62 callgsubr
        </CharString>
        <CharString name="dvJ_BA">
          621 872 152 rmoveto
          -100 -84 90 callsubr
          36 20 29 hvcurveto
          275 -240 rlineto
          -28 -29 -41 -18 -53 hhcurveto
          256 -152 rmoveto
          -12 callgsubr
          -1285 -70 1073 119 callgsubr
          -71 -62 -25 -45 -43 hvcurveto
          -298 -165 hlineto
          -92 callgsubr
          94 170 vlineto
          -12 -29 -6 -32 -36 vvcurveto
          138 callgsubr
          vhcurveto
          -196 vlineto
          -177 512 rmoveto
          121 61 -92 -89 -35 -10 -37 -21 -32 hvcurveto
          -275 240 rlineto
          29 33 43 16 48 hhcurveto
          endchar
        </CharString>
        <CharString name="dvJ_DA">
          550 1188 281 callgsubr
          -1215 -70 987 -110 -73 hlineto
          -74 -68 -20 -41 -48 hvcurveto
          -317 -165 hlineto
          -92 callgsubr
          95 182 vlineto
          -14 -29 -7 -35 -39 vvcurveto
          -143 -16 callgsubr
        </CharString>
        <CharString name="dvJ_DDA">
          487 1125 -27 callgsubr
          -1151 -70 931 263 callsubr
          vlineto
          -57 -56 -14 -36 -34 hvcurveto
          -263 -165 hlineto
          -92 callgsubr
          94 149 vlineto
          -1 -6 0 -6 -7 vvcurveto
          178 callsubr
          vhcurveto
          -26 callgsubr
        </CharString>
        <CharString name="dvJ_JA">
          797 1436 -27 callgsubr
          -1462 -70 1247 -171 -271 -165 vlineto
          -18 callsubr
          -347 -165 vlineto
          -92 callgsubr
          94 182 -94 136 callsubr
          190 -427 97 callgsubr
        </CharString>
        <CharString name="dvJ_JHA">
          784 822 323 rmoveto
          10 callgsubr
          197 -347 hlineto
          82 -323 103 callsubr
          -1449 -70 957 205 callsubr
          -58 -57 -14 -37 -34 hvcurveto
          -282 -165 hlineto
          -92 callgsubr
          94 168 vlineto
          -1 -7 0 -7 -7 vvcurveto
          205 callgsubr
          vhcurveto
          -1 18 18 0 17 hhcurveto
          93 48 -41 -67 -52 -36 -46 -82 -94 -49 53 62 -9 hvcurveto
          -74 -248 79 154 hlineto
          -23 14 47 -61 109 hhcurveto
          116 56 67 84 53 -20 38 -29 25 hvcurveto
          189 -1 rlineto
          -259 vlineto
          endchar
        </CharString>
        <CharString name="dvJ_J_NYA">
          724 1231 hmoveto
          1 callsubr
          -1389 -70 1175 -171 -768 -165 vlineto
          -92 callgsubr
          98 332 vlineto
          93 74 -52 -95 -76 -49 -59 -84 -74 -68 45 86 -9 hvcurveto
          -78 -273 81 159 hlineto
          -47 29 60 -39 82 hhcurveto
          109 78 73 112 81 -41 55 -58 30 hvcurveto
          210 -431 hlineto
          endchar
        </CharString>
        <CharString name="dvJ_J_VA">
          1180 1437 163 -77 callsubr
          -1845 -70 1632 296 callgsubr
          -57 -23 -41 -40 hvcurveto
          -302 -165 hlineto
          -18 callsubr
          -347 -165 vlineto
          -92 callgsubr
          94 182 -94 136 callsubr
          174 vlineto
          -11 -28 -6 -32 -35 vvcurveto
          -143 -51 callgsubr
        </CharString>
        <CharString name="dvJ_J_YA">
          1253 1478 229 callsubr
          74 59 118 vvcurveto
          82 202 -53 callsubr
          414 112 callgsubr
          -1918 -70 1419 -69 vlineto
          -102 -66 -35 -113 vhcurveto
          -265 -130 hlineto
          -78 -42 -52 -70 -68 -42 52 78 vhcurveto
          130 -346 -130 vlineto
          -14 callgsubr
          130 -84 -131 vlineto
          -119 281 callsubr
          74 83 119 vhcurveto
          59 182 -59 vlineto
          -119 68 -83 124 121 74 83 119 vhcurveto
          61 131 vlineto
          14 11 0 10 hhcurveto
          -172 7 94 -111 163 hhcurveto
          107 73 -61 callsubr
          vlineto
          endchar
        </CharString>
        <CharString name="dvJ_KA">
          935 1095 hmoveto
          -95 callsubr
          -1599 -70 1041 -60 callgsubr
          -62 -53 -22 -38 -38 hvcurveto
          -304 -165 hlineto
          -92 callgsubr
          94 177 vlineto
          -11 -29 -6 -32 -36 vvcurveto
          -50 callsubr
          endchar
        </CharString>
        <CharString name="dvJ_MA">
          733 1156 483 rmoveto
          -183 187 183 hlineto
          -366 -469 rmoveto
          -60 -46 126 callsubr
          69 hvcurveto
          92 -95 hlineto
          -73 -38 -45 -66 vhcurveto
          581 469 rmoveto
          70 -1397 -70 920 -187 -513 -149 vlineto
          -14 callgsubr
          149 -84 -150 vlineto
          -119 281 callsubr
          74 83 119 vhcurveto
          82 185 vlineto
          -25 -28 -15 -37 -48 vvcurveto
          -103 74 -69 111 114 67 70 124 vhcurveto
          90 183 -414 4 callsubr
        </CharString>
        <CharString name="dvJ_NA">
          729 685 305 rmoveto
          74 53 50 75 73 53 -51 -72 -72 -53 -51 -73 -76 -52 51 71 vhcurveto
          677 365 rmoveto
          70 -1388 -70 1173 -171 -766 -165 vlineto
          -92 callgsubr
          94 187 vlineto
          -25 -31 -15 -41 -50 vvcurveto
          -118 88 -75 203 callsubr
          59 -23 45 -32 30 vhcurveto
          196 -430 282 callgsubr
        </CharString>
        <CharString name="dvJ_NY">
          -77 705 -27 callgsubr
          -731 -70 vlineto
          731 -213 rmoveto
          68 -462 -68 20 vlineto
          53 callgsubr
          endchar
        </CharString>
        <CharString name="dvJ_NYA">
          194 700 hmoveto
          1 callsubr
          -858 -70 644 -145 -375 -68 20 vlineto
          53 callgsubr
          209 -457 hlineto
          endchar
        </CharString>
        <CharString name="dvJ_NY_YA">
          697 922 182 rmoveto
          -125 -62 78 124 -11 hvcurveto
          124 10 71 65 129 -76 callsubr
          414 112 callgsubr
          -1362 -70 863 -69 vlineto
          -104 -51 -45 -88 -10 vhcurveto
          49 -27 -55 34 -89 hhcurveto
          -284 -68 20 hlineto
          53 callgsubr
          117 hlineto
          62 41 -30 -45 14 hvcurveto
          -165 14 83 -106 165 -62 callgsubr
        </CharString>
        <CharString name="dvJ_R">
          72 callgsubr
          endchar
        </CharString>
        <CharString name="dvJ_RA">
          185 callsubr
          681 -168 -274 49 callgsubr
          31 196 -107 vlineto
          -352 -359 rlineto
          93 hlineto
          261 275 rlineto
          -242 78 -24 callsubr
        </CharString>
        <CharString name="dvJ_TA">
          636 1274 -27 callgsubr
          -1300 -70 1085 -172 -678 -164 vlineto
          -14 callgsubr
          164 -84 -165 vlineto
          -119 281 callsubr
          74 83 119 vhcurveto
          93 247 vlineto
          -53 -38 -31 -59 -86 vvcurveto
          -156 105 -85 154 vhcurveto
          33 66 -21 hlineto
          -122 186 callgsubr
          146 -426 282 callgsubr
        </CharString>
        <CharString name="dvJ_TTA">
          587 1226 -27 callgsubr
          -1252 -70 957 -116 -23 vlineto
          -77 -67 -19 -36 -50 hvcurveto
          -333 -165 hlineto
          -92 callgsubr
          94 188 vlineto
          -20 -36 -11 -45 -51 -72 callsubr
        </CharString>
        <CharString name="dvJ_VA">
          611 868 163 -77 callsubr
          -1276 -70 1063 296 callgsubr
          -57 -23 -41 -40 hvcurveto
          -302 -165 hlineto
          -92 callgsubr
          94 174 vlineto
          -11 -28 -6 -32 -35 vvcurveto
          -143 -51 callgsubr
        </CharString>
        <CharString name="dvJ_YA">
          -3 callgsubr
          endchar
        </CharString>
        <CharString name="dvJx">
          -67 694 427 rmoveto
          72 -313 -165 vlineto
          -92 callgsubr
          94 vlineto
          232 243 rmoveto
          70 -720 -70 vlineto
          353 208 callgsubr
        </CharString>
        <CharString name="dvJxA">
          185 callsubr
          678 -171 -271 -165 vlineto
          -92 callgsubr
          94 190 -427 83 670 vlineto
          -408 208 callgsubr
        </CharString>
        <CharString name="dvJx_JxA">
          797 327 -5 rmoveto
          -101 callsubr
          569 hmoveto
          -101 callsubr
          540 675 rmoveto
          70 -1462 -70 1247 -171 -271 -165 vlineto
          -18 callsubr
          -347 -165 vlineto
          -92 callgsubr
          94 182 -94 136 callsubr
          190 -427 97 callgsubr
        </CharString>
        <CharString name="dvJx_R">
          72 callgsubr
          -263 -385 -18 callgsubr
          endchar
        </CharString>
        <CharString name="dvJx_RA">
          185 callsubr
          681 -168 -274 49 callgsubr
          31 196 -107 vlineto
          -352 -359 rlineto
          93 hlineto
          261 275 rlineto
          -242 78 670 vlineto
          -539 -626 -18 callgsubr
          endchar
        </CharString>
        <CharString name="dvJx_YA">
          -3 callgsubr
          -865 208 callgsubr
        </CharString>
        <CharString name="dvK">
          23 callgsubr
          endchar
        </CharString>
        <CharString name="dvKA">
          382 543 hmoveto
          -95 callsubr
          -1047 -94 callgsubr
          24 callsubr
          -72 -47 -87 -108 vhcurveto
          endchar
        </CharString>
        <CharString name="dvKH">
          32 callgsubr
          127 -330 -70 callgsubr
          endchar
        </CharString>
        <CharString name="dvKHA">
          321 611 201 78 callsubr
          -16 -65 99 callsubr
          -260 -67 -35 callsubr
          endchar
        </CharString>
        <CharString name="dvKH_KHA">
          994 472 340 -70 callgsubr
          811 -139 rmoveto
          -76 -62 51 92 86 63 50 75 96 39 -74 -65 -65 -41 -75 -94 hvcurveto
          217 -201 103 callsubr
          -1658 -80 callgsubr
          60 51 18 32 36 hvcurveto
          -120 21 92 -69 131 hhcurveto
          112 74 63 79 38 hvcurveto
          278 callgsubr
          76 49 36 47 26 hvcurveto
          -219 vlineto
          -1083 69 229 callgsubr
          -129 vlineto
          -105 -48 -37 -65 -7 vhcurveto
          94 -21 -77 58 -108 hhcurveto
          -127 -89 -17 callgsubr
          673 hmoveto
          217 callsubr
          47 -26 -49 36 -76 210 callsubr
        </CharString>
        <CharString name="dvKH_MA">
          876 1299 454 267 callgsubr
          -827 -330 -70 callgsubr
          461 -168 -22 callsubr
        </CharString>
        <CharString name="dvKH_NA">
          870 831 310 rmoveto
          -9 callsubr
          53 -52 -71 -72 -53 -51 -73 -76 -52 50 72 vhcurveto
          -359 30 141 callsubr
          948 -166 -327 vlineto
          -70 -58 -24 -45 -36 hvcurveto
          69 -31 -69 40 -92 hhcurveto
          -127 -85 -17 callgsubr
          1173 601 rmoveto
          70 -1534 -80 callgsubr
          75 60 27 51 36 hvcurveto
          -61 32 65 -36 79 hhcurveto
          109 82 43 callsubr
          282 callgsubr
        </CharString>
        <CharString name="dvKH_R">
          15 callsubr
          127 -330 -70 callgsubr
          endchar
        </CharString>
        <CharString name="dvKH_RA">
          321 828 hmoveto
          1 callsubr
          -986 5 callgsubr
          22 22 18 26 14 27 rlinecurve
          -2 12 13 -1 14 hhcurveto
          75 49 35 46 26 hvcurveto
          -217 vlineto
          -134 201 78 callsubr
          -276 -132 -35 callsubr
          endchar
        </CharString>
        <CharString name="dvKH_SHA">
          69 callgsubr
          137 271 -10 callsubr
        </CharString>
        <CharString name="dvKH_TA">
          752 472 340 -27 callsubr
        </CharString>
        <CharString name="dvKH_VA">
          742 1249 141 callgsubr
          -1406 -80 callgsubr
          73 59 26 49 36 hvcurveto
          -73 35 69 -43 92 118 callsubr
          vlineto
          -695 340 -70 callgsubr
          526 -177 -92 callsubr
          -663 -94 rmoveto
          -74 callgsubr
          822 251 callgsubr
          -86 -67 -39 -64 -37 hvcurveto
          54 -36 -62 30 -80 hhcurveto
          -127 -85 -17 callgsubr
          endchar
        </CharString>
        <CharString name="dvKH_YA">
          807 472 340 -38 callsubr
        </CharString>
        <CharString name="dvKHx">
          32 callgsubr
          27 -808 rmoveto
          -101 callsubr
          100 478 -70 callgsubr
          endchar
        </CharString>
        <CharString name="dvKHxA">
          321 595 136 99 callsubr
          -223 -274 rmoveto
          -101 callsubr
          239 339 78 callsubr
          -276 -132 -35 callsubr
          endchar
        </CharString>
        <CharString name="dvKHx_MA">
          876 372 -138 rmoveto
          -101 callsubr
          100 478 -70 callgsubr
          827 114 267 callgsubr
          -366 -498 -22 callsubr
        </CharString>
        <CharString name="dvKHx_R">
          15 callsubr
          -191 -740 -18 callgsubr
          318 410 -70 callgsubr
          endchar
        </CharString>
        <CharString name="dvKHx_RA">
          321 828 hmoveto
          1 callsubr
          -986 5 callgsubr
          22 22 18 26 14 27 rlinecurve
          -2 12 13 -1 14 hhcurveto
          75 49 35 46 26 hvcurveto
          -217 vlineto
          -591 -70 -18 callgsubr
          457 271 78 callsubr
          -276 -132 -35 callsubr
          endchar
        </CharString>
        <CharString name="dvKHx_SA">
          882 122 callsubr
          -137 -271 rmoveto
          -106 -63 68 98 hvcurveto
          102 vlineto
          96 83 51 151 hvcurveto
          131 677 -91 vlineto
          -31 callsubr
          -38 hlineto
          84 -26 -75 49 -102 67 callsubr
          770 510 283 callgsubr
          -252 -262 vlineto
          37 35 24 55 71 vvcurveto
          416 91 rmoveto
          70 -1547 -70 287 -121 vlineto
          176 callgsubr
          60 50 17 32 37 hvcurveto
          -114 7 68 -80 124 hhcurveto
          213 callsubr
          hvcurveto
          16 -81 -12 vlineto
          -77 -43 -52 -72 -79 -36 59 81 vhcurveto
          147 465 -350 97 callgsubr
        </CharString>
        <CharString name="dvKHx_SHA">
          69 callgsubr
          49 -210 rmoveto
          32 -24 25 -32 -32 -24 -25 -32 -31 24 -24 32 32 24 24 31 vhcurveto
          88 481 -10 callsubr
        </CharString>
        <CharString name="dvKHx_TA">
          752 384 -141 rmoveto
          32 -24 25 -32 -32 -24 -25 -32 -31 24 -24 32 32 24 24 31 vhcurveto
          88 481 -27 callsubr
        </CharString>
        <CharString name="dvKHx_VA">
          742 122 callsubr
          526 -177 -92 callsubr
          251 -163 rmoveto
          -12 callgsubr
          -1406 -80 callgsubr
          73 59 26 49 36 hvcurveto
          -73 35 69 -43 92 118 callsubr
          vlineto
          -832 117 callsubr
          822 251 callgsubr
          -86 -67 -39 -64 -37 hvcurveto
          54 -36 -62 30 -80 hhcurveto
          -127 -85 -17 callgsubr
          endchar
        </CharString>
        <CharString name="dvKHx_YA">
          807 384 -141 rmoveto
          32 -24 25 -32 -32 -24 -25 -32 -31 24 -24 32 32 24 24 31 vhcurveto
          88 481 -38 callsubr
        </CharString>
        <CharString name="dvK_CA">
          761 1015 170 rmoveto
          -84 -1 -72 52 96 vvcurveto
          88 62 65 95 vhcurveto
          35 67 -323 hlineto
          -99 -58 -41 -57 -28 hvcurveto
          231 641 -321 vlineto
          -99 -68 -80 -101 vhcurveto
          -707 -2 -107 callgsubr
          1092 502 rmoveto
          70 -1426 -86 callgsubr
          312 vlineto
          79 43 79 120 vhcurveto
          176 hlineto
          -65 -32 -37 -62 -78 vvcurveto
          -131 96 -67 116 85 70 40 63 37 vhcurveto
          -203 4 callsubr
        </CharString>
        <CharString name="dvK_DA">
          754 227 callgsubr
          622 -110 -72 hlineto
          -90 -80 -29 -60 -48 hvcurveto
          55 -35 -58 33 -72 hhcurveto
          -88 -53 -44 -57 -26 hvcurveto
          -235 -290 -107 callgsubr
          1084 502 rmoveto
          70 -1418 -34 callgsubr
          0 vlineto
          -1 0 -2 -2 vvcurveto
          -143 93 -83 127 73 58 31 47 29 vhcurveto
          -193 81 318 -76 vlineto
          -95 -77 -41 -65 -96 -62 62 95 110 85 55 103 vhcurveto
          149 182 hlineto
          endchar
        </CharString>
        <CharString name="dvK_JA">
          979 308 -77 callgsubr
          711 36 rmoveto
          -68 -41 52 78 hvcurveto
          15 vlineto
          120 -78 90 -122 -88 -53 -44 -57 -26 vhcurveto
          212 860 266 callsubr
          -42 -52 -70 vhcurveto
          599 466 rmoveto
          70 -1644 50 callsubr
          83 58 -59 -96 vhcurveto
          -12 vlineto
          -106 68 -83 123 121 74 83 119 vhcurveto
          94 190 -427 97 callgsubr
        </CharString>
        <CharString name="dvK_KA">
          171 callgsubr
          913 502 295 callgsubr
          -73 -61 -30 -53 -38 hvcurveto
          52 -36 -56 31 -70 hhcurveto
          -88 -53 -44 -57 -26 hvcurveto
          212 vlineto
          758 -670 rmoveto
          -95 callsubr
          -1805 -34 callgsubr
          1 hlineto
          -50 callsubr
          endchar
        </CharString>
        <CharString name="dvK_KHA">
          1065 710 555 rmoveto
          -88 -53 -43 -57 -26 hvcurveto
          215 461 -121 vlineto
          -101 -45 -38 -62 -10 vhcurveto
          94 -21 -67 61 -99 hhcurveto
          -402 -387 -107 callgsubr
          1263 -168 103 callsubr
          -1729 -34 callgsubr
          -94 vlineto
          -148 98 -91 151 112 201 callsubr
          36 47 26 hvcurveto
          -219 vlineto
          -135 201 rmoveto
          -76 -62 51 92 86 64 50 74 96 39 -74 -65 -65 -41 -75 -94 hvcurveto
          -275 -132 rmoveto
          217 callsubr
          48 -26 -48 35 -77 210 callsubr
        </CharString>
        <CharString name="dvK_LA">
          1048 1210 398 rmoveto
          -2 hlineto
          -32 callsubr
          -71 -58 -29 -51 -37 hvcurveto
          58 -33 -56 34 -70 hhcurveto
          188 callgsubr
          214 816 38 callsubr
          -902 -230 -107 callgsubr
          235 153 rmoveto
          253 callgsubr
          -96 vhcurveto
          0 vlineto
          -5 0 -5 -6 vvcurveto
          -140 81 -105 139 callsubr
          vhcurveto
          -87 callgsubr
          -53 callgsubr
          -1713 -86 callgsubr
          vlineto
          endchar
        </CharString>
        <CharString name="dvK_MA">
          942 87 callgsubr
          691 4 9 callgsubr
        </CharString>
        <CharString name="dvK_NA">
          940 710 559 rmoveto
          -88 -53 -44 -57 -26 hvcurveto
          212 820 215 callgsubr
          -62 -55 -19 -37 -38 hvcurveto
          71 -29 -58 40 -83 hhcurveto
          -402 -391 -107 callgsubr
          593 142 36 callsubr
          -1604 50 callsubr
          80 57 -57 -91 4 vhcurveto
          -1 -9 -1 -10 -10 vvcurveto
          -13 callsubr
          hlineto
          endchar
        </CharString>
        <CharString name="dvK_NNA">
          975 227 callgsubr
          279 -156 hlineto
          24 -30 -39 14 -45 hhcurveto
          -87 -52 -42 -55 -26 hvcurveto
          -235 -287 -107 callgsubr
          705 86 rmoveto
          -56 callgsubr
          600 416 rmoveto
          70 -1639 50 callsubr
          69 51 -42 -65 16 vhcurveto
          -111 66 -86 124 125 66 84 116 vhcurveto
          287 195 -670 4 callsubr
        </CharString>
        <CharString name="dvK_PA">
          -4 callsubr
          45 -39 -64 15 vhcurveto
          -114 18 70 -73 122 31 callgsubr
        </CharString>
        <CharString name="dvK_PHA">
          1104 227 callgsubr
          272 -143 hlineto
          18 -29 -36 10 -40 hhcurveto
          -88 -53 -42 -57 -26 hvcurveto
          -235 -288 -107 callgsubr
          731 100 9 callsubr
          -1768 50 callsubr
          63 50 -36 -58 19 vhcurveto
          -120 14 67 -76 121 hhcurveto
          74 54 32 52 30 hvcurveto
          -281 -104 callsubr
          endchar
        </CharString>
        <CharString name="dvK_P_RA">
          -4 callsubr
          46 -39 -65 15 vhcurveto
          -112 18 69 -70 122 -47 callgsubr
        </CharString>
        <CharString name="dvK_R">
          126 543 hmoveto
          321 vlineto
          79 1 42 87 107 hhcurveto
          82 65 -61 -96 hvcurveto
          85 hlineto
          136 -87 215 callsubr
          -57 -45 -60 -27 vhcurveto
          216 382 70 -951 33 callsubr
        </CharString>
        <CharString name="dvK_RA">
          382 543 hmoveto
          -25 callsubr
          -1047 33 callsubr
        </CharString>
        <CharString name="dvK_SA">
          952 308 168 -68 callsubr
          201 -252 252 callgsubr
          71 vvcurveto
          417 91 rmoveto
          70 -1617 -79 callgsubr
          49 callsubr
          147 465 -350 84 670 vlineto
          endchar
        </CharString>
        <CharString name="dvK_SHA">
          940 132 callsubr
          453 vlineto
          4 14 14 2 16 hhcurveto
          77 49 291 callgsubr
          -75 hlineto
          99 -19 -68 65 -102 hhcurveto
          529 -358 212 callgsubr
          -88 -39 291 callsubr
          141 108 250 callgsubr
          213 callgsubr
          -1003 -70 489 -213 hlineto
          8 callsubr
          -115 166 callsubr
        </CharString>
        <CharString name="dvK_SS">
          -82 173 567 -69 callgsubr
          321 62 -235 hlineto
          41 34 31 43 66 -39 callsubr
          endchar
        </CharString>
        <CharString name="dvK_SSA">
          189 173 567 -69 callgsubr
          292 -377 81 -12 callgsubr
          -212 -301 -206 hlineto
          41 34 31 43 66 -39 callsubr
          endchar
        </CharString>
        <CharString name="dvK_SS_MA">
          703 761 157 rmoveto
          -61 -45 41 65 67 49 40 69 hvcurveto
          92 -81 hlineto
          -83 -38 -49 -66 vhcurveto
          -588 410 -69 callgsubr
          293 hlineto
          -25 -29 -14 -38 -47 98 callsubr
          77 184 -371 83 1 callsubr
          -765 -70 288 -230 -456 vlineto
          41 34 31 43 66 -39 callsubr
          742 493 rmoveto
          -184 230 184 hlineto
          endchar
        </CharString>
        <CharString name="dvK_SS_M_YA">
          1163 761 153 rmoveto
          -61 -45 42 127 callsubr
          69 hvcurveto
          91 -82 hlineto
          -82 -37 -50 -66 vhcurveto
          -588 414 -69 callgsubr
          296 hlineto
          -27 -29 -15 -40 -49 vvcurveto
          -105 74 -72 111 115 66 74 134 vhcurveto
          77 164 vlineto
          -166 4 94 -107 166 hhcurveto
          108 72 47 61 36 hvcurveto
          -202 83 1 callsubr
          -1225 -70 287 -234 -459 vlineto
          43 35 33 43 68 -39 callsubr
          756 490 rmoveto
          -198 234 360 -89 hlineto
          -110 -65 -35 -97 vhcurveto
          247 -273 rmoveto
          -126 -73 80 125 173 callsubr
          119 5 77 60 130 vvcurveto
          100 202 -318 vlineto
          -112 -87 -77 -112 vhcurveto
          endchar
        </CharString>
        <CharString name="dvK_SS_VA">
          576 173 567 -69 callgsubr
          264 hlineto
          -3 -14 -1 -15 -16 vvcurveto
          -143 94 -94 135 93 64 44 61 32 212 callsubr
          -636 -70 423 251 callgsubr
          -95 -76 -47 -77 -35 hvcurveto
          -197 hlineto
          41 34 31 43 66 -39 callsubr
          448 217 rmoveto
          -95 -72 63 105 101 74 201 callgsubr
          endchar
        </CharString>
        <CharString name="dvK_SS_YA">
          638 173 567 -69 callgsubr
          258 -4 hlineto
          -158 100 -104 168 105 71 46 61 36 vhcurveto
          -218 232 callsubr
          -695 -70 196 -89 vlineto
          -112 -74 -33 -94 vhcurveto
          -204 hlineto
          43 35 33 43 68 -39 callsubr
          477 236 rmoveto
          -126 -73 75 115 hvcurveto
          2 0 2 2 vvcurveto
          126 8 71 65 130 vvcurveto
          89 -71 callsubr
          endchar
        </CharString>
        <CharString name="dvK_S_DDA">
          1253 70 callgsubr
          498 263 callsubr
          vlineto
          -88 -87 -34 -97 -6 hvcurveto
          -264 hlineto
          -24 callgsubr
          718 91 rmoveto
          70 -1918 -79 callgsubr
          30 callgsubr
          -73 -78 113 callgsubr
          147 477 vlineto
          -67 28 75 -21 67 hhcurveto
          -26 callgsubr
        </CharString>
        <CharString name="dvK_S_P_LA">
          1930 70 callgsubr
          181 -225 vlineto
          -9 0 -9 1 -9 vhcurveto
          -243 hlineto
          -24 callgsubr
          406 -311 42 callsubr
          -358 -80 rmoveto
          30 callgsubr
          -73 -78 113 callgsubr
          147 457 vlineto
          -95 26 68 -58 110 hhcurveto
          60 48 19 34 34 hvcurveto
          -107 22 78 -74 132 hhcurveto
          86 callsubr
          -53 callgsubr
          -2593 -79 callgsubr
          vhcurveto
          endchar
        </CharString>
        <CharString name="dvK_S_P_RA">
          1313 308 168 -68 callsubr
          181 -225 vlineto
          -9 0 -9 1 -9 vhcurveto
          -243 hlineto
          -24 callgsubr
          415 -311 -82 callsubr
          -1977 -79 callgsubr
          49 callsubr
          147 457 vlineto
          -92 25 68 -57 109 -47 callgsubr
        </CharString>
        <CharString name="dvK_S_TA">
          1356 308 168 -68 callsubr
          605 226 callsubr
          -95 -80 -25 -55 -51 hvcurveto
          -290 hlineto
          -24 callgsubr
          820 91 rmoveto
          70 -2020 -79 callgsubr
          49 callsubr
          147 451 vlineto
          -11 -29 -6 -34 -38 -62 callsubr
          endchar
        </CharString>
        <CharString name="dvK_S_TTA">
          1312 308 168 -68 callsubr
          482 -116 -23 vlineto
          -122 -96 -47 -89 -45 hvcurveto
          -257 hlineto
          -24 callgsubr
          777 91 rmoveto
          70 -1977 -79 callgsubr
          49 callsubr
          147 439 vlineto
          -3 -17 -2 -19 -19 -72 callsubr
        </CharString>
        <CharString name="dvK_TA">
          482 1121 -27 callgsubr
          -1147 -70 565 -186 -501 -70 171 vlineto
          -54 -34 -37 -58 -88 vvcurveto
          -149 105 -83 154 vhcurveto
          32 66 -20 hlineto
          -122 -66 65 108 116 81 55 124 hvcurveto
          133 -412 81 256 hlineto
          74 47 88 119 86 68 -64 -98 -105 -65 -63 -93 -16 -21 2 2 -12 vhcurveto
          -66 vlineto
          -4 20 25 -3 24 hhcurveto
          130 92 89 149 138 -91 95 -125 -97 -61 -46 -59 -30 hvcurveto
          285 vlineto
          endchar
        </CharString>
        <CharString name="dvK_THA">
          900 132 callsubr
          438 1 vlineto
          4 12 14 2 17 hhcurveto
          68 40 -49 -62 -116 -104 -26 -102 hvcurveto
          -35 hlineto
          79 -24 -66 52 -91 hhcurveto
          697 -555 rmoveto
          668 131 72 225 callgsubr
          -138 -66 81 113 1 297 callgsubr
          126 callgsubr
          -113 -21 -20 -3 -6 -18 hvcurveto
          -992 -70 489 -213 hlineto
          58 -28 -58 44 -91 253 callsubr
          -83 callsubr
          hvcurveto
          -202 80 321 vlineto
          80 37 86 106 71 54 -45 -67 13 vhcurveto
          -3 vlineto
          -168 104 -105 168 124 77 66 64 26 vhcurveto
          -229 vlineto
          endchar
        </CharString>
        <CharString name="dvK_TTA">
          793 227 callgsubr
          594 -116 -23 hlineto
          -101 -84 -32 -62 -50 hvcurveto
          62 -33 -59 37 -77 hhcurveto
          -88 -53 -44 -57 -26 hvcurveto
          -235 -290 -107 callgsubr
          1124 502 rmoveto
          70 -1458 50 callsubr
          82 58 -60 -95 1 vhcurveto
          -1 -12 -1 -12 -13 -72 callsubr
        </CharString>
        <CharString name="dvK_T_RA">
          846 1271 431 rmoveto
          50 -34 -64 50 -100 hhcurveto
          -83 -68 -31 -57 -43 hvcurveto
          75 -33 -63 41 -73 hhcurveto
          -86 -54 -45 -59 -27 hvcurveto
          215 728 vlineto
          -963 -502 -107 callgsubr
          1176 502 rmoveto
          70 -1510 -57 callsubr
          42 86 103 79 66 -62 -130 1 vhcurveto
          -1 0 -2 -3 vvcurveto
          150 callsubr
        </CharString>
        <CharString name="dvK_T_VA">
          1188 698 552 rmoveto
          -80 -50 -40 -54 -25 hvcurveto
          212 1071 -212 vlineto
          274 callgsubr
          -169 hlineto
          -101 -85 -29 -62 -50 hvcurveto
          99 -20 -60 46 -76 hhcurveto
          -390 -384 -107 callgsubr
          1137 -5 -77 callsubr
          -1853 -70 489 -213 hlineto
          58 -28 -58 44 -91 253 callsubr
          -83 callsubr
          hvcurveto
          -202 80 321 vlineto
          78 35 84 102 79 52 -60 -141 -4 vhcurveto
          -1 -11 -1 -11 -11 91 callgsubr
        </CharString>
        <CharString name="dvK_T_YA">
          1252 695 552 rmoveto
          -79 -48 -39 -54 -25 hvcurveto
          211 848 137 callsubr
          -104 hhcurveto
          -90 -71 -28 -57 -44 hvcurveto
          81 -23 -59 39 -74 hhcurveto
          -387 -384 -107 callgsubr
          1168 14 109 callgsubr
          5 78 62 131 vvcurveto
          82 -54 callsubr
          -1916 -74 callsubr
          78 35 84 102 75 55 -52 -126 -3 vhcurveto
          -1 -11 -1 -12 -12 vvcurveto
          -166 106 -83 154 vhcurveto
          -26 callsubr
        </CharString>
        <CharString name="dvK_VA">
          819 543 -30 callsubr
          382 577 rmoveto
          -1485 -70 489 -213 hlineto
          8 callsubr
          1 hlineto
          -141 -51 callgsubr
        </CharString>
        <CharString name="dvK_V_YA">
          1298 1074 563 rmoveto
          -91 -73 -36 -61 -42 hvcurveto
          56 -33 -55 33 -71 hhcurveto
          -87 226 callgsubr
          214 895 -88 vlineto
          -107 -53 -44 -92 -9 vhcurveto
          78 -28 -72 63 -119 hhcurveto
          -766 -395 -107 callgsubr
          771 -5 63 callgsubr
          -1963 -34 callgsubr
          1 hlineto
          -141 100 -94 149 107 66 54 68 33 vhcurveto
          219 callgsubr
        </CharString>
        <CharString name="dvK_YA">
          876 710 -46 callgsubr
          -1540 -57 callsubr
          41 84 102 2 vhcurveto
          86 2 41 -59 6 -57 rrcurveto
          -153 3 95 -109 164 callsubr
        </CharString>
        <CharString name="dvKx">
          23 callgsubr
          17 -207 -75 callsubr
        </CharString>
        <CharString name="dvKxA">
          382 543 hmoveto
          -95 callsubr
          -1047 -94 callgsubr
          24 callsubr
          -72 -47 -87 -108 vhcurveto
          17 -207 -75 callsubr
        </CharString>
        <CharString name="dvKx_BA">
          834 227 callgsubr
          717 -207 hlineto
          59 -33 -64 47 -95 hhcurveto
          -85 -73 -37 -63 -43 hvcurveto
          56 -32 -55 34 -70 hhcurveto
          -88 -53 -44 -57 -26 hvcurveto
          -235 -290 -107 callgsubr
          1033 -168 rmoveto
          -12 callgsubr
          -1498 50 callsubr
          83 58 -61 -96 138 callgsubr
          vhcurveto
          -196 vlineto
          -935 -39 rmoveto
          -101 callsubr
          758 551 -20 callsubr
        </CharString>
        <CharString name="dvKx_KxA">
          171 callgsubr
          17 -207 rmoveto
          -101 callsubr
          758 hmoveto
          -101 callsubr
          138 709 295 callgsubr
          -76 -63 -33 -57 -38 hvcurveto
          57 -32 -55 33 -70 hhcurveto
          -88 -53 -44 -57 -26 hvcurveto
          212 vlineto
          758 -670 rmoveto
          -95 callsubr
          -1805 -34 callgsubr
          1 hlineto
          -50 callsubr
          endchar
        </CharString>
        <CharString name="dvKx_MA">
          938 87 callgsubr
          17 -207 rmoveto
          -101 callsubr
          674 211 9 callgsubr
        </CharString>
        <CharString name="dvKx_PHA">
          1104 227 callgsubr
          272 -143 hlineto
          18 -29 -36 10 -40 hhcurveto
          -88 -53 -42 -57 -26 hvcurveto
          -235 -288 -107 callgsubr
          731 100 9 callsubr
          -1768 50 callsubr
          63 50 -36 -58 19 vhcurveto
          -120 14 67 -76 121 hhcurveto
          74 54 32 52 30 hvcurveto
          -281 -104 callsubr
          -936 -709 -75 callsubr
        </CharString>
        <CharString name="dvKx_PHxA">
          1105 227 callgsubr
          273 -144 hlineto
          19 -30 -36 10 -40 hhcurveto
          -88 -53 -42 -57 -26 hvcurveto
          -235 -288 -107 callgsubr
          17 -207 rmoveto
          -101 callsubr
          722 102 rmoveto
          -101 callsubr
          -7 205 9 callsubr
          -1769 50 callsubr
          65 51 -38 -62 17 vhcurveto
          -116 16 67 -74 119 hhcurveto
          74 54 32 52 30 hvcurveto
          -281 -104 callsubr
          endchar
        </CharString>
        <CharString name="dvKx_R">
          173 244 callsubr
          hvcurveto
          84 hlineto
          136 -87 215 callsubr
          -56 -46 -60 -28 vhcurveto
          217 382 70 -998 15 callgsubr
        </CharString>
        <CharString name="dvKx_RA">
          430 244 callsubr
          -101 -63 -58 -82 -14 -16 1 3 -12 hvcurveto
          -66 vlineto
          -5 18 22 -2 22 hhcurveto
          119 90 84 146 134 -87 215 callsubr
          -56 -46 -60 -28 hvcurveto
          217 478 70 -1094 15 callgsubr
        </CharString>
        <CharString name="dvKx_TA">
          814 701 552 rmoveto
          -82 -51 -40 -55 -25 hvcurveto
          213 694 226 callsubr
          -89 -76 -22 -48 -51 hvcurveto
          83 -24 -66 41 -80 hhcurveto
          -393 -384 -107 callgsubr
          17 -207 rmoveto
          -101 callsubr
          1127 709 rmoveto
          70 -1478 -74 callsubr
          78 35 84 102 73 60 -54 -120 -6 vhcurveto
          -3 -19 -2 -20 -21 -62 callsubr
          endchar
        </CharString>
        <CharString name="dvL">
          53 451 398 rmoveto
          -97 callsubr
          86 43 -69 -87 vhcurveto
          84 1 rlineto
          141 -82 88 -119 -111 -50 -74 -71 -19 vhcurveto
          381 272 rmoveto
          70 -860 -70 vlineto
          endchar
        </CharString>
        <CharString name="dvLA">
          292 596 69 rmoveto
          -53 callgsubr
          -956 -70 628 -129 vlineto
          -90 -13 -42 -66 -17 -64 rrcurveto
          -2 hlineto
          70 -18 -49 75 -106 hhcurveto
          -123 -85 -86 -143 -140 81 -105 157 86 callsubr
          endchar
        </CharString>
        <CharString name="dvLL">
          385 497 235 rmoveto
          3 hlineto
          -79 25 75 -61 103 hhcurveto
          127 98 91 134 139 -99 90 -125 -105 -68 -59 -79 -31 hvcurveto
          28 callsubr
          -346 84 -22 callgsubr
          484 350 rmoveto
          70 -1050 -70 vlineto
          endchar
        </CharString>
        <CharString name="dvLLA">
          385 151 319 -22 callgsubr
          163 -225 rmoveto
          127 98 91 134 119 -73 84 -100 21 hvcurveto
          106 callsubr
          -79 25 75 -61 103 hhcurveto
          endchar
        </CharString>
</ttFont>
